<svg id="Camada_1" data-name="Camada 1" xmlns="http://www.w3.org/2000/svg" viewBox="0 0 354.61 150.36"><defs><style>.cls-1{fill:#c0272d;}</style></defs><path class="cls-1" d="M104.87,114a1.73,1.73,0,0,1-1.55-.17c-.06,0-.12-.33-.11-.35.11-.21.26-.55.35-.55.54,0,1.06.15,1.59.24a11.26,11.26,0,0,1,.25-1.54c.15-.43.46-.65.61-1.08s.12-1,.41-1.35a2.24,2.24,0,0,0,.49-1.24l.67-4.68a3.71,3.71,0,0,1,.64-1.69,2.33,2.33,0,0,0,.23-1.38,1.11,1.11,0,0,0-.11-.4.75.75,0,0,1,0-.75A3.74,3.74,0,0,0,109,97.4a3.9,3.9,0,0,0-.18-2.27,3.73,3.73,0,0,0,.8-2.08c0-.67.19-1.37.29-2,.15-.24.3-.46.45-.69a3.13,3.13,0,0,0,.3-1.4c-.05-.36-.16-.51-.33-.51s-.31-.09-.47-.06-.31-.07-.38-.37a.76.76,0,0,1,.23-.72,2.68,2.68,0,0,0,.45-1.29c.11-.53.33-.86.6-.69s.33,0,.45-.34a2.56,2.56,0,0,0,.15-1.41c-.19-.67-.38-1.32-.57-2a3.64,3.64,0,0,0,.8-2.07c.09-1,.28-2,.42-3l-.75.63h.08l.79.34c.25.12.41,0,.76-.11a2.18,2.18,0,0,1,2.15-.07,3.14,3.14,0,0,0,.84.21l8.93-.17a4.49,4.49,0,0,0,2.25-.49,2.62,2.62,0,0,1,1.41,0l.78.35,5.72-.12a2.58,2.58,0,0,1,.93.13,5,5,0,0,0,2.31.3.55.55,0,0,1,.71-.41c.35.08.46.22.35.39l6.29-.09c1,0,1-.28,1.11-.61s.33-.38,1.06-.38a1.6,1.6,0,0,1,.87.16h0l.19-.14a.31.31,0,0,1,.27-.06c.15.05.29.14.44.18.44.14.63,0,1-.83l1.78-4.3c.23-.22.43-.39.63-.59a2.14,2.14,0,0,0,.2-.3,6.43,6.43,0,0,1,.35-2.19,6,6,0,0,0-.06-1.6c-.38,0-.43-.46-.44-1,0-1.38.27-1.93,1.13-2.1.36-.07.44-.1.66-.6l-.77,0,.09.23a3.82,3.82,0,0,0,.66,1.22c.33.26.3.57.28.56a1.09,1.09,0,0,1-.43-.36c-.24-.38-.22-.62.05-.48.12.06.28.31.1.28a1.38,1.38,0,0,0-1,0c0,.54-.08,1.08-.14,1.75l.83,2.3c.32.9.32.91.91,1s.92.87.9,1.67c0,.28,0,.54-.07.82.47,1.3.94,2.62,1.4,3.92l-.06,1.24.17.49a10.19,10.19,0,0,0,.55,1.45A4.88,4.88,0,0,0,159,80c-.06.7-.11,1.37-.16,2.05a2.11,2.11,0,0,0,.48,1.31,4.1,4.1,0,0,1,1.14,2,3.16,3.16,0,0,0,1,1.48l0,.88,0,.43,1.54.64,1.38.57a3.44,3.44,0,0,1,2.18-.51c.51,0,1.05,0,1.57,0a1.54,1.54,0,0,1,.87.19,2.09,2.09,0,0,0,1.31.27c.17,0,.36,0,.52,0a2.79,2.79,0,0,1,.78,0l-2-1.41a3.48,3.48,0,0,1,0,1,.67.67,0,0,0,.12.34c.08.12.21.28.27.27.31-.07.6-.21.91-.28.06,0,.21.15.28.28a.65.65,0,0,1,0,.68c-.11.14-.3.12-.41.24s0,.82.28,1.35a1.46,1.46,0,0,0,.26.34c.2.23.23.07.25-.31,0-.63.06-.6.45-.21l1.16,1.17c0-.21.08-.43.11-.65.09-.57.37-.71.75-.33l1.9,1.91c-.5.54,0,1.53.35,2.48.23.6.25,1.1.05,1.14-.62.13-1.11.63-1.83.47a.59.59,0,0,1-.27-.29c-.21-.48-.38-1-.56-1.46l-.23.08c-.07,0-.14.08-.22.07s-.31.11-.26.48a1.12,1.12,0,0,0,.43.64c.35.34.45.73.28,1-.46.6-.5.62-.09,1.6a3.68,3.68,0,0,1,.31,2.21c.28.73.55,1.47.83,2.2l3.71,9.83L180,103.76l0-.25a2.19,2.19,0,0,0,0-.93,4.51,4.51,0,0,1,0-2.33c-.36-.2-.39-.28-.34-1.12-.08,0-.2,0-.23,0-.17-.5-.32-1-.49-1.59a4.45,4.45,0,0,0,.72-2,.68.68,0,0,1,.19-.35c.48-.5.52-1.41.2-2.77-.4-.91-.31-1.18-.18-1.45s.14-.35.43.66a2,2,0,0,1,.17,1.3c-.28-.21-.45.38-.66.65-.07.08-.17.25-.2.22a1.29,1.29,0,0,1-.11-.86c0-.35.09-.7.55-.52.5.53.6.62.65.54.23-.31.44-.68.65-1s.28-.85,0-1-.46-.08-.55-.61c.4-.67.79-1.35,1.19-2-.28-.73-.35-1.86-1-1.71,0,0-.12-.24-.11-.38a5.17,5.17,0,0,1,.55-2.79,1.55,1.55,0,0,0,.32-.83c.08-.88.33-1.2.71-1.1a1.84,1.84,0,0,0,.47.07c.29,0,.42-.24.53-.93a1.42,1.42,0,0,0,0-.93c-.09-.15-.22,0-.38.31s-.29.47-.37.2a1.37,1.37,0,0,1-.07-.42c0-.81.25-1.29.61-1.38.64-.15.84-.84.55-2-.09-.35-.17-.61,0-.76a3.78,3.78,0,0,0,.66-2.22,1.58,1.58,0,0,1,.25-.9,4,4,0,0,0,.65-2.25c.09-.7.06-.91-.21-1.14-.07-.06-.18,0-.23-.06a6.27,6.27,0,0,1-.29-.58A3.69,3.69,0,0,1,185,68c.15-.1.35,0,.45-.2.32-.59-.09-.72-.09-1.12s0-.65,0-1c.13-1,.29-2.09.4-3.13a3.19,3.19,0,0,0-.11-.87,2.24,2.24,0,0,1,.3-2.15,2.41,2.41,0,0,0,.21-2.16l-.12-.4.39-.69a2.47,2.47,0,0,0,.22-1.78c-.05-.26-.11-.52-.16-.78a12.28,12.28,0,0,1,.87-1.36c.43-.49.34-1.65.79-2.1s.34-1.2.47-1.85a2.37,2.37,0,0,0-.11-1.34,1.1,1.1,0,0,1-.11-.4,3.84,3.84,0,0,0-.21-2.21l.44-.7a.83.83,0,0,0,.14-.35c0-.37-.15-.47-.32-.52-.47-.13-.94-.13-1.4.94-.07-.3-.15-.56-.2-.84-.12-.54-.38-.43-.61-.35s-.29.43-.33.78c-.26,1.92-.52,3.83-.83,6.06.23.54.51,1.23.79,1.92l-.75,1.2c-.34.51-.67.52-.84,0a4.35,4.35,0,0,1-.23-2.69,3.53,3.53,0,0,0,0-1,7.43,7.43,0,0,0-.5-1.47c-.08-.16-.3,0-.46,0a.54.54,0,0,0-.21.33c-.14.88-.26,1.72-.83,1.56-.12,0-.29.28-.44.44.11.19.19.5.32.55s.42.15.45.7c-.36.57-.73,1.11-1.08,1.73a2.61,2.61,0,0,0-.2.94c0,.55.08.93.38.85s.28.13.35.46.23.8.36,1.22c-.09.66-.18,1.35-.27,2,.12.41.21.83.34,1.2a3.93,3.93,0,0,1,.22,2.23,4.56,4.56,0,0,1,.09,2.79c-.09.59-.28.89-.57.79s-1.05.34-.81-1.44a3.78,3.78,0,0,0-.37-1.64c0-.1-.1-.23-.14-.2a1.07,1.07,0,0,0-.31.82,1.88,1.88,0,0,1-.48,1.23,1.31,1.31,0,0,0-.28.88c.19-.09.32,0,.35.42a2.4,2.4,0,0,1-.41,1.74.7.7,0,0,0-.2.72c.21.8.46,1.45.94,1.68.26.12,0,1,0,1.35a18.58,18.58,0,0,0,.56,2,2.27,2.27,0,0,1-.3,1.75,2.72,2.72,0,0,0-.44,1.27c0,.34-.09.69-.13,1a1.26,1.26,0,0,1-.33.79s-.09-.18-.13-.29c-.13-.33-.17-.8-.47-.84s-.45.41-.67.68a2.2,2.2,0,0,1-.2.23c-.08-.26-.16-.53-.23-.78s-.46-.42-.62-.26a1.44,1.44,0,0,0-.31.84c-.23,1.9-.45,3.8-.74,5.69a4.09,4.09,0,0,0,.18,2.25,3.58,3.58,0,0,0,.24,2.21,3.93,3.93,0,0,0-.78,2.08c-.19,1.9-.47,3.8-.62,5.72a.44.44,0,0,1,.23.33,1,1,0,0,1,0,.33c-.14.37-.24.39-.33.16a1.17,1.17,0,0,1,0-.83s.14,0,.09,0c-.26-.17-.43-.09-.55.29a9.34,9.34,0,0,1-.36,1.35,3.87,3.87,0,0,0-.6,1.71c-.1,1-.27,2.08-.38,3l.37,1.2,6.68-.64-.84-.84c0-.77.18-1.12-.15-1.93a6.26,6.26,0,0,0-1.35-2.35c.05-.67.1-1.34.14-2a2.7,2.7,0,0,0-.54-1.31c-.19-.21-.38-.39-.58-.58,0-.27,0-.53,0-.79,0-.85-.39-1.72-.85-1.75a1.11,1.11,0,0,1-.78-.34,4.28,4.28,0,0,1-1.24-1.87,4.09,4.09,0,0,1-1.17-1.84l-.41-1.16h-1.32c-1.73,0-3.47,0-5.07.06l-2.11,1h-1.34l.64.45-.92-2.51a.65.65,0,0,1,.24-.86l.68-.24c.28-.09.28-.1.48-1,.11-.5.3-.51.85,0,.1.08.2.22.29.28a.11.11,0,0,0,.16,0,.77.77,0,0,0,0-.4c-.16-.5-.33-1-.53-1.48-.34-.79,0-1.1-.13-1.72a2.32,2.32,0,0,0-.65-1.26,1.7,1.7,0,0,1-.52-.65c-.33-.8-.61-1.63-.9-2.46a2.24,2.24,0,0,1-.09-.88,2.14,2.14,0,0,0-.72-2,3.1,3.1,0,0,1-.66-1.23,3.49,3.49,0,0,0-1.22-2c-.45-1.28-.93-2.59-1.37-3.9a1,1,0,0,1,.08-.7c.09-.16.29-.12.44-.19.57-.27.57-.3.09-1.64l-.28-.79-4.24-11.77L149.82,61l-.91,2.15a4.78,4.78,0,0,1-.36,2.2,4.87,4.87,0,0,1-1.28,1.77l-2,4.81,0,1.33a2.79,2.79,0,0,0-.33,1.59l3.65-2.41c-.3.14-.56.31-.89.44a6.85,6.85,0,0,1-1.59,1.09c-1.58.62-1.58.39-1.58.15s.29-.47.79-.5c.67,0,1.35,0,2-.11.39,0,.49-.22.37-.4.3,0,.6,0,.9,0l-3,2,0-.14a1.23,1.23,0,0,1,.49-.76c.29-.15.6-.14.57.27-.09,1.11.41,1.13.85,1.26.12,0,.37-.18.54-.37s.39-.35.4-.08a1.6,1.6,0,0,1-.24.91v0l.39-.25a1.68,1.68,0,0,1-.44,0A6.08,6.08,0,0,0,146,75.4c-.59-.08-1-.4.1-1.48,1.18-.8.81-.84.7-1a1.71,1.71,0,0,1-.17-.69c-.07-.47-.27-.57-1.14-.56l-2.6,0a3.51,3.51,0,0,1-2.24.52,2.32,2.32,0,0,0-1.37.24,3.2,3.2,0,0,1-1.34.29c-.74.07-.8.16-.8.5v1.18c-.68.41-2.13.19-2.57.74-.59.16-1.64,0-1.64-.28,0-.56,0-1.13,0-1.68,0-.13-.29-.27-.51-.37s-.72-.3-1.08-.45l-.4.19a2.34,2.34,0,0,1-1.33.31,4,4,0,0,1-1.9-.19.85.85,0,0,0-.73-.15,4.11,4.11,0,0,1-2.29.44c-.87,0-1.76,0-2.63.07a1.74,1.74,0,0,0-.78.29,2.1,2.1,0,0,1-1.4.2,4.67,4.67,0,0,0-2.21-.41,4.43,4.43,0,0,0-2.73-.43c-.7,0-.86,0-.93-.39s-.2-.47-.74-.51a3.49,3.49,0,0,1-1.38-.21,2.5,2.5,0,0,0-.62-.21l-3.35-.52-1.55,4.67a1.21,1.21,0,0,0,0,.18c-.44,3-.88,5.91-1.27,8.87-.06.4.18.8.22,1.25a2.5,2.5,0,0,1-.26,1.4c-.14.24-.29.45-.45.69a4.24,4.24,0,0,1,.16,2.22,3.1,3.1,0,0,0,.07,1.82,2.16,2.16,0,0,1,0,1,4.48,4.48,0,0,0,0,2.36,2,2,0,0,1-.37,1.72c-.17.3-.33.57-.25.71a4.79,4.79,0,0,1,0,2.85,3.76,3.76,0,0,0,.16,2.29l-.63,1a3.39,3.39,0,0,1-.82,2.06l-.45.69a2.43,2.43,0,0,0-.14,1.79c0,.14.09.25.11.4a1.13,1.13,0,0,1-.06.36c-.39,1.14-.4,1.14-.2,1.92-.14,1-.26,2-.46,3a3.71,3.71,0,0,0,.16,2.24q-.36,2.37-.72,4.71c-.09.63-.29,1-.54,1l-.94-.15c-.45-.07-.61.16-.75,1s-.24,1.74-.44,2.56c-.09.4-.43.52-.54,1a.92.92,0,0,1,.12.34h9.28a12,12,0,0,1-.68-1.76,5,5,0,0,0-.69-1,.41.41,0,0,0-.47-.21c-.41,0-.75.18-.88,1a.33.33,0,0,1-.62.16c-.29-.42-.59-.86-.89-1.28a3.5,3.5,0,0,0,.17-1.84c-.22-1-.4-2.07-.55-3.11a4.12,4.12,0,0,0-.79-2.18.78.78,0,0,1,0-.34c.39-.77,0-1.85-.09-2.84a1.09,1.09,0,0,1,.19-.71c.26-.3.66.11.79.85s.27.91.54,1c.08,0,.16-.06.24,0,.46.2.7,1.07.53,1.9a2.32,2.32,0,0,0-.08,1.34c0,.16.06.34.1.52a4.16,4.16,0,0,1-.07,1.8,3.25,3.25,0,0,0,.21,1.41c.16.34.29.37.47.33a11.4,11.4,0,0,1,1.42-.25c.28-.05.42-.41.34-.89l-1.45-8.3a7.23,7.23,0,0,0-.26-.94,2.46,2.46,0,0,0-.22-.34,2.32,2.32,0,0,1-.3-2.15,2.35,2.35,0,0,0-.26-1.78c-.15-.23-.31-.43-.44-.62-.31-1.8-.6-3.53-.84-4.94L100.29,98a1.74,1.74,0,0,0-.1.94c.09,1.21.07,1.17-.33,1.29s-.78.1-1.18-.68c-.13-.26-.31-.43-.45-.69s-.32-.45-.39-.2a1,1,0,0,0,0,.42c.47,2.76.94,5.52,1.39,8.2-.05.21-.09.34-.12.48a1,1,0,0,0,.14,1.1,2.3,2.3,0,0,1,.35,2.15c-.1.52,0,.91.26,1s.46-.09.7.4a3.55,3.55,0,0,0-.24,1.18,3.53,3.53,0,0,1-.06,1.83,1.77,1.77,0,0,0,0,.94c.22,1.19.43,2.39.63,3.51.43.64.82,1.21,1.21,1.77-.18,1.37-.19,1.35-.84,2-.19.21-.13.49.09.74a1.69,1.69,0,0,1,.45.68c.16,1.06.39,1.56.92,1.44.25-.05.37.41.28.93l0,.15h-.68a2.73,2.73,0,0,0,.3-.62c.12-.5.12-1.1.27-1.55a16.5,16.5,0,0,0,.68-1.59,7.71,7.71,0,0,1,.7-1.63,16.32,16.32,0,0,0,.38-2,1.55,1.55,0,0,1,.18-.39,2,2,0,0,1,.22-.34,1.67,1.67,0,0,0,.33-.84,2.34,2.34,0,0,0-.14-1.33,2.42,2.42,0,0,1,.3-1.78l.36-.68c-.15-.54-.29-1.08-.46-1.59,0-.09-.15,0-.23,0C105.15,113.58,105.05,113.92,104.87,114Zm72.85-24.87a2.3,2.3,0,0,1,0-1.31,1.88,1.88,0,0,1,.15-.38.77.77,0,0,1,.2-.29c.24-.15.29,0,.16.51a3.61,3.61,0,0,0-.07.49c.55-1.88.65-1.58.63-1.54a1.64,1.64,0,0,1-.29.58c-.23.18-.3,0-.14-.47a.93.93,0,0,1,.33-.43C178,88.77,177.85,89.24,177.72,89.15ZM117,74.29a1.27,1.27,0,0,1-.48.3c-.44.1-.66,0-.44-.2a1.69,1.69,0,0,1,.61-.23c-1.29.46-1,.39-.64.45.06,0,0,.14,0,.22v.22c0,.39-.33.52-1.15.54a1.17,1.17,0,0,1-.81-.16s0-.12.07-.16l1-.5a8.06,8.06,0,0,1,1.47-.48C116.92,74.25,117,74.28,117,74.29Zm44.76,3.48a.77.77,0,0,1,0,.4.09.09,0,0,1-.15,0l-1.13-1.15c-.51-.51-.75-.43-.84.52,0,.48-.26.5-.48.57-.06,0-.18-.12-.27-.23a.89.89,0,0,1-.14-.32c0-.57,0-1.12,0-1.54l2.11-.75c0,.15-.08,0-.16-.46a.67.67,0,0,1,0-.38,1.41,1.41,0,0,1,.31-.33c.13-.1.33,0,.48.3a.94.94,0,0,1,0,.62c-.09.15-.27.13-.41.18A10.75,10.75,0,0,0,161.74,77.77ZM151,66.88c.19,0,.3.14.22.52a1.05,1.05,0,0,1-.46.61.78.78,0,0,0-.29.28,4.42,4.42,0,0,1-1.31,1.81c-.45.37-.45.42-.47-.21,0-.27,0-.54,0-.82a2.35,2.35,0,0,1,.76-1.62l.9-.84A2.42,2.42,0,0,0,151,66.88Zm-41.21,14c.4,0,.54.35.43,1.15-.09.6-.27,1-.51,1-.4,0-.55-.36-.43-1.16C109.34,81.2,109.52,80.86,109.77,80.84ZM176,101.78c-.49.07-.68-.72-.4-1.64.12-.36.41-.56.66-.45s.31.48.23,1.08S176.24,101.74,176,101.78ZM108.1,77a.65.65,0,0,1,.26-.64c.52-.18.72.37.51,1.37a4.31,4.31,0,0,1-.38.85C108.36,78,108.21,77.52,108.1,77Zm-2.59,28.81a.69.69,0,0,1,.07.71c-.06.13-.16.3-.22.3a2,2,0,0,1-.91-.17c-.17-.09-.17-.47-.07-.69s.15-.3.21-.31a1.76,1.76,0,0,1,.46.06C105.21,105.72,105.39,105.66,105.51,105.79ZM162,84.24a.88.88,0,0,1,.12.32c0,.15,0,.37,0,.38-.21.06-.37.38-.7-.08a2.44,2.44,0,0,1-.45-1.84ZM107.65,97.41a1.1,1.1,0,0,1,0-.89c0-.15,0-.36.08-.49.13-.36.27-.49.36-.34a.9.9,0,0,1,.11.38,5,5,0,0,1-.07.5C108,97.21,107.78,97.61,107.65,97.41Zm70.66-1.85a1.09,1.09,0,0,1-.05-.89c0-.15,0-.36.07-.49.13-.37.27-.49.36-.35a1,1,0,0,1,.11.38,3.09,3.09,0,0,1-.06.5C178.65,95.36,178.45,95.76,178.31,95.56Zm5.25-30.76a4.71,4.71,0,0,1-.33.76,3.87,3.87,0,0,1-.12-.83,3.68,3.68,0,0,1,.19-.92c0-.14.14-.32.2-.32s.08.23.12.36A7.23,7.23,0,0,1,183.56,64.8Zm-69.81,8.73a.84.84,0,0,1-.34.16c-.36-.08-.49-.19-.35-.3a3.58,3.58,0,0,1,.34-.17C113.76,73.32,113.89,73.43,113.75,73.53Zm-11.62,46.61a.76.76,0,0,1-.28-.64c0-.14.07-.37.1-.36a.81.81,0,0,1,.28.65C102.19,119.91,102.15,120.16,102.13,120.14Zm55.16-57a.74.74,0,0,1-.38-.59c0-.14,0-.38,0-.36a.76.76,0,0,1,.38.58A2,2,0,0,1,157.29,63.15ZM180.08,88c-.14.36-.27.46-.35.31a1.09,1.09,0,0,1-.11-.36c.14-.35.27-.44.36-.31S180.1,88,180.08,88Zm4.7-23.24a.77.77,0,0,1,.07.7.91.91,0,0,1-.19.31.82.82,0,0,1-.08-.71C184.65,65,184.77,64.72,184.78,64.75Z"/><path class="cls-1" d="M189.55,46.43c-.18.2-.44.22-.56.51-.22.52.1,1.28.19,1.93a1.81,1.81,0,0,1,0,.91,2.09,2.09,0,0,0-.08,1.33c.11.49.18,1,.25,1.42l1.2,1.76a2.44,2.44,0,0,1,.22,1.39,4.13,4.13,0,0,0-.1,1.8,4,4,0,0,1-.22,1.27l.63,1-.21.78a1,1,0,0,0,0,.37c.13.33.29.4.45.42s.38-.36.48-.74.28-.37.48.27c.42,1.28.42,1.28.94,1.2l.24,0-.09-.52a3.17,3.17,0,0,0-.64-1.71,2.7,2.7,0,0,1-.34-1.39c0-.37.13-.51.29-.53a3.72,3.72,0,0,0,.94-.18c.27-.1.49.19.7.57s.32.45.47.32.32-.06.47.26a1.09,1.09,0,0,1,0,.77c-.16.5-.29,1.05-.43,1.61.11.65.23,1.34.4,2.31-.23.75-.5,1.62-.76,2.5-.63,0-.69.76-.5,1.91a3.72,3.72,0,0,0-.05,2.29,2.73,2.73,0,0,1,.08,1c-.1.57-.26,1.07-.4,1.6a6.57,6.57,0,0,1-.32,1.17c-.26.5.25,1.38,0,1.86a3.24,3.24,0,0,0,0,1.84,3.3,3.3,0,0,0,.68,1.69c.16.19.31.44.48.69a2.72,2.72,0,0,0,.68-.13c.18-.08.33,0,.47.28a.86.86,0,0,1,0,.76,1.65,1.65,0,0,0-.08.88c0,.49.33,1.17.51,1.15s.47-.09.71-.11.31-.17.3-.54a2.49,2.49,0,0,0-.35-1.38c-.16-.21-.31-.45-.46-.67l-.63-3.64c-.16.15-.32.06-.46-.3a2.42,2.42,0,0,1-.21-1.4,3.67,3.67,0,0,0,.08-1.81c-.09-.53.14-.66.42-.22s.32.45.4.29a1.53,1.53,0,0,0,0-.93c-.11-.74,0-.94.22-1.06s.58.17.66.57c.2,1,.23,2.13.86,2.71a14,14,0,0,1,.62,3.48c-.4.74-.09,1.81.08,2.82.14.86.27,1.74.45,2.59a3.23,3.23,0,0,1-.15,1.76l.39.69c.07.12.15.22.23.34-.09.2-.15.5-.27.57-.34.22-.54,0-.77-1-.18-.72-.31-.94-.57-.9s-.83,0-1.17.25-.3,1.34-.82,1.2c-.06,0-.15.49-.12.77.08.69.22,1.38.35,2.07.2,1.15.3,1.28.94,1.2s.71,0,.94,1.25c.18,1,.36,2.07.54,3.13a11.1,11.1,0,0,1-.46,2c-.21.81-.41,1.59-.62,2.38a.69.69,0,0,0,.24.72.84.84,0,0,1,.22.34c.28.93.49,2.09,1.12,1.63.31.45.62.9.94,1.38.35,2,.71,4.11,1.09,6.29-.29,1.09-.59,2.26-.86,3.27.28,1.61.52,3,.71,4.08.38.65.67,1.13,1,1.61.06-.21.09-.35.13-.48.27-.93.39-1,.93-.29.35.48.63.33,1,.56a3.71,3.71,0,0,1,.39,1.37c-.14.54-.27,1.06-.43,1.67-.59.11-1.23.18-1.84.35-.1,0-.19.48-.15.74a9,9,0,0,0,.41,2,4.82,4.82,0,0,0,.91,1.36c.43.51.37,1.71.87,2.08a1.45,1.45,0,0,1,.2.29l8.23,12.8-3.73-12.93v0c.13-.24.25-.48.38-.71a2.39,2.39,0,0,0,.18-1.79,2.71,2.71,0,0,1-.16-1.34,25,25,0,0,0,.24-2.58c0-.4-.28-.6-.23-1.15.54-.47.51-1.86,1-2.46a.88.88,0,0,0,.2-.35c.17-1.48.68-3.07.08-4.33-.06-.13.13-.79.07-1-.23-.73-.31-1.88-.92-1.76l-.43-1-.39.57c-.32.47-.78.43-.81-.11a2.55,2.55,0,0,1,.19-1.41c.34-.61.7-1.18,1.06-1.78,0-.15,0-.32.06-.5.09-.87.27-1.78.27-2.61,0-1.27.73-1.57.8-2.66a1.56,1.56,0,0,1,.08-.49c.41-.72.83-1.43,1.26-2.12s.77-1.59,1.31-1.35c.29-.47.57-.94.85-1.41-.28-1-.79-.6-1.25-.47-.34.82-.74.89-1.13.72s-.46.23-.67.58l-.2.35a3.42,3.42,0,0,1-.17-.77c0-.82.19-1.14.63-1.26.08,0,.17.06.24,0,.93-.9.93-.91,1.35-.87l.48,0c.3,0,.45-.24.53-.91.14-1.22.29-2.45.39-3.67a.82.82,0,0,0-.26-.62c-.28-.17-.61-.14-.89-.31s-.18-.49-.25-1.23c-.19-.38,0-.65,0-.62a1.16,1.16,0,0,1,.23.5c0,.45-.08.66-.25.42s-.12-.4,0-.3a1.34,1.34,0,0,0,.64.41c.18.09.33,0,.45-.33a1.15,1.15,0,0,0-.1-.77c-.18-.48-.34-1-.52-1.59l1.64-2.75c0-.08.06-.24.1-.36-.31-1-.31-1,0-1.49l.88-1.47.16-1.46a2,2,0,0,0,0-.51h0L211.75,80c.24-.08.57-.19.61-.31s0-.56.53-.6c.92-.06,1.7-.06,1.63-.63,0-.11.34-.24.52-.36a2.63,2.63,0,0,1,.5.39c.36.54.34.55,1.68.57a2.79,2.79,0,0,1,1.41.19,1.64,1.64,0,0,0,.72.22c.38,0,.42-.21.43-.39,0-.94.05-.93,1.8-1a7.5,7.5,0,0,0,1-.07c.39-.07.5-.22.38-.4-.4.05-.84,0-.87-.17-.09-.51-.73-.85-1.52-1.15a.92.92,0,0,0-.36-.07c-.37.08-.4.23-.43.4-.09.49-.29.52-1.05.26-.14-.05-.25-.16-.38-.16-1.38,0-2.76-.07-4.14-.06a1.72,1.72,0,0,0-.79.26,4.12,4.12,0,0,1-1.38.22l-.26.07.87-.78a8.78,8.78,0,0,1,.26,1,2.36,2.36,0,0,1-.09,1c-.39.67-.71,1.75-1.28,1.53a5.83,5.83,0,0,1-.64.89c-.14.13-.39.19-.45,0a4,4,0,0,1-.53-2.42c.06-.67-.07-.8-.4-.84a2.78,2.78,0,0,1-.7-.12c-.06,0-.11-.23-.12-.38a.79.79,0,0,1,.09-.35c.26-.53.6,0,.88-.61l1.15-2.56,1,.68h0c.43.13.7.44,1.14.48.83.08,1.73,0,2.6,0s.86,0,1.08.36c.41.61.41.61,1.63.6h2.06c.53-.24,1-.46,1.51-.7a5.54,5.54,0,0,1,2.85-.2,5.13,5.13,0,0,0,2.16.51c.27,0,.52.55.28.64-.69.26-1.12.57-1.1,1-.49.23-1,.46-1.5.67a2,2,0,0,1-.51,0c0,.38-.2.79.73,1.05.33.09.32.24.35.41.06.35.3.46.85.45a5.42,5.42,0,0,0,2.39-.26,2.19,2.19,0,0,1,2.13.08,2.36,2.36,0,0,0,1.79,0l.37-.16a2.41,2.41,0,0,1,1.79,0l.73.28c.13-.06.24-.12.38-.17a5,5,0,0,1,.74-.22,1.08,1.08,0,0,1,.36.16,4.76,4.76,0,0,0,2.38.24,2.28,2.28,0,0,0,.81-.23c.08,0,0-.15,0-.23h-.52c-.49,0-1.05.1-1.43-.16s-1.11-.37-1.22-.73.29-.54.69-.54h2.63a1.18,1.18,0,0,1,.83.23s-.13.12-.25.16c-.63.2-.86.47-.73.82a.65.65,0,0,1,0,.24,2.15,2.15,0,0,0,.52,0c.52-.21,1-.45,1.59-.72a9.07,9.07,0,0,1,0-1.37c0-.11.43-.29.67-.29,1,0,2.07,0,3.11,0,.13,0,.25.1.44.19-.75.23-1.17.52-1.17,1,0,.17-.57.34-.88.51.34.25,1,.1,1.37.21a23.38,23.38,0,0,1,2.27.93l1.14-.41a5.16,5.16,0,0,0,.75.34,2.5,2.5,0,0,0,1.41,0c.32-.13.62-.27.92-.41l2.59-1.26-.05-.54a1.8,1.8,0,0,1,0-.22c-.06-.52-.3-.54-.84-.1h0l-1.43,1.32-.24-.14c-.2-.11-.54-.23-.55-.36a4.47,4.47,0,0,1,.16-1.4c0-.11.18-.17.39-.19l-.17.12a1.84,1.84,0,0,1,.18-.45c-.14-.17-.3-.11-.51.21l-.06.1.56-.39a1.33,1.33,0,0,0-.34-.05h-2.08c-1.16,0-1.32-.1-1.32-.73s.24-.71.84-.71,1.39,0,2.08,0a3.43,3.43,0,0,0,.82-.07l-2,1.43a2.53,2.53,0,0,0,0-.55c-.06-.52-.1-1.07-.15-1.69.2-.58.43-1.22.66-1.87.12-.37-.07-.86-.3-.8a3.52,3.52,0,0,0-1.54,1.69.53.53,0,0,1,.14.8c-.2.31-.37.36-.49.19l-.52,1.45,4.23-3h-1.18a3.08,3.08,0,0,1-2.11.48c-.68,0-1.39,0-2,0-1.12.48-1.12.48-1.75.48h-2.47l-2,.9-.72-.22a2.36,2.36,0,0,0-1.8-.07l-.74.34a4.63,4.63,0,0,0-2.71-.47H234c-.61.36-1.76.56-1.56,1.15,0,0-.17.15-.31.17a6.24,6.24,0,0,0-2.19.51,2.3,2.3,0,0,1-1,.06c-.28,0-.66-.15-.72-.27s0-.47,0-.71-.06-.4-.91-.43c-.58,0-1-.09-1.17-.33s0-.45.46-.63,1-.45,1.49-.67c0-.06,0-.13-.11-.17a5,5,0,0,0-2.59-.63c-3.84,0-7.68,0-11.39,0l-2.22,1-4.42,2,.49,1.5.31,1c-.4.7-.79,1.4-1.19,2.08-.06.55-.11,1.07-.17,1.59-.08.72-.07.89.3,1s.47.46.42,1.29c-.06,1,0,1.08.31.61l.42-.66c.17.51.34,1,.53,1.63-.05.43-.11,1-.16,1.46a2.67,2.67,0,0,0-.06.51,10.86,10.86,0,0,1,.33,1.22c0,.43-.19,1,0,1.43a3.2,3.2,0,0,1,.24.79,2.84,2.84,0,0,1-.34,1.35c-.42,0-.76.39-1.12,1-.26.43-.7-.15-.65-.75a24.8,24.8,0,0,0,.27-3.08c0-.4-.17-.52-.36-.42,0,.67-.24.88-.5,1-.61.3-.61.31-.7,1.07-.14,1.21-.27,2.42-.4,3.57.35,1.18.35,1.18.28,1.8l-.47,4.19a4.05,4.05,0,0,0,.13,2.31.79.79,0,0,1,0,.35c-.64.49-.5,2.37-1.18,2.83.11.39.22.78.33,1.15-.19.33-.38.68-.58,1a3.49,3.49,0,0,1,.22,2.27,2.86,2.86,0,0,0,.06,1.4c.18.6.15.65-.11,1.1l-.88,1.46c-.13,1.15-.27,2.36-.41,3.57a2.66,2.66,0,0,0,0,1c.23,1.26.25,1.29.14,1.81a3.85,3.85,0,0,0,.22,2.17c-.19.37-.37.71-.55,1,.23.72.45,1.36.68,2.08a6.86,6.86,0,0,0-.53,1c-.13.34-.11.78-.23,1.17l7.1-.21a1,1,0,0,1,0-.25,3.23,3.23,0,0,0,0-1.82l-.18-1-.94-1.39c-.11.34-.22.69-.37,1.14-.43-.68-.88-1.37-1.32-2.07a1.69,1.69,0,0,1-.23-.34,1.85,1.85,0,0,1-.11-.49c-.13-.93-.41-1-.77-1s-.71-1-.54-1.86l.15-.78c-.38-.56-.78-1.1-1.15-1.71a2.45,2.45,0,0,1-.24-.92,3.09,3.09,0,0,1,.47-1.9c.22-.28.61-.12.93-.1.06,0,.19.19.22.32.2,1,.34,2.07.57,3.08a3.69,3.69,0,0,1-.11,2.24l1,1.44a8.77,8.77,0,0,0,1.36-.26c.1,0,.2-.48.16-.72l-1-5.71a1.52,1.52,0,0,0-.36-.8.85.85,0,0,1-.29-.7c0-.15.07-.25.09-.4a5.84,5.84,0,0,0-.37-2.82c-.13-.27-.4-.44-.44-.68a4.32,4.32,0,0,0-.89-2.07c-.05-.07-.06-.33-.19-.49a.4.4,0,0,1-.31-.24.86.86,0,0,1-.12-.31c0-.4.11-.45.26-.25a1.13,1.13,0,0,1,.26.78c0,.06-.13.07-.09,0,.3.08.46,0,.43-.45a15.42,15.42,0,0,0-.28-2,2.79,2.79,0,0,0-.38-.75c-.24-.42-.28-.47-.11-1.1a3,3,0,0,0-.06-1.43,2.87,2.87,0,0,0-.39-1.39,2.94,2.94,0,0,1-.64-1.72c0-.1-.16-.32-.22-.32-.51.06-1-.56-1.39-1.28a2.93,2.93,0,0,1-.3-1.38c.13-.54.27-1,.42-1.56.05-.19.63,0,.69.27s.14.68.24,1,.31.61.37.56.16-.49.06-.84a2.41,2.41,0,0,1,.08-1.34,2.42,2.42,0,0,0-.28-1.77c-.15-.22-.29-.45-.42-.66l.24-1.15-.25-.37c-.38-.56-.72-1.23-1.17-1-.15.08-.42-.66-.45-1.25a3.09,3.09,0,0,1,.12-.75c.08.11.15.23.23.33a3.82,3.82,0,0,0,.46.56c.19.17.56-.22.53-.57a3.62,3.62,0,0,0-.15-1,9,9,0,0,0-.66-1.09c-.18-1-.36-2-.53-3.07-.3-1.73-.56-3.47-.91-5.17a4.22,4.22,0,0,1,.11-2.21,3.57,3.57,0,0,1-.76-1.59l-.78-4.66a4.1,4.1,0,0,0-.67-1.69c-.19-.32-.24-1-.43-1.33a11.63,11.63,0,0,0-.91-1.37l-1-1.4c-.23-1.31-.48-2.68-.69-4.06,0-.21.1-.61.21-.64.45-.13.9-.43,1.41.6a.32.32,0,0,0,.45.09c.11-.08.16-.38.24-.59l-.23-.33a2.81,2.81,0,0,1-.52-1.24c-.25-1.54-.54-3.08-.83-4.62a.62.62,0,0,0-.22-.32c-.08-.07-.16,0-.24,0-.44-.11-.58-.24-.57-.57s.14-.54.33-.46.32,0,.35-.41a1.14,1.14,0,0,0-.3-.72c-.28-.4-.28-.43-.13-1.09,0-.14.07-.27.1-.4-.13-.17-.29-.5-.4-.49-.47,0-1-.09-1.11,1.06,0,0-.14,0-.16,0-.42-1-1-.37-1.39-1.26-.16-.33-.3-.36-.47-.36-.5,0-.91.24-1,1.27l-1.18.2A1,1,0,0,1,189.55,46.43ZM203,109c-.06-.34-.1-.69-.18-1a.69.69,0,0,0-.22-.34c-.51-.27-.94.07-1.41.07-.21,0-.42-.43-.54-1a1.18,1.18,0,0,1,0-.89s.12,0,.18.08c.23.26.42.78.69.7s.47-.07.71-.13c.56-.12.56-.1,1.11,1.54a.58.58,0,0,0,.22.32s.1-.18.11-.31a12.15,12.15,0,0,0-.24-2,3.7,3.7,0,0,1,.09-.83,1.23,1.23,0,0,1,.23.33,5.17,5.17,0,0,0,.86,2.07,2,2,0,0,1,.2.94,6.2,6.2,0,0,1-.36,1.6c-.12.28-.39.28-.46.32C203.28,110.53,203.19,110.37,203,109Zm5.39-10.32c-.14.25-.28.49-.42.71-.29.43-.6.33-.78-.24-.13-.39-.25-.77-.39-1.2.26-.44.52-.94.8-1.32a3.61,3.61,0,0,0,.53-1.73c0-.33.54-.65.65-.43a3.5,3.5,0,0,1,.56,2.29,2.08,2.08,0,0,0,.1.88c.19.69.17.71,0,1.09l-.62,1Zm-3.83,18.64c-.16,0-.28-.16-.32-.52a1.07,1.07,0,0,1,.15-.35,2.86,2.86,0,0,0,.49-1.22,2.33,2.33,0,0,0-.22-1.28,2.67,2.67,0,0,1,.06-1.43c.08-.36.27-.47.43-.44l.23,0,.24,0c.3,0,.5.3.47.73a2.9,2.9,0,0,1-.36,1.36c-.33.55-.31.61-.15,1.08s.23.82.38,1.15.17.54,0,.76-.15.22-.21.22a4.39,4.39,0,0,1-.72-.07Zm-4.76-27.59c.17-.15.24-.63.37-.92s.27,0,.36.33a2.32,2.32,0,0,1,.1,1.37,5.11,5.11,0,0,0-.2.75c-.15.56-.15.55-.48.08-.22-.31-.45-.58-.66-.84C199.33,89.88,199.56,89.89,199.75,89.73Zm9.72,25a.89.89,0,0,1,.06.74c-.13.3-.27.37-.44.28a.77.77,0,0,0-.45,0c-.18,0-.3,0-.36-.37a.85.85,0,0,1,.22-.71c.21-.3.4-.66.6-1C209.22,114,209.33,114.36,209.47,114.7ZM199.19,76.83a.09.09,0,0,1-.15,0,.68.68,0,0,1-.22-.31c-.07-.47-.28-1-.09-1.38s.5-.4.92.29Zm6.19,26.82a.78.78,0,0,1,.09.69,1.25,1.25,0,0,1-.19.32.77.77,0,0,1-.09-.7C205.25,103.85,205.36,103.62,205.38,103.65ZM192.3,51.5s.15.17.21.3a.76.76,0,0,1,0,.7s-.14-.2-.21-.3A.79.79,0,0,1,192.3,51.5Zm6,40.67a.73.73,0,0,1,.27.64c0,.14-.07.38-.09.36a.8.8,0,0,1-.28-.65C198.27,92.4,198.32,92.15,198.34,92.17ZM197,88.63a1,1,0,0,1,.09-.36c.08-.15.22,0,.37.3a1.66,1.66,0,0,1-.09.36C197.29,89.06,197.16,89,197,88.63Z"/><path class="cls-1" d="M289.86,52.27l-1,1.35a1.07,1.07,0,0,1-.09-.35,13.61,13.61,0,0,1,.38-2.51c.21-1.23.28-1.28.94-1.17.08,0,.23,0,.23,0a1.17,1.17,0,0,1-.31.85c-.15.17-.29.44-.05-.11a13,13,0,0,0,.71-2.6L292,46.31c.28-1.51.5-2.71.72-3.92.11-.55.26-.75.61-.8s.82-.81.73-1.64c0-.15-.07-.25-.09-.4a2.25,2.25,0,0,1,.43-2.12l.23-.34a3.37,3.37,0,0,0,.9-2l.66-1c-.14-.63-.39-.79-.76-.38-.17.18-.31.53-.47.64a.39.39,0,0,1-.47,0,.65.65,0,0,1-.08-.69c.14-.26.38-.41.45-.69a1.79,1.79,0,0,0-.15-1.14c-.05-.23-.14-.54-.24-.52s-.3.41-.34.8c-.09.87-.51,1.07-.79,1.53s-.32.47-.45-.22-.6-.21-.69-.86.18-1.27,0-1.85-.12-.71.44-1c.08,0,.17,0,.23,0l.94-1.32c.15-.2.34-.5.46-.47.61.16,1.29,0,1.83.48a.67.67,0,0,1,.08.38,1.13,1.13,0,0,1-.23.34c-.5.77-.54.91-.3,1.08s.41.32.68-.08.48-.63.69-1,.27-1.35.66-1.7a1.08,1.08,0,0,0,.23-.32,2.8,2.8,0,0,0-.09-.77,1.44,1.44,0,0,1-.06-.72l-5.37-.12c0,.23.07.48.09.72a3.28,3.28,0,0,1,.07,1.45,3.49,3.49,0,0,0-.23.79c-.1.62.26,1.51.58,1.5a1.44,1.44,0,0,0,.71-.12,1.05,1.05,0,0,0,.28-.61c.08-.4.16-.5.32-.23a2.1,2.1,0,0,1,.24.92,3.3,3.3,0,0,1-.35,1.64A4.35,4.35,0,0,0,294,33.8c.16.94.17,1,.7,1.14.17,0,.41.08.44.41.14,1.39.54,1.62,1.07,1.69.18,0,.25.45.3.83s.1.74-.05.91-.29.12-.41.26a1.13,1.13,0,0,0-.24.58c.09.36.27.46.43.45.52,0,.88.71,1.18,1.6,0,.06-.05.35-.11.36a11.77,11.77,0,0,1-1.19.18,2.11,2.11,0,0,1,.07.5c-.22.76-.44,1.5-.65,2.26.42.78.77.29,1.15.35.21,0,.4.43.48,1a3.83,3.83,0,0,0,.4,1.3c.27.33.18.63.16.61a1.14,1.14,0,0,1-.35-.44c-.15-.42-.09-.65.14-.46s.21.36.05.29a2.66,2.66,0,0,0-1.46-.12c-.13-.21-.28-.43-.42-.69-.25-.46-.47-.29-.67-.15s-.16.49-.11.85l.15,1c.12.92.12.93.7,1.13a.55.55,0,0,1,.23.07,1.36,1.36,0,0,1,.32.83c.06.39.11.75,0,.91a4.34,4.34,0,0,1-.58.48.5.5,0,0,0,.09.72c.23.12.48.07.68.31.38.44.29,1.26.42,1.9s.14,1,.21,1.51l-.6,2a.89.89,0,0,0,0,.36c.13.36.29.46.45.31s.33,0,.46.32a1,1,0,0,1-.09.75,1.46,1.46,0,0,0-.1.88c.12.86.22,1.74.37,2.59a1.37,1.37,0,0,0,.39.63c.06.08.15,0,.23,0l1.18-.06c.35,1.18.95.45,1.34,1.31.15,1,.29,2.07.44,3.22-.1.32-.21.72-.35,1.06a4.2,4.2,0,0,0-.22,2.22c0,.13,0,.36-.11.37a7.65,7.65,0,0,1-.92.15l-.38,1.16c-.15.47-.16.5.18,1.09a2.18,2.18,0,0,1,.32.83,5,5,0,0,1-.07,2.8,1.91,1.91,0,0,0,.52,1.54c.08,0,.16,0,.24,0,.46.17.68,1.09.48,1.9-.07.25-.13.51-.19.75l.57,1c-.22.71-.41,1.36-.61,2a11.26,11.26,0,0,0,1.19,2.08l-.31,1.18a2.82,2.82,0,0,1-.1,1.81,1.78,1.78,0,0,0,0,1l.45,3.11a2.15,2.15,0,0,1-.08.89,2.1,2.1,0,0,0,.27,2.12c.41.73.48,2,1,2.47a.72.72,0,0,1-.14.63c-.14.11-.31.08-.44.18a.59.59,0,0,0-.11.38.85.85,0,0,0,.15.34c.3.39.68-.11.9.64a16.87,16.87,0,0,1,.34,2.14c-.17.59-.36,1.23-.56,1.87a.79.79,0,0,0,0,.37c.13.35.29.47.45.38s.51.14.61.67.17,1.34.25,2c-.47.63.08,2.32-.38,3a3.08,3.08,0,0,0-.33,1.16,3.72,3.72,0,0,0,.12,1,.93.93,0,0,0,.2.37,4,4,0,0,1,.68,2.25.53.53,0,0,1,.5.64c0,.36-.14.49-.34.4l.17,1c.35.07.69.69.68,1.28,0,.77-.42,1.22-.14,2.24a1.33,1.33,0,0,1-.06.42c-.18.65-.38,1.27-.52,2a2.25,2.25,0,0,0,.16,1,5,5,0,0,1,.85,2.1.42.42,0,0,0,.45.4c.31,0,.6-.42.93.17s.61.8.94.64c0,0,.16.18.22.32l.08.21,1.5,4-.09-4c0-.84.27-1.49.69-1.41s.77.21,1.15-.62c.13-.27.29-.17.46-.22.42-.1.45-.2.55-.88l.76-5.21c.14-.94-.09-1.06-.41-1.24s-.43-.46-.08-.87c.51-.59.47-2,1-2.45a.74.74,0,0,0,.16-.39l.54-4.12c0-.13,0-.37-.11-.38a7.47,7.47,0,0,0-.92-.18l-.37-1.13c-.38.73-1,1.08-1.06,2.37a.65.65,0,0,1-.19.36c-.49.24-1,.4-1.24-.49-.08-.24-.17-.52-.3-.57a2,2,0,0,0-.94-.17c-.39,0-.47-.59-.65-1.2l-1.43,2.3a3.45,3.45,0,0,0-.12.46l-1.08,7.28a3.71,3.71,0,0,0,.18,1.8l-.59,1c-.18,1.15-.36,2.37-.54,3.58a1.55,1.55,0,0,0,0,.92,1.84,1.84,0,0,1,.16.69l7.27.11a4.5,4.5,0,0,1-.25-1.12c-.37-.58-.75-1.13-1.11-1.74a2.59,2.59,0,0,1-.25-1.39c0-.39.15-.48.34-.44a1.26,1.26,0,0,0,.47,0,11.4,11.4,0,0,1-.23-1.55,4.71,4.71,0,0,1,.27-1.15c-.24-.37-.47-.68-.68-1.07s-.28-.33-.46-.36c-.45-.06-.63-.39-.68-1.2a3.6,3.6,0,0,1,.12-.8l.22.34a4.42,4.42,0,0,0,.42.5s.08-.23.11-.37a.89.89,0,0,1,.49-.7c.39-.21.33-1.21-.08-1.92l-.39-.69c.16-.58.15-.58-.22-1.85a1.74,1.74,0,0,1-.06-.36c.45-.66-.09-2.36.38-3a3.11,3.11,0,0,0-.31-1.38,2.2,2.2,0,0,1-.52-1.2c-.05-.87-.53-1-.7-1.6a2.27,2.27,0,0,1,0-1.41,1.66,1.66,0,0,0,.16-.81c-.13-1-.32-2.05-.49-3.07a.75.75,0,0,0-.22-.34c-.07-.06-.15,0-.23,0-.46-.09-.63-.38-.68-1.2a4,4,0,0,1,.11-.84c.07.12.15.24.22.34s.36.59.41.52c.22-.28.12-.87,0-1.36a3.47,3.47,0,0,1,.16-2.25,4.16,4.16,0,0,1-.8-2.1c-.14-1.38-.42-2.77-.55-4.12a4,4,0,0,1,.25-1.2,4,4,0,0,1-.43-.7,7.09,7.09,0,0,1-.38-2.44c.41-.72.17-1.79,0-2.81a1.27,1.27,0,0,1,0-.44c0-.15.08-.26.11-.4a2.41,2.41,0,0,0-.36-2.15c-.56-.84-.55-.88-.85.11-.12.39-.23.78-.37,1.25l-.67.09c-.32.06-.49-.08-.61-.66a4.93,4.93,0,0,0-.42-1.33,2.08,2.08,0,0,1-.27-2.12,4.72,4.72,0,0,0,0-1.41,1.76,1.76,0,0,1,.18-.62l1.19,1.87,1.33-.18c.26,0,.31-1.14.07-1.67a8.18,8.18,0,0,0-.43-.7,2.28,2.28,0,0,1-.23-1.39,4,4,0,0,0,.18-1.78c-.15-.86-.24-1.73-.37-2.6-.05-.32-.14-.64-.21-1-.33-1.4-.34-1.41-.19-1.85-.35-.58-.7-1.14-1-1.74s-.31-1.66-.79-2.1a2.43,2.43,0,0,1-.26-1.38c.32-1,.63-2.08,1-3.16l-1.27-2.11c-.09-.65-.19-1.34-.28-2a4.28,4.28,0,0,1-.8-2.07c0-.13-.16-.35-.21-.33-.43.2-.78-.36-1.12-1-.12.4-.22.84-.36,1.18a3.22,3.22,0,0,0,0,1.42c0,.54-.17.6-.45.18s-.45-.61-.59-.8c-.21-1.49-.37-2.7-.54-3.92a1.38,1.38,0,0,1,.07-.9.4.4,0,0,1,.67.07l.46.73,1.16-.15c.32,0,.43-.18.39-.83a3,3,0,0,1,.07-1.37,4,4,0,0,0,0-1.91,3.18,3.18,0,0,0-.69-1.66c.1-.38.19-.76.29-1.14a9,9,0,0,0-.85-1.35c-.46-.47-.37-1.64-.79-2.11a1,1,0,0,1-.29-.7c0-.39.16-.45.35-.44a1.2,1.2,0,0,0,.93-.35,1.16,1.16,0,0,1,.05-.59c0-.08.09-.18.13-.15a.59.59,0,0,1,.18.64c-.07.28-.16.43-.34.32,0,0-.06-.31,0-.22.12.93.24,1.63.3,2.32s.44,1.16.76.94a.83.83,0,0,0,.24-.63c-.15-1.38-.36-2.77-.54-4.09l.14-.46c.16-.63.16-.63-.1-1.11a2.29,2.29,0,0,1-.29-2.15,2.39,2.39,0,0,0-.13-1.8c-.29-.46-.6-.88-.87-1.39-.37-.72-.73-.85-1.15-.76s-.61-.16-.72-1l-.17-1.23L295.49,5.77,292.05,24.5l-.06.34a3.64,3.64,0,0,0,0,1.8,2.72,2.72,0,0,1-.21,1.41c-.13.37-.3.44-.46.34a.34.34,0,0,0-.24-.05c-.35.05-.6-.18-.68-.85s-.36-.45-.59-.4-.3.42-.37.77l-1.42,7.77a1.51,1.51,0,0,0,0,.43c0,.13.07.31.13.31.53,0,.65.51.38,1.59l.54,2.41c-.16.88-.32,1.74-.48,2.6-.12.67-.2.88-.58.84s-.64.55-.94.91c-.11-.36-.22-.71-.32-1.07L285.87,45a4.41,4.41,0,0,1,.08,2.21c-.26,1-.4,2.06-.59,3.1.23.88.35,2,1.07,1.81.19-.07.32,0,.37.35a4.21,4.21,0,0,1,.22,2.17c-.14.68.27,1,.17,1.72-.06.45-.35,1.19-.53,1.15-.44-.11-1,.14-1.11-1.05A4.27,4.27,0,0,1,285,56a1,1,0,0,1,0-.91c-.16-.15-.36-.08-.46.29a38.14,38.14,0,0,0-1,5.51c0,.13,0,.34.1.37s.33.21.46.07a19.81,19.81,0,0,1,1.35-1.76c.13.54.27,1.05.39,1.59a2.21,2.21,0,0,1-.08.5c.21,0,.45,0,.63.14s.27.52.12,1.07c.08,0,.17.11.23,0,.24-.28.46-.65.7-.92s.23-.07.65.91c0,.1.08.29.14.28.38-.06.51.42.63,1,.05.24.2.12.38-.23s.46-.45.71-.43c.82.07.83.06,1.1-1.44a3.46,3.46,0,0,1,.67-1.68c.42-.72.44-1.62,0-1.9s-.5-.44-.11-1.05a2.79,2.79,0,0,0,.49-1.28,3.89,3.89,0,0,1,.8-2.15c.1-.11.07-.63-.09-.64-.51,0-.67-.48-.4-1.57-.12-.54-.21-1.12-.35-1.6s-.37-.35-.63-.16a1.27,1.27,0,0,0-.33.85,2.06,2.06,0,0,0,0,1.07c.49.11.66.44.57.73s-.44.48-.65.32a.43.43,0,0,1-.14-.23,1.12,1.12,0,0,1-.08-.38c0-.49.11-.63.3-.45s.15,0,0,0c-.42,0-.55-.08-.54-.46s.08-1,.08-1.4-.13-.51-.69.32A3.53,3.53,0,0,0,289.86,52.27ZM304,83.57a1.18,1.18,0,0,1-.35-.43c-.15-.43-.09-.66.14-.47a1.82,1.82,0,0,1,.3.58c-1.73,1.17-2,.76-2.29.25a2.07,2.07,0,0,1-.16-1A11.6,11.6,0,0,1,302,81c.08-.29.47-.38.61-.16a9.61,9.61,0,0,1,.84,1.37c.2.41.11.66-.15.52l-.69,2.2a13.24,13.24,0,0,1,1.22-1.27C304,83.51,304,83.58,304,83.57Zm2.64,25.27-1,.13-.91-1.39c.23-.69.22-1.78.81-1.81.28,0,.29-.4.19-1.11-.08-.51-.16-1-.21-1.54,0-.13.07-.39.11-.37a3.6,3.6,0,0,1,1.09,2c.33,1.87.33,1.87,1.22,1.75a5.75,5.75,0,0,0,.94-.14c.18-.06.31,0,.47.28a3.13,3.13,0,0,1,.21,1.41c0,.14-.06.34-.12.36a4.08,4.08,0,0,1-.7.11c-.35,0-.47.64-.26,1.4.08.28.3.71.37.67.57-.28.94.83,1.36,1.43a2.65,2.65,0,0,1,.17,1,2.24,2.24,0,0,1-.19.79,1.64,1.64,0,0,0,0,.92c.1.73,0,1-.2,1.09s-.6-.1-.66-.52a3.16,3.16,0,0,0-.64-1.7,1.78,1.78,0,0,1-.26-.9c-.06-.51-.15-1-.19-1.26Zm1.77,16.26c-.16.56-.16.56-.5,0l-.63-1c-.16-1-.31-2.06-.47-3.07a.54.54,0,0,1,.11-.37c.38-.42.88-.23,1.33-.35.23-.06.44.32.53.93s.16,1,.25,1.61Zm-12-98.31a.81.81,0,0,1,.1-.39.1.1,0,0,1,.16,0c.55.59.58.64.7.13s.18-.53.32-.15a3.4,3.4,0,0,1,.22.93,5.23,5.23,0,0,1-.47,2,3.7,3.7,0,0,0,0,1.41c0,.39-.09.61-.22.56A.58.58,0,0,1,297,31l-.29-2.08h0Zm10.73,74.29a3.68,3.68,0,0,1,.11-.82l.22.33a6.85,6.85,0,0,0,.43.66.81.81,0,0,1,.23.7c-.05.32-.16.45-.35.37C307.44,102.39,307.2,101.93,307.15,101.08ZM305.42,96c0-.5.1-.77.35-.86s.31,0,.45.28a.85.85,0,0,1,0,.74,1.79,1.79,0,0,0-.11.37c-.07.25-.14.51-.2.76A2.24,2.24,0,0,1,305.42,96Zm-4.35-42.22a.54.54,0,0,1,.11-.37.91.91,0,0,1,.4-.23c.07,0,.15.06.22.14a.63.63,0,0,1,.2.33.69.69,0,0,1-.1.37,1.16,1.16,0,0,1-.18.2A.55.55,0,0,1,301.07,53.77Zm7,51.53c-.14.2-.35-.21-.45-.85a2.4,2.4,0,0,1-.07-.5.81.81,0,0,1,.11-.38c.08-.14.22,0,.36.35a2.38,2.38,0,0,1,.08.5A1.08,1.08,0,0,1,308.09,105.3Zm1.43,21.75c0,.37-.21.66-.5.62-.08,0-.17,0-.23,0a1,1,0,0,1-.11-.38.73.73,0,0,1,.28-.64c.07,0,.15,0,.23,0S309.5,126.68,309.52,127.05ZM297.85,39.66a1,1,0,0,1-.2-.31c0-.38.14-.52.26-.4s.14.22.21.32C298.06,39.64,298,39.78,297.85,39.66Zm-1.7-6a.74.74,0,0,1-.26-.65c0-.14.09-.37.11-.35a.75.75,0,0,1,.25.65C296.22,33.45,296.17,33.69,296.15,33.67Zm8.61,70.48c0-.14.08-.37.11-.35a.76.76,0,0,1,.26.65,2,2,0,0,1-.11.37A.85.85,0,0,1,304.76,104.15Z"/><path class="cls-1" d="M84.57,25.33a1.31,1.31,0,0,1-.12-.41l-.71-5.06,2.54,5a2.65,2.65,0,0,1,.24.93c0,.54-.09.78-.36.85s-.38.36-.27.95c.2,1,.42,2.07.59,3.1a3.52,3.52,0,0,0,.79,1.6,4,4,0,0,0-.07,2.21c.32,1.35.54,2.74.82,4.12a.53.53,0,0,0,.23.32c.16.06.31,0,.47.08s.39.44.3.94a2.16,2.16,0,0,0,0,.75c.11.38.31.46.46.32s.32-.06.47.29a.77.77,0,0,1,0,.36c0,.28-.13.53-.19.79a3.39,3.39,0,0,0-.11,2.21c-.08.39-.17.79-.25,1.2A3.5,3.5,0,0,1,90.28,48c.06.51.19,1,.3,1.55a1.74,1.74,0,0,1,0,.89,1.78,1.78,0,0,0-.11.82c.29,1.29.25,2.84,1.1,3.73a.84.84,0,0,1,0,.35c0,.15-.07.26-.09.4A2.37,2.37,0,0,0,92,57.86a2.22,2.22,0,0,1,.36,1.75,3.46,3.46,0,0,0,0,1.84c0,.11-.06.25-.08.39a2.15,2.15,0,0,0-.11.76c.1.36.29.42.46.39.39-.09.79-.15,1.18-.21.17,0,.5.72.51,1.19a6,6,0,0,1-.07.86,2.88,2.88,0,0,0-.09.4c0,.24.13.42.31.71a2.23,2.23,0,0,1,.43,1.74c-.16.66-.32,1.31-.49,2a14.44,14.44,0,0,0-.52,2.4l.78,4.15c.13.67.29,1.33.43,2a1.55,1.55,0,0,1,.33,1.84,1.39,1.39,0,0,0,0,.48,4.67,4.67,0,0,1,0,2.79,2.83,2.83,0,0,0,.38,1.37c.13.08.22,0,.27-.41,0-.15,0-.37.1-.38.77-.2,1.54-.37,2.32-.53.06,0,.16.08.23.19.34.6.84.87,1,1.94a4.15,4.15,0,0,0,.8,2.18,2.21,2.21,0,0,1,.24,1.38c-.14.51-.28,1-.45,1.47s-.66-.21-.81-.86c0-.17-.06-.35-.11-.58l-2.37-3.34-.4.06a.51.51,0,0,1-.24,0c-.2-.07-.32.05-.34.43a2.54,2.54,0,0,0,.27,1.38c.27.45.67.77.36,1.46a1.29,1.29,0,0,0,0,.9,4.46,4.46,0,0,1,0,2.76c.15.87.31,1.73.46,2.59.11.64.31,1,.56.95.49,0,1-.06,1.08-1.15,0-.27.48-.16.67.09s.31.45.47.69c.31,0,.62-.12.94-.15.53-.06.53-.06.49-1.44,0-.54.08-.82.36-.87s.39-.38.29-.93l-1.1-6.22a3.72,3.72,0,0,0-.77-1.61,4.7,4.7,0,0,0,.09-2.2c-.5-2.4-.9-4.83-1.35-7.24l-.65-1c.07-.37.15-.74.22-1.1-.35-.51-.66-1-1-1.4s-.32-.47-.24-.72.07-.28.13-.29c.23-.08.48-.08.71-.14s.36-.35.23-1c-.61-3.28-1.23-6.55-1.86-9.87l-1.36-2c-.1-.55-.2-1.06-.3-1.58-.12-.68-.07-.94.23-1s.49,0,.7-.15a1,1,0,0,0,.16-.71l-1.07-5.69a1.58,1.58,0,0,0-.38-.8,2.48,2.48,0,0,1-.51-1.27,4,4,0,0,1-.11-1.9,2,2,0,0,0,.07-.86c-.35-1.9-.71-3.79-1.1-5.68,0-.22-.25-.4-.38-.6-.16.66-.33,1.32-.49,2,0,.11-.11.13-.17.21s-.61-.13-.69-.49l-.41-2.05c-.58-.42-.71-1.71-1.15-2.39a2.47,2.47,0,0,1-.4-.75c-.31-1.71-.74-3.4-.9-5.12,0-.14,0-.35.1-.37.3-.08.62-.12.93-.17l.72,1a2.41,2.41,0,0,1,.41,1.76c-.06.27-.13.52-.2.8.16.85.32,1.71.49,2.57.12.62.33,1,.56,1a4,4,0,0,0,.48-.08c.45-.09.53-.35.37-1.19s-.32-1.71-.48-2.53l-.5-.72a2.22,2.22,0,0,1-.14-.33,4,4,0,0,0,0-2.29c-.26-1.19-.45-2.41-.7-3.62a1,1,0,0,0-.16-.4L75.43,0l5.23,24.36a3.49,3.49,0,0,1,.21.83,18.12,18.12,0,0,1-.17,2c-.08.7-.2,1.4-.25,2.09a2.61,2.61,0,0,0,.16.84c.27,1,.27,1,.87,1.12.24.06.46.08.56.59s.28.65.53.66c.07,0,.14.11.18.21a.75.75,0,0,1,.09.37c0,.14-.14.33-.21.34-.46.06-1,.35-1.23-.66-.12-.49-.3-.37-.46.24-.36,1.32-.36,1.32-.89,1.24l-.24,0-1.4,10.85a1.48,1.48,0,0,0,.07.42c.08.27.18.16.37-.18.27-.49.56-.92.85-1.37.15-.23.53-.13.63.16s.24.77.35,1.17A2.39,2.39,0,0,1,80.36,47l-.65,1a1.84,1.84,0,0,0-.47-.06c-.34,0-.6-.16-.71-.83s-.37-.46-.59-.38-.29.42-.23.68a2.71,2.71,0,0,1,.22,1.26l-.62,4.65a1.78,1.78,0,0,0,.16.81,4.36,4.36,0,0,1,0,1.4,6.67,6.67,0,0,0,.28,1.21,3.45,3.45,0,0,1-.32,1.38c-.19.36-.48.54-.5,1.2.54.08,1.07.13,1.6.26.09,0,.12.4.16.64,0,0-.13.29-.2.31a1.76,1.76,0,0,1-.46,0c-.22,0-.43-.2-.67.13s-.22.91-.35,1.35c0,.14-.18.35-.2.32a1.57,1.57,0,0,1-.22-.52,2,2,0,0,1,.06-.5l.28-2c-.16-.15-.38-.07-.45.31-.8,4.47-1.31,9-2,13.49a1.84,1.84,0,0,0,.14.82,4.15,4.15,0,0,1,0,1.41,6.17,6.17,0,0,0,.27,1.22A3.75,3.75,0,0,1,74.59,78l-.43.69c-.21,1.4-.42,2.78-.64,4.18a3.34,3.34,0,0,1,.14,2.24,3.15,3.15,0,0,0-.09.52,3.85,3.85,0,0,1-.73,2.21,5.68,5.68,0,0,0-.31,2.84,2.16,2.16,0,0,1-.37,2.13c-.07.13-.15.23-.27.43q-.77,4.72-1.55,9.57l6.91-.68c-.46-1.37-.93-2.78-1.39-4.18a3.77,3.77,0,0,0-1-1.46c-.54-1.64-1.1-3.3-1.65-5a5.55,5.55,0,0,0,.06-1.24,8.77,8.77,0,0,0-.47-1.49l-.18-.48c-.37-.4-.74-.81-1.11-1.18a2.64,2.64,0,0,1-.6-1l-.7-1.91-2.08,0h-.22c-.7,0-1.41,0-2.11,0-.49,0-.77-.19-.83-.51s-.34-.48-.84-.49c-1.41,0-2.81-.09-4.22-.09a2.49,2.49,0,0,1-.4,0l3.83,2.61a4.1,4.1,0,0,1,0-1.43l-.82-.9c-.7-1.92-1.46-3.89-2.13-5.88a4.35,4.35,0,0,0-1.23-1.88c-1-2.64-1.93-5.27-2.86-7.81l-.81-1c.23-1.74-1-3.49-1.46-5.23A4.14,4.14,0,0,0,53.8,61a1.46,1.46,0,0,0-.22-.4,3,3,0,0,1-.5-.56l-6.27-9.15-1,9.27a20.51,20.51,0,0,1-1.18,3.49c-.21.66-.47,1.33-.74,2a3.35,3.35,0,0,0-.18,1.84c-.64,1.71-1.32,3.51-2,5.31a2.74,2.74,0,0,0-.16,1.33,2.43,2.43,0,0,1-.61,1.69l-.55.59,0,.08,3.38-2.39L36.46,74a3.79,3.79,0,0,1-1.72.46c-2.11,0-4.22-.06-6.33-.08a1.76,1.76,0,0,0-.86.21,2.08,2.08,0,0,1-.81.25c-.69,0-1.4,0-2.1,0-.88,0-1.79-.07-2.63,0-.6.06-1.09.35-1.69.44a7.46,7.46,0,0,1-1.57,0,4.09,4.09,0,0,0-2.26.43,5.58,5.58,0,0,1-1,0,1.11,1.11,0,0,0-.4.13C15,76,15,76,15,76.08a.7.7,0,0,0,.36.16,3.5,3.5,0,0,1,1.81.34c.56.29,1.72.08,2.17.52.16.15.46.09.74-.09a2.3,2.3,0,0,1,1.34-.26A3.69,3.69,0,0,1,23.3,77a.76.76,0,0,0,.75.13l1.87-.84,7.37.06c1.4,0,2.82,0,4.21.07A4.11,4.11,0,0,0,39.65,76l4.07.07-1.57,1.1L43.3,74c.84-.88.84-.88,1.05-1.45l1.85-4.94a1.49,1.49,0,0,1,.51-.72,1,1,0,0,0,.43-.64c0-.36,0-.51-.26-.47s-.34-.12-.23-.5a2.42,2.42,0,0,1,.45-.62c.09-.12.23-.18.28-.3.27-.64.5-1.31.78-1.93a3.81,3.81,0,0,0,.37-1.3l.17-2.33,1.69,2.3a3.25,3.25,0,0,0,.63.65A3.86,3.86,0,0,0,51.33,64c.6,1.64,1.21,3.28,1.79,4.87l.33.34a2.33,2.33,0,0,1,.8,2,2.28,2.28,0,0,0,.75,2,3.65,3.65,0,0,1,.49.72A4.65,4.65,0,0,1,56,76.79a2.1,2.1,0,0,0,.31.92c.54.58,1.07,1.46,1.61,1.23.25-.1.45.27.7.92a5.17,5.17,0,0,1,.48,2.32c0,.59.44,1.6.25,2.21,0,.14.17.38.4.64a2.08,2.08,0,0,1,.7,1.74l-1-.67.29.12.4.19A3.74,3.74,0,0,1,61.3,86a9.14,9.14,0,0,1,2.09.05,3.84,3.84,0,0,1,1.11.48l2.15,0a3.49,3.49,0,0,0,1.48-.24l.13,0,.64.58a1.28,1.28,0,0,1,.19.23,2.5,2.5,0,0,1,.49,1.34,6.61,6.61,0,0,0,.32,2.28c.06.17.1.35.17.5a4.39,4.39,0,0,1,.32,2.3,2.14,2.14,0,0,0,.49,1.31c.09.1.19.19.28.3a2.38,2.38,0,0,1,.61,1.69c0,.14,0,.27,0,.41-.06.64,0,.65.49.76.17,0,.34-.06.48.1.45.52.08.73.13,1.12a9.81,9.81,0,0,1,.25,2.27,5.32,5.32,0,0,0,.55,2l.37,1,.14-1c0-.17,0-.34.07-.49a4.53,4.53,0,0,0,0-2.8,5.2,5.2,0,0,1,1-3.15c.28-1.7.56-3.43.81-5.16a.75.75,0,0,0-.25-.6c-.22-.09-.43-.15-.49-.66.37-.57.74-1.14,1.12-1.71a2.45,2.45,0,0,0,.15-1.8,2.6,2.6,0,0,1-.1-.4.84.84,0,0,1,.07-.35c.14-.25.3-.46.45-.69-.08-.4-.15-.8-.24-1.29.09-.57.19-1.26.3-2,.32-2.08.6-4.17,1-6.25a4.19,4.19,0,0,0-.16-2.22,3.37,3.37,0,0,0,.79-2.13c0-.17,0-.35.08-.52.06-.36.06-.74-.09-.86s-.42-.32-.67.12c-.15.24-.3.46-.45.69-.63-.09-1.26-.17-1.89-.29-.06,0-.11-.23-.11-.38s.11-.59.29-.62a3.34,3.34,0,0,1,.91.11l1.85-2.86c.11.32.23.64.37,1a6.13,6.13,0,0,0,.82-1.33,13.58,13.58,0,0,0,.37-2c0-.17,0-.35.08-.52a3.05,3.05,0,0,0-.2-1.75c0-.12.09-.26.14-.35.49-.87.5-1,.16-1.29a2.48,2.48,0,0,1-.77-1.83.62.62,0,0,1,.21-.32c.68-.26.68-.25.91-.63l.44-.7A3,3,0,0,0,81.19,56c-.28-1.6-.27-1.61.5-2.88.27-2.08.55-4.17.84-6.29a3.59,3.59,0,0,1-.2-2.22,3.84,3.84,0,0,1,.6-1.7.63.63,0,0,0,0-.74c-.13-.14-.33,0-.45-.15s-.2-.61-.1-.68c.65-.5.54-2.38,1.21-2.8l-.18-.77A2.5,2.5,0,0,1,83.62,36l.4-.69c.13-1.07.26-2.11.38-3-.1-.5-.17-.89-.25-1.29.54-.45.54-1.84,1-2.42a.77.77,0,0,0,.21-.73c-.21-.66-.42-1.31-.6-2a2.14,2.14,0,0,1,0-.52C84.72,25.36,84.62,25.42,84.57,25.33ZM91.74,48c-.07-.34-.08-.71.07-.83s.4-.32.66.12.6.76.93.65c.08,0,.31.37.39.64a2.53,2.53,0,0,1,.13.94c-.19.93-.42,1.82-.67,2.66-.06.18-.3.18-.45.07a1.72,1.72,0,0,1-.38-.73c-.16-.66-.26-1.34-.39-2ZM82,43.59c-.14.36-.27.46-.35.31a1.05,1.05,0,0,1-.11-.35c.14-.36.27-.45.36-.32A1.33,1.33,0,0,1,82,43.59Z"/><path class="cls-1" d="M282.4,97.61a1.3,1.3,0,0,1,.07-.62.73.73,0,0,1,.25.27c.25.6.49,1.22.69,1.84a1.35,1.35,0,0,1,0,.77c-.11.3-.26.12-.37-.37,0-.16-.11-.32,0,0,.25.86.42,1.2.63,1.24a1.37,1.37,0,0,0,.7-.07c.43-.13.46-.44.17-1.25-.52-1.48-1.05-3-1.54-4.35a4.59,4.59,0,0,1-.85-1,4.81,4.81,0,0,1-.61-2.78,2.37,2.37,0,0,0-.43-1.33l-1.42-1.47a2.71,2.71,0,0,1-.05-.37c0-.28.13-.65.05-.8-.24-.48-.47-.36-.72-.39-.49,0-.51-.11-.48-.77l0-.25.07-.9-3.65-1.64a2,2,0,0,0-1.07-.2,1.07,1.07,0,0,1-.86-.2c-.2-.2.12-.5-.39-.64s-.7.23-1.1.28c-1.18.12-2.39.26-3.22-.34a9.5,9.5,0,0,0-2,.8l3.92,2.86-.19-.21a3.41,3.41,0,0,0-.19-2.22c-.14-.31-.23-.65-.34-1a10.74,10.74,0,0,0-1.1-1.19c-.52-.41-.65-1.42-1.13-2a2,2,0,0,1-.62-2,4.32,4.32,0,0,0-.23-1.4c-.13-.53.05-.64.39-.29s.42.42.48-.16c0-.38.07-.77.1-1.15l-.3-.34c-.4-.46-.4-.47-.37-1a2.24,2.24,0,0,0-.68-2,2.17,2.17,0,0,1-.47-.76c-.23-.83-.5-1.06-.89-1s-.46-.09-.69-.78l-.16-.5c-.4-1.21-.4-1.21.06-1.76.18-.22.29-.5,0-1.12-.08,0-.17.13-.23.06-.45-.51-.88-1-1.27-.74,0,0-.19-.16-.26-.29-.47-.77-.51-1.61-.08-1.76a3.36,3.36,0,0,0,.65-.28c.05,0,.06-.24,0-.39a.83.83,0,0,0-.17-.32,3.34,3.34,0,0,1-.87-1.56,5.78,5.78,0,0,0-.26-.74l-4.71-11.15-2.85,11a2.8,2.8,0,0,0-.08,1.07c.08.57,0,.68-.47.8-.71.18-.71.18-1.09,1.29-.24.65-.47,1.31-.73,2.06-.15.14-.34.3-.52.5a2.34,2.34,0,0,0-.58,1.68,2.24,2.24,0,0,1-.14,1.31c-.16.34-.24.77-.1.85.36.21.55.63.56,1.38,0,.24.46.2.67,0s.38-.38.62-.63a15,15,0,0,0,.15,2c.17.66-.26,1.55-.25,2.21s.11,1.34.15,2a2.23,2.23,0,0,1-.16.48c.12.17.34.14.49-.21a5.93,5.93,0,0,1,1.47-2.15c.32-.31.49.1.72-.14.48-.49.9-.81,1.29-.68.05,0,.18-.18.27-.27s0-.58-.09-.64c-.4-.24-.85-.39-1.27-.6,0,0-.07-.26,0-.38.23-.65.45-1.29.73-2.07L257.12,67a2.32,2.32,0,0,0,.18-.48c-.22,0-.34-.1-.25-.49a11.37,11.37,0,0,1,.43-1.45c.32-.93.54-1.17.91-1a1.83,1.83,0,0,0,.45.15c.18,0,.2.25.25.54.11.81.2.83.41.3a2.56,2.56,0,0,0,.36-1.39c0-.24,0-.54-.06-.82l.46-1.3L255.12,61l1.16,3.63a8.84,8.84,0,0,1,.81,1c.15.23.22.66.36.93.22.43.35.4.36,0a2.42,2.42,0,0,1,.11-.79c.09-.16.28-.16.44-.17s.36.44.33,1a2.06,2.06,0,0,1-.59,1.41,4.5,4.5,0,0,0-.25,1.51l1.42,1.58a2.85,2.85,0,0,1,.47,1.34l-.33,2.84a2.51,2.51,0,0,0,.78,2l.28.32,1,3a.64.64,0,0,0,.27.29c.05,0,.11-.05.13-.13.22-.9.19-1,.52-1s.61-.56.63-1.35c.46.57.86.91,1.29.82.24,0,.44.71.62,1.18s.4.53.5.07c.17-.89.35-1,.92-.33.26.28.51.59.77.89-.09.71-.17,1.39-.25,2.06.08.32.13.65.23,1l.79,2.48-1.53-1.12,1.6,0a2.62,2.62,0,0,1,.75.24l-.37.17c-.37.17-.75.32-.66.6a1.11,1.11,0,0,1,0,.48c0,.3-.28.43-1,.41h-.58l-.07-.21a4.06,4.06,0,0,0-1.18-2.09L264,82.64c-.07,0-.17.12-.22,0-.58-.84-1.05-.9-1.48-.62a.71.71,0,0,1-.22.07c-.06.54-.12,1.07-.2,1.73l.89,2.79c.13.41.44.66.71.57a1.46,1.46,0,0,0,.82-.51,1.2,1.2,0,0,1,0-.59c0-.08.06-.2.1-.17a.57.57,0,0,1,.29.6c0,.28-.08.45-.27.36,0,0-.12-.28-.07-.2a1.94,1.94,0,0,1,.23,1l-.09.37,1.84.91a.2.2,0,0,1,.11.09,3.1,3.1,0,0,0,1.49,1.15,2.28,2.28,0,0,0,1.79-.11c.32-.13.52-.23.75-.17a1.15,1.15,0,0,1,.37.17,3.78,3.78,0,0,0,1.9.22,2.86,2.86,0,0,0,.93-.11,4.62,4.62,0,0,0,1.28-.67L272.66,88l0,0c.25.12.46-.11.76.32.42.6.67.19,1,.42a.55.55,0,0,1,.22.72,3.8,3.8,0,0,0,.27,1.8c.08.28-.27.74-.45.61s-.37-.34-.56-.52a3.83,3.83,0,0,0-.28-.29,3.53,3.53,0,0,0,.06.86c.39,1.16.8,2.32,1.23,3.46a2.05,2.05,0,0,0,.51.67,1.66,1.66,0,0,1,.49.74,4.65,4.65,0,0,0,1.35,2.45,3,3,0,0,1,.35,1.36c0,.28-.05.53-.08.77l1,2.74,2.8,7.88,1.51-8.23.34-1.85a1.48,1.48,0,0,1-.69-.15c-.16-.12-.15-.48,0-.7s.16-.3.22-.3a4.1,4.1,0,0,1,.7.12c.13-.39.15-.78,0-.89a2.64,2.64,0,0,0-.88-.34c-.19,0-.34.27-.54,1s-.29.88-.58.91-.3-.08-.38-.34a2.65,2.65,0,0,1,.19-1.39,5,5,0,0,0,.92-2.64c.1-.54.3-.8.61-.73s.35.06.47-.3a5.58,5.58,0,0,1,.89-2.06c.07-.08,0-.59-.13-.63a7.46,7.46,0,0,0-1.41-.18c-.06,0-.17.19-.22.33a.81.81,0,0,0,0,.37c.07.27.13.53.21.84l-.7,1a.75.75,0,0,1-1.31,0,.87.87,0,0,1,0-.35,4.79,4.79,0,0,0,.93-2.65c0-.34.15-.7.17-1a4,4,0,0,0-.07-.87c-.08-.43-.15-.84-.2-1.12a4.52,4.52,0,0,0-.82-.14c-.18,0-.3-.11-.31-.49a.87.87,0,0,1,.12-.34c.23-.35.47-.69.7-1s.58-.31.63.07c.12.81.5.9.78,1.26a1.15,1.15,0,0,1,0,.92,1.11,1.11,0,0,0,0,.89.38.38,0,0,0,.66,0c.39-.56.77-1.13,1.17-1.66.05-.08.15,0,.23,0a6.63,6.63,0,0,1,.29-1.51,4.63,4.63,0,0,0,.87-2.07,4.39,4.39,0,0,0,.95-2.59,2,2,0,0,1,.35-.82,2.3,2.3,0,0,0,.43-2.11,1.09,1.09,0,0,1,.21-1.09c.28-.43.33-.84.11-1s-.3-.08-.43-.19-.24-.2.3-1.06a2.88,2.88,0,0,0,.23-.34c.25-.57.22-1.55-.07-1.62a4.11,4.11,0,0,0-.7-.13c-.22,0-.43.38-.55,1a4.52,4.52,0,0,0-.09,2.35,2.2,2.2,0,0,1-.37,1.72c-.23.34-.47.67-.7,1l-.31-1.07c-.16.22-.31.46-.47.67s-.57.29-.67.1a1.4,1.4,0,0,1-.06-.88c.2-1,.41-2.06.56-3.09a3.72,3.72,0,0,1,.8-1.63l1.1-6.09a1,1,0,0,0-.19-.67c-.12-.13-.31-.06-.46-.11-.6-.17-.61-.21-.36-1.61.13-.68.25-1.37.38-2.09.22-.32.45-.64.67-1a1.91,1.91,0,0,0,.1-.5c-.21,0-.45,0-.63-.14s-.28-.51-.12-1.07c-.08,0-.17-.1-.24,0-.23.29-.46.63-.68.93l-1.19-.21c-.28-.06-.5.23-.6.78-.29,1.54-.54,3.09-.86,4.63a4.2,4.2,0,0,0,0,2.27,2.56,2.56,0,0,1-.33,1.37l-.48.69c.19.78.37,1.56.54,2.32-.16.89-.32,1.75-.48,2.61s-.1.9.23,1c.07,0,.16,0,.23,0s.23.61.1,1.22-.28.88-.6.83a6.64,6.64,0,0,0-1.17-.19c-.11,0-.36.38-.4.62L279,85.19a2.37,2.37,0,0,0,.05.89,2.16,2.16,0,0,1-.35,2.11A5.67,5.67,0,0,0,278,91c.39.75,0,1.82-.11,2.81a1.67,1.67,0,0,0,.16.74c0,.09.16,0,.22.06a3,3,0,0,1,.51,2.19,2.41,2.41,0,0,0,0,.93,2,2,0,0,1,.1,1.3c-.23.82.19,1.08.16,1.72a2.59,2.59,0,0,1-.21,1,3,3,0,0,0-.65,1.22l4.89-.39a10.41,10.41,0,0,0-.45-1.37l-.18-.49c-.18-.49-.39-1-.23-1.33,0-.08.34.25.5.46s.38.37.34-.27C282.72,98.55,282.52,98.08,282.4,97.61ZM263.33,71a1.58,1.58,0,0,1,0,.81.28.28,0,0,1-.43.14,10.63,10.63,0,0,1-1.06-1.13.82.82,0,0,1-.09-.33c.22-.57-.12-1.45-.17-2.16a5.06,5.06,0,0,1,.12-1.19c0-.1.05-.27.09-.25a1.22,1.22,0,0,1,.45.71l.47,1.46C262.92,69.66,263.15,70.3,263.33,71Zm11.12,16.49-.08-.09.57.41c-.45.18-.48.16-1-.05a6.61,6.61,0,0,1-1-.5c-.15-.11-.08-.3,0-.45s.85-.33,1.24-.25a4.93,4.93,0,0,1,.76.2l.4.16v.18c0,.41-.07.79-.11,1.3C275,88,274.72,87.72,274.45,87.44ZM255.72,64.12A8.57,8.57,0,0,1,256.8,63c.28-.26.53.47.37,1-.25.81-.48,1.11-.88,1-.17,0-.29,0-.5.22a4.42,4.42,0,0,1-.53.53A2.2,2.2,0,0,1,255.72,64.12Zm17.2,21.42c0,.28-.28.45-.78.49-1.05.06-1.69-.28-1.33-.71a2,2,0,0,1,1.3-.25C272.64,85.09,272.93,85.26,272.92,85.54Zm6,5.39c.15-.15.32-.41.45-.43a1,1,0,0,1,.69.13c.12.07.19.36.28.56-.16.15-.31.37-.46.43s-.31,0-.48-.07S279,91.4,278.89,90.93Zm.48-1.69a1.08,1.08,0,0,1,0-.89c.05-.15,0-.36.1-.49.15-.36.29-.48.37-.33a.82.82,0,0,1,.09.38,2.36,2.36,0,0,1-.08.5C279.72,89.05,279.5,89.44,279.37,89.24Zm-1.78,4A1,1,0,0,1,278,94c0,.16.14.34.16.48.05.38,0,.55-.16.47a.81.81,0,0,1-.27-.28,3,3,0,0,1-.18-.48C277.38,93.54,277.38,93.08,277.59,93.2Z"/><path class="cls-1" d="M311.92,104a1.65,1.65,0,0,1-.3.57c-.23.18-.3,0-.14-.47.08-.2.22-.32.14,0a9.09,9.09,0,0,0-.29.95c-.29.47-.59.91-.88,1.37-.4-.1-.75.29-1.1.94-.25.46-.26.43-.16,1.11a3.17,3.17,0,0,1,.08.87c-.11.82,0,1.29.34,1.32s.63.1.94.14.4-.09.55-.87c.07-.37.11-.76.28-.87s.48-.07.68-.31a12.28,12.28,0,0,0,.89-1.33c.41-.62.61-.58.94.33.1.27.16.49.34.47.51,0,.92.22,1.07,1.24.52-.8,1-1.56,1.54-2.41a2,2,0,0,0,.15-1c-.17-.82-.4-1.56-.61-2.33l.93-1.42c.26-.4.29-.45.11-1.1a4.23,4.23,0,0,1,0-1.42c0-.64-.35-1-.68-.64-.16.16-.29.47-.45.66s-.26,0-.25-.43.26-1.17,0-1.38-.4.48-.61.72-.61-.1-.62-.34a1.15,1.15,0,0,1,.25-.73c.74-1.11,1.47-2.25,2.2-3.41a2.48,2.48,0,0,0,.08-.51,2,2,0,0,1,.09-.49,4.49,4.49,0,0,0,.83-2.07,1.52,1.52,0,0,1,.43-.68,5.18,5.18,0,0,0,1-3,3.61,3.61,0,0,1,.75-2.14,3.77,3.77,0,0,1,.84-2,4.27,4.27,0,0,1-.28-1.2,9.5,9.5,0,0,1,.31-2.06,1.62,1.62,0,0,1,.18-.4l-3.5,3c.23.09.44.22.66.31a3.59,3.59,0,0,1,1.74-.5c1,0,2.1,0,3.15,0a1.57,1.57,0,0,1,.85.21,2.44,2.44,0,0,0,1.34.25c.5,0,1,0,1.5,0,.67.52,1.79.38,2.8.35a1.32,1.32,0,0,0,.69-.29c.13-.14-.06-.37.13-.45.68-.29,1.09-.6,1-1a2.47,2.47,0,0,1,0-.72c0-.23-.33-.35-1-.37s-1.1-.14-1.07-.36c.08-.47-.23-.94.2-1.4a.9.9,0,0,1,.35-.13c.27.1.52.21.76.32s.73.09.7-.1c-.12-.58.86-.82,1.54-1.18a11.94,11.94,0,0,1,2.22.87c.44.16.59.36.56.61s0,.48,0,.72.15.44.56.61,1,.44,1.56.69a6.47,6.47,0,0,1,0,1.16c-.05.28.31.44.71.58s.42.43.33.64-.5.26-.7.16a3.29,3.29,0,0,0-1.76-.38c-1,0-2.11,0-3.15,0a2.84,2.84,0,0,1-.79-.27l-.37-.17c-.19.11-.49.21-.56.34-.17.34.24.63,1.06.6,1.22,0,2.45,0,3.77,0a3,3,0,0,0,2.07.5c.13,0,.24.11.38.16.69.24.68.23,1.12.05s.78-.3,1.18-.45a3.7,3.7,0,0,1-.51-.24c-.2-.1-.55-.23-.52-.33s.46-.23.84-.2c.61,0,1-.1,1.12-.35s-.27-.61-1-.61c-.53,0-1.05,0-1.58,0a.6.6,0,0,1-.36-.16c-.11-.11.06-.23.45-.31a2.26,2.26,0,0,1,.52,0c.38,0,.75,0,.85-.21s.1-.61.76-.82.31-.58.41-.88c0-.08.08-.21,0-.23-1.19-.37-1.1-.92-1.07-1.48,0,0-.22-.13-.37-.16a.93.93,0,0,0-.36,0c-.14,0-.24.12-.37.17-.46.19-.87.16-1-.12s0-.47-.53-.61a3.6,3.6,0,0,0-1.8.33l-.37.13L335,77.22A1.06,1.06,0,0,1,335,77v-.48c0-.45-.92-.67-1.74-.42-.29.09-.47.25-.76.34-.76.23-1.53,0-1.72-.43s-.26-.41-.92-.43-1.08.09-1.17.33,0,.48-.52.63l-1.11-.43c-.12.05-.32.1-.36.17s0,.32-.16.45A1,1,0,0,1,326,77c-.38,0-.51-.2-.45-.37s-.2-.45-.74-.51-1.35.08-1.33.25c0,.46-.16.74-1.38.76-.66,0-.76.21-.34.42l.37.17c.61.35.29.8-.73.83a4.51,4.51,0,0,0-1.67.52,2.86,2.86,0,0,0-1.66.3l.32-.27.16.54.22.79a2.83,2.83,0,0,1-.16,1.42,5.85,5.85,0,0,0-.74,2.15,2.72,2.72,0,0,1-.46,1.29l-.62.87c-.24-.84-.46-1.63-.69-2.42a2.42,2.42,0,0,1,.33-1.77c.35-.64.34-.63.22-1.1s-.18-.82-.26-1.21l-.71,1c-.17-.57-.32-1.09-.46-1.64a1.43,1.43,0,0,1,.06-.41l.47-2.39,2.32,0h.1c.09-.13.06-.25-.1-.33l-.75-.34-2.36,3a.74.74,0,0,0-.11.25c-.16.65-.26,1.33-.38,2-.09.44-.26.63-.6.68s-.46.26-.55.8l-.15,1a12.56,12.56,0,0,0-.22,1.55c0,.77.37,1.22.13,2.24a2.29,2.29,0,0,0,.15.81l.42,1.59a1.44,1.44,0,0,1-.07.51,1.49,1.49,0,0,0,0,.92,2.26,2.26,0,0,1-.21,2.13,4.41,4.41,0,0,0-.48,1.25c-.18.87-.24.86-.55.81l-.91-.15c-.27,0-.52.25-.58.66-.35,2.4-.71,4.8-1,7,.17.68.31,1.21.43,1.72a1.71,1.71,0,0,0,1.39-.24C311.85,103.66,311.93,104,311.92,104Zm.5-3a.7.7,0,0,1,.2-.31c.12-.12.21,0,.25.4,0,0-.13.21-.2.32S312.46,101.36,312.42,101Z"/><path class="cls-1" d="M188.91,31a4.84,4.84,0,0,1,.25,3.15,5,5,0,0,0-.23,2.54c0,.37-.13.5-.32.42s-.28.09-.35.39-.11.92-.42.81a2.13,2.13,0,0,1,.08.51,5.35,5.35,0,0,1-.2.79,2.68,2.68,0,0,0,.13,1.42c.13.55.25.49.47-.24,0-.13.07-.26.1-.39l.44.58.23.31a6,6,0,0,0,.08-.86c0-.33-.12-.69-.17-1-.17-1.14-.08-1.2.52-1.42.44-.16.76.54,1.13.83a4.58,4.58,0,0,0,.24-2.64.64.64,0,0,1,.1-.38c.17-.25.44-.44.63,0,.51,1.06,1.16.36,1.65,1.56,0,.13.32.07.45,0a.66.66,0,0,0,.07-.68c-.65-.52-.65-2.31-1.32-2.74.05-.22.07-.54.17-.64.56-.56.56-.54.36-1.63s-.45-2.4-.63-3.61a2.29,2.29,0,0,0-.28-.83L182,10.56l3.46,16.69a2.42,2.42,0,0,0,.13.43,1.36,1.36,0,0,1,0,.92,4.94,4.94,0,0,1,.67.12c.06,0,.1.19.13.31.12.5-.08,1.55-.34,1.68s-.46.16-.59-.23a1,1,0,0,1-.08-.39c.06-.49.14-1,.21-1.49-.33.06,0-.56-.23,0a6.19,6.19,0,0,0-.36.78c-.09.29-.13.67-.24.92a3.74,3.74,0,0,1-.43.7c.07.39.15.79.23,1.19-.11.2-.25.43-.37.66a2.47,2.47,0,0,0-.26,1.77,2.18,2.18,0,0,1,.14,1.32c-.1.37-.1.8.07.86.38.16.65.54.82,1.25.05.19.31,0,.44.17a.67.67,0,0,1,.12.68c-.05.14-.15.31-.22.33-.74.21-.74.2-.9,1.23a6.39,6.39,0,0,1-.72,2.15,1.73,1.73,0,0,0-.12.46,7.65,7.65,0,0,0,0,1c0,.37.17.28.36-.1s.31-.55.43-.52c.52.14.76-.4.84-1.46a4,4,0,0,0,.8-2.08c0-.12.31-.46.42-.41.58.27,1.09-.15,1.59-1.14.28-.56.57-.79.91-.68.08,0,.29-.42.35-.69.15-.65.23-1.34.38-2,.09-.38.28-.45.44-.3a1.46,1.46,0,0,0,0-.93c-.28-1-.27-1,.27-1.17s.58-.18.7-1.11a4.08,4.08,0,0,1,.71-2.21c.13-.14.08-.42,0-.75,0-.11-.06-.19-.08-.26l-5.68,0c.13.23.12.38,0,.85a2.18,2.18,0,0,0-.06.89,1.91,1.91,0,0,0,.29.9c.16.23.23.11.3-.27.23-1.2.95-.58,1.44-.81.11-.05.31.25.45.45a1.67,1.67,0,0,1,.1.5C188.61,30.6,188.8,30.67,188.91,31Zm2.23,2.44a.76.76,0,0,1-.28-.64c0-.14.07-.37.09-.35a.75.75,0,0,1,.28.64C191.2,33.24,191.16,33.49,191.14,33.47Z"/><path class="cls-1" d="M288.88,69.72l.71.13c.28,0,.41.38.32.91a15,15,0,0,1-.3,1.54,2.27,2.27,0,0,1-.37.64c0-.13-.07-.27-.1-.4-.17-.59-.19-.65-.48-.2-.46.75-.8.37-1.17.31-.11,0-.17-.38-.25-.58l.24-.34c.33-.49.32-.5.19-1.48a.73.73,0,0,1,0-.36c.06-.14.16-.33.22-.33C288.25,69.59,288.56,69.66,288.88,69.72Z"/><path class="cls-1" d="M209.68,106.23c.18-1.55.33-3.12.54-4.67.05-.38.26-.5.35-.34a.81.81,0,0,1,.11.39c-.08.69-.15,1.38-.23,2.06.22.65.43,1.29.64,1.94.14.46.07.84-.31,1.78a3.7,3.7,0,0,0-.4-1C210.19,106.16,209.92,106.26,209.68,106.23Z"/><path class="cls-1" d="M276.31,100a14.4,14.4,0,0,1,.92-1.29.28.28,0,0,1,.44.08,1.58,1.58,0,0,1,.12.77c-.05.5-.17,1-.27,1.5s-.69,1.08-.81.73A4.47,4.47,0,0,1,276.31,100Z"/><path class="cls-1" d="M187.62,34.31l.18,1c.12.72-.07,1.09-.51,1-.07,0-.15-.15-.23-.25s-.11-.41,0-.74a.91.91,0,0,0-.16-1,2.86,2.86,0,0,1-.46-1.26c-.07-.5.06-.84.32-.88s.54.25.62.68Z"/><path class="cls-1" d="M288.74,66.46c.1-.66.55-1.18.78-.91a4.36,4.36,0,0,1,.52,1.76,3,3,0,0,1-.17,1c-.1.36-.54.58-.68.42a5,5,0,0,1-.53-1.76A2.22,2.22,0,0,1,288.74,66.46Z"/><path class="cls-1" d="M294.58,39.22c.47-.22.71.33.83,1.41a1.64,1.64,0,0,0,.4.7,1.14,1.14,0,0,1,.27.87c0,.07-.14,0-.22,0-.61.11-.69.11-.81-.72-.18-1.26-.52-1.25-.94-1.23-.05,0-.15-.2-.2-.34a.88.88,0,0,1,0-.36c0-.12.09-.26.15-.28A2.45,2.45,0,0,1,294.58,39.22Z"/><path class="cls-1" d="M206.07,87.4a1.5,1.5,0,0,1,.06-.33,3.57,3.57,0,0,0,.6-1.7c.08-.63.51-.83.8-.49a3,3,0,0,1,0,1.41,3.36,3.36,0,0,1-.19.38c-.53,1-.78,1.29-1.18,1.13C206.14,87.77,206.12,87.55,206.07,87.4Z"/><path class="cls-1" d="M193.91,39.63c.07.58-.28,1.24-.53,1s-.44-.63-.67-.91a1,1,0,0,1-.3-.69c0-.38.14-.47.33-.44a1.19,1.19,0,0,0,.46-.06C193.57,38.42,193.8,38.8,193.91,39.63Z"/><path class="cls-1" d="M194,43.2c0,.12-.05.34-.11.37-.54.31-.7.33-1.09.13a.78.78,0,0,1-.21-.33,3.09,3.09,0,0,1-.08-1.39c.17-.26.38-.32.63-.1a3.76,3.76,0,0,1,.22.33c.07.11.15.21.22.33Z"/><path class="cls-1" d="M210.27,109.09c-.05.07-.12.26-.18.29s-.37.16-.46,0a4.64,4.64,0,0,1-.57-1.88,2.2,2.2,0,0,1,.39-1.28c.07-.07.22,0,.22,0C209.54,107.61,210.28,107.86,210.27,109.09Z"/><path class="cls-1" d="M321.19,75.89a4,4,0,0,1-1.73.77,3,3,0,0,1-1,0c-.56-.07-.5-.12.15-.41a3.41,3.41,0,0,1,2.16-.48A1.49,1.49,0,0,1,321.19,75.89Z"/><path class="cls-1" d="M346.05,76.89l1.07.49c.7.33.7.44,0,1L346,77.84C345.34,77.51,345.34,77.4,346.05,76.89Z"/><path class="cls-1" d="M285.2,55.11c-.08,0-.21,0-.21,0a1.2,1.2,0,0,1,.28-.81c.23-.28.44-.63.66-.93.05-.06.14-.09.17,0a1.19,1.19,0,0,1,0,.83c-.15.82-.33,1.1-.71,1Z"/><path class="cls-1" d="M285.44,88.42a1.17,1.17,0,0,1,.1.3c0,.73-.15,1.52-.4,1.64a.38.38,0,0,1-.59-.2c-.16-.32-.15-.36.23-.83C285,89,285.22,88.72,285.44,88.42Z"/><path class="cls-1" d="M258.18,65.74c.27.14.25.74-.1,1.44a2.5,2.5,0,0,1-.46.56l0-.38c0-.24,0-.5-.08-.73-.1-.59-.08-.69.21-.82A1.23,1.23,0,0,1,258.18,65.74Z"/><path class="cls-1" d="M85,25.41c-.22.12-.29,0-.18-.43l1-3.77,0,3.76v.08a.7.7,0,0,1-.08.37,1.17,1.17,0,0,1-.36.28c-.14.07-.33-.05-.43-.38a.73.73,0,0,1,0-.21h.69a.92.92,0,0,1-.24.35C85.32,25.53,85.17,25.43,85,25.41Z"/><path class="cls-1" d="M165.67,83.24c0,.06,0,.12,0,.16a2.09,2.09,0,0,1-1.73,0,.11.11,0,0,1,0-.16.83.83,0,0,1,.37-.15,8.51,8.51,0,0,1,1,0A1.14,1.14,0,0,1,165.67,83.24Z"/><path class="cls-1" d="M169,83.4a.55.55,0,0,1-.52.59.57.57,0,0,1-.35-.15.93.93,0,0,1-.17-.43c0-.06.08-.14.16-.2a.78.78,0,0,1,.36-.16.73.73,0,0,1,.35.15A.79.79,0,0,1,169,83.4Z"/><path class="cls-1" d="M181.25,56.73c.19-.09.31,0,.34.42s-.2.66-.5.62c-.07,0-.16,0-.22-.05a.76.76,0,0,1-.12-.37.75.75,0,0,1,.27-.64C181.09,56.65,181.17,56.72,181.25,56.73Z"/><path class="cls-1" d="M263.74,81.7c-.17-.59-.19-1.09,0-1.07s.47.66.58,1.17a1.93,1.93,0,0,1,0,.41.71.71,0,0,1-.06.35c-.15.24-.27.1-.36-.39C263.86,82,263.79,81.86,263.74,81.7Z"/><path class="cls-1" d="M188.24,30.78c.19-.19.3,0,.3.45a.73.73,0,0,1-.08.37,1.26,1.26,0,0,1-.36.27c-.15.08-.33,0-.42-.37a.89.89,0,0,1,.13-.61C187.92,30.76,188.09,30.81,188.24,30.78Z"/><path class="cls-1" d="M189.22,43.52c-.09-.6-.05-1.11.1-1.06a2.14,2.14,0,0,1,.41,1.23,1.91,1.91,0,0,1,0,.42.76.76,0,0,1-.11.34c-.18.22-.28.06-.3-.44C189.29,43.86,189.25,43.69,189.22,43.52Z"/><path class="cls-1" d="M79.47,33.54s.16-.31.18-.28a1.19,1.19,0,0,1,.21.51c0,.45-.08.66-.25.41A2,2,0,0,1,79.47,33.54Z"/><path class="cls-1" d="M248.25,73.4a.51.51,0,0,1-.14-.79c.19-.31.36-.37.49-.2Z"/><path class="cls-1" d="M263.81,64.52a1.09,1.09,0,0,1,0-.37c0-.08.06-.2.1-.17a.59.59,0,0,1,.29.6c0,.28-.09.45-.28.36A1.29,1.29,0,0,1,263.81,64.52Z"/><path class="cls-1" d="M179.6,65.48a1,1,0,0,1-.17.33c-.05.06-.13.14-.16.1a.57.57,0,0,1,0-.66c.14-.25.27-.37.4-.21A1.43,1.43,0,0,1,179.6,65.48Z"/><path class="cls-1" d="M178.69,74.46a.85.85,0,0,1,.06.72c-.05.13-.18.34-.19.31a.77.77,0,0,1-.07-.7A1.81,1.81,0,0,1,178.69,74.46Z"/><path class="cls-1" d="M197.69,60.17a.83.83,0,0,1-.27-.66c0-.14.07-.38.09-.36a.78.78,0,0,1,.28.65A2,2,0,0,1,197.69,60.17Z"/><path class="cls-1" d="M312.76,125.68a.81.81,0,0,1-.09.32,1.16,1.16,0,0,1-.34-.43c-.17-.43-.1-.66.12-.47A1.82,1.82,0,0,1,312.76,125.68Z"/><path class="cls-1" d="M139.23,77.5a.54.54,0,0,1-.71.41c-.35-.07-.46-.21-.35-.39Z"/><path class="cls-1" d="M173.49,95.58a.92.92,0,0,1,0-.37c0-.08,0-.2.09-.17a.58.58,0,0,1,.32.58c0,.28-.06.45-.26.38A1.21,1.21,0,0,1,173.49,95.58Z"/><path class="cls-1" d="M337.09,76.22a.83.83,0,0,1-.69.16c-.14,0-.36-.13-.34-.15a.76.76,0,0,1,.68-.17A1.61,1.61,0,0,1,337.09,76.22Z"/><path class="cls-1" d="M179.62,99.13c.14-.75.29-1,.43-.82a1.14,1.14,0,0,1,0,.89Z"/><path class="cls-1" d="M180.09,99.2a.53.53,0,0,1,.3.76c-.12.34-.27.43-.43.29Z"/><path class="cls-1" d="M193.91,62.54a.81.81,0,0,1-.09.32,1.17,1.17,0,0,1-.36-.42c-.17-.42-.11-.65.13-.47A2,2,0,0,1,193.91,62.54Z"/><path class="cls-1" d="M224,77.63h-1c-.12-.18,0-.32.35-.4A.52.52,0,0,1,224,77.63Z"/><path class="cls-1" d="M195.34,76.15a1,1,0,0,1,.07-.36c0-.08.08-.19.12-.16a.59.59,0,0,1,.21.63c-.06.28-.15.44-.33.33A1.66,1.66,0,0,1,195.34,76.15Z"/><path class="cls-1" d="M313.15,109.84a.75.75,0,0,1,.26-.65s.08.21.1.36a.73.73,0,0,1-.26.64S313.18,110,313.15,109.84Z"/><path class="cls-1" d="M190.28,34.66a.65.65,0,0,1,.12.3.75.75,0,0,1,0,.33c-.14.38-.24.39-.32.16a1.17,1.17,0,0,1,0-.83S190.23,34.6,190.28,34.66Z"/><path class="cls-1" d="M189.57,45.53a.53.53,0,0,1-.52-.63c0-.36.14-.49.34-.41Z"/><path class="cls-1" d="M283.41,100.87a.52.52,0,0,1,.26.76c-.14.34-.3.42-.45.27Z"/><path class="cls-1" d="M187.63,38.37a.72.72,0,0,1-.21-.26.77.77,0,0,1-.11-.31c0-.39.11-.44.26-.25a1.19,1.19,0,0,1,.26.79S187.7,38.4,187.63,38.37Z"/><path class="cls-1" d="M191.94,62.59a.76.76,0,0,1-.05.7s-.14-.17-.2-.3a.76.76,0,0,1,0-.7S191.87,62.49,191.94,62.59Z"/><path class="cls-1" d="M201.06,119.67c.08-.13.21,0,.37.3a1.1,1.1,0,0,1-.1.36c-.07.15-.21,0-.36-.3A1.15,1.15,0,0,1,201.06,119.67Z"/><path class="cls-1" d="M304.94,118.66a.54.54,0,0,1-.5-.64c0-.36.15-.49.34-.4Z"/><path class="cls-1" d="M305,120.67a.9.9,0,0,1-.18-.28,1.69,1.69,0,0,1,.12-.64c.17-.24.3,0,.27.41A1.08,1.08,0,0,1,305,120.67Z"/><path class="cls-1" d="M312.32,129.47c.12-.1.22,0,.26.41a1.2,1.2,0,0,1-.2.31c-.12.12-.22,0-.26-.41A2.09,2.09,0,0,1,312.32,129.47Z"/><path class="cls-1" d="M348.86,84.41c-.11-.11,0-.22.37-.32a1,1,0,0,1,.33.16c.14.1,0,.22-.35.31A1.71,1.71,0,0,1,348.86,84.41Z"/></svg>