<svg id="Camada_1" data-name="Camada 1" xmlns="http://www.w3.org/2000/svg" viewBox="0 0 354.61 150.36"><defs><style>.cls-1{fill:#0071bb;}</style></defs><path class="cls-1" d="M100.26,113.55a1.73,1.73,0,0,1-1.55-.17c-.06,0-.11-.33-.1-.35.11-.21.25-.55.34-.55.54,0,1.07.16,1.6.24a9.94,9.94,0,0,1,.24-1.54c.15-.43.46-.65.62-1.08s.12-1,.41-1.35a2.31,2.31,0,0,0,.48-1.24l.67-4.68a3.72,3.72,0,0,1,.64-1.68,2.38,2.38,0,0,0,.23-1.39,1.17,1.17,0,0,0-.11-.4.75.75,0,0,1,0-.75,3.74,3.74,0,0,0,.65-1.68,4,4,0,0,0-.17-2.26,3.87,3.87,0,0,0,.79-2.08c0-.68.19-1.38.29-2l.45-.7a3.06,3.06,0,0,0,.3-1.39c0-.36-.15-.52-.32-.52a3.93,3.93,0,0,0-.48-.06c-.18,0-.31-.07-.37-.37a.73.73,0,0,1,.22-.72,2.68,2.68,0,0,0,.45-1.29c.11-.53.34-.85.6-.69s.33,0,.45-.34a2.56,2.56,0,0,0,.15-1.41c-.19-.67-.38-1.32-.57-2a3.55,3.55,0,0,0,.8-2.07c.09-1,.28-2,.42-3l-.75.63h.08l.79.35c.25.11.42,0,.76-.12a2.21,2.21,0,0,1,2.15-.07,3.14,3.14,0,0,0,.84.21l8.93-.17a4.47,4.47,0,0,0,2.25-.49,2.53,2.53,0,0,1,1.41.05l.79.34,5.71-.12a2.67,2.67,0,0,1,.94.13,5,5,0,0,0,2.31.3.53.53,0,0,1,.7-.4c.36.07.47.21.35.39l6.29-.09c1,0,1-.29,1.11-.62s.33-.38,1.07-.38a1.56,1.56,0,0,1,.86.16h0l.2-.14a.29.29,0,0,1,.26-.06c.16,0,.29.14.44.19.45.13.63,0,1-.84L147.6,71c.24-.22.43-.39.63-.59a1.39,1.39,0,0,0,.2-.3,6.43,6.43,0,0,1,.35-2.19,5.94,5.94,0,0,0-.06-1.59c-.38,0-.43-.47-.44-1.05,0-1.37.27-1.93,1.13-2.1.36-.07.44-.1.66-.6l-.77,0,.09.24a3.91,3.91,0,0,0,.66,1.21c.33.26.31.57.28.56a1,1,0,0,1-.42-.36c-.25-.38-.23-.62,0-.48s.28.31.1.28a1.38,1.38,0,0,0-1,0l-.13,1.75c.24.69.53,1.5.82,2.31s.32.9.91,1,.92.87.9,1.67c0,.28,0,.54-.07.82l1.41,3.92c0,.42-.05.83-.07,1.24l.18.49a9.62,9.62,0,0,0,.54,1.46,5.62,5.62,0,0,0,.79.88c-.05.7-.11,1.37-.16,2.05a2.27,2.27,0,0,0,.48,1.32,4,4,0,0,1,1.15,2,3.08,3.08,0,0,0,1,1.48l-.05.88,0,.43,1.54.64,1.38.57a3.51,3.51,0,0,1,2.18-.51c.51,0,1,0,1.57,0a1.46,1.46,0,0,1,.87.18,2.1,2.1,0,0,0,1.31.27c.17,0,.36,0,.53,0a2.82,2.82,0,0,1,.78,0l-2-1.41a3.23,3.23,0,0,1,0,1,.78.78,0,0,0,.12.33c.08.12.22.28.28.27.31-.07.59-.21.91-.28,0,0,.2.15.28.28a.67.67,0,0,1,0,.68c-.11.14-.3.12-.41.24s0,.82.28,1.35a1.8,1.8,0,0,0,.26.34c.2.23.23.07.25-.3,0-.64.06-.61.45-.22l1.16,1.17c0-.21.08-.42.12-.65.08-.57.37-.71.74-.33l1.91,1.91c-.5.55,0,1.54.35,2.48.22.6.25,1.1,0,1.14-.62.13-1.11.63-1.83.47a.55.55,0,0,1-.27-.29c-.2-.48-.38-1-.56-1.46l-.23.08c-.07,0-.14.08-.22.07s-.31.11-.26.48a1.23,1.23,0,0,0,.43.64c.35.34.46.74.28,1-.46.6-.5.62-.09,1.6a3.61,3.61,0,0,1,.31,2.21c.28.74.56,1.47.83,2.2l3.71,9.83,1.58-10.33,0-.25a2.38,2.38,0,0,0,0-.93,4.4,4.4,0,0,1,0-2.33c-.36-.2-.39-.28-.34-1.12-.08,0-.2,0-.23,0-.17-.5-.32-1-.49-1.58a4.38,4.38,0,0,0,.72-2,.68.68,0,0,1,.19-.35c.49-.5.52-1.41.21-2.77-.41-.91-.31-1.18-.19-1.45s.14-.34.43.67a1.91,1.91,0,0,1,.17,1.3c-.27-.22-.45.37-.66.64-.07.08-.17.26-.2.22a1.29,1.29,0,0,1-.11-.86c.05-.35.09-.69.56-.52.49.53.59.62.65.54.22-.31.43-.68.65-1s.27-.85,0-1-.46-.08-.55-.61l1.2-2c-.28-.73-.36-1.85-1-1.71-.05,0-.12-.24-.12-.38a5.08,5.08,0,0,1,.56-2.79,1.59,1.59,0,0,0,.31-.83c.09-.88.33-1.2.71-1.1a1.85,1.85,0,0,0,.47.08c.29,0,.42-.25.53-.93a1.41,1.41,0,0,0,0-.93c-.09-.16-.22-.06-.38.31s-.29.46-.37.19a1.75,1.75,0,0,1-.07-.42c0-.81.25-1.29.61-1.38.65-.15.84-.84.55-2-.09-.35-.17-.61,0-.76a3.78,3.78,0,0,0,.66-2.22A1.58,1.58,0,0,1,180,72a4,4,0,0,0,.65-2.25c.09-.7.06-.91-.21-1.14-.07-.06-.18,0-.23-.06a5.22,5.22,0,0,1-.29-.58,4.62,4.62,0,0,1,.45-.44c.15-.1.35,0,.45-.2.32-.59-.08-.72-.09-1.12a7.86,7.86,0,0,1,0-1c.12-1,.28-2.09.39-3.13a3.19,3.19,0,0,0-.11-.87,2.27,2.27,0,0,1,.3-2.15,2.4,2.4,0,0,0,.21-2.16l-.12-.39.39-.7a2.47,2.47,0,0,0,.23-1.78c-.06-.26-.11-.52-.17-.78a11.25,11.25,0,0,1,.87-1.35c.43-.5.34-1.66.79-2.11s.34-1.2.47-1.84a2.4,2.4,0,0,0-.11-1.35c0-.13-.13-.29-.11-.39a3.7,3.7,0,0,0-.21-2.22l.44-.7a.83.83,0,0,0,.14-.35c0-.37-.15-.47-.31-.52-.48-.13-.94-.13-1.41.94-.07-.3-.14-.56-.2-.84-.11-.53-.38-.43-.61-.35s-.28.43-.33.79c-.26,1.91-.52,3.82-.82,6,.22.54.5,1.23.79,1.92-.33.51-.55.86-.76,1.2-.34.51-.67.52-.83,0a4.26,4.26,0,0,1-.24-2.69,3.17,3.17,0,0,0,0-1,6.84,6.84,0,0,0-.5-1.47c-.08-.15-.3,0-.46,0a.54.54,0,0,0-.21.33c-.14.88-.26,1.72-.83,1.56-.11,0-.29.28-.43.44.1.19.18.5.31.55s.42.15.45.7c-.36.57-.73,1.11-1.07,1.73a2.41,2.41,0,0,0-.21.94c0,.55.08.93.38.85s.28.13.35.46.23.8.36,1.22c-.09.66-.18,1.35-.27,2,.12.41.22.83.35,1.2a3.94,3.94,0,0,1,.21,2.23,4.51,4.51,0,0,1,.09,2.8c-.09.58-.28.88-.57.79s-1,.34-.81-1.45a3.81,3.81,0,0,0-.37-1.64c0-.1-.1-.23-.14-.2a1.07,1.07,0,0,0-.31.82,1.88,1.88,0,0,1-.48,1.23,1.31,1.31,0,0,0-.28.88c.2-.09.32,0,.35.42a2.35,2.35,0,0,1-.41,1.74.74.74,0,0,0-.2.73c.21.79.46,1.45.94,1.67.27.12-.05,1,0,1.35a18.58,18.58,0,0,0,.56,2,2.27,2.27,0,0,1-.3,1.75,2.72,2.72,0,0,0-.44,1.27c0,.34-.09.69-.13,1a1.18,1.18,0,0,1-.33.78S175,77.11,175,77c-.13-.33-.17-.8-.47-.84s-.45.41-.66.68l-.2.23c-.08-.26-.17-.52-.24-.78s-.46-.42-.62-.25a1.41,1.41,0,0,0-.31.83c-.23,1.9-.45,3.81-.74,5.69a4.08,4.08,0,0,0,.19,2.25,3.52,3.52,0,0,0,.23,2.21,3.93,3.93,0,0,0-.78,2.09c-.19,1.9-.47,3.79-.61,5.71a.45.45,0,0,1,.22.33,1,1,0,0,1,0,.33c-.14.37-.24.39-.33.16a1.23,1.23,0,0,1,0-.83s.14,0,.1,0c-.27-.17-.44-.08-.55.29a11.43,11.43,0,0,1-.37,1.36,4,4,0,0,0-.6,1.7c-.1,1-.26,2.08-.38,3l.37,1.2,6.68-.64-.84-.83c0-.77.18-1.13-.15-1.94a6.22,6.22,0,0,0-1.35-2.34c0-.68.1-1.35.14-2a2.81,2.81,0,0,0-.53-1.32c-.19-.21-.39-.39-.58-.58,0-.26,0-.53,0-.78,0-.86-.4-1.73-.86-1.76a1.11,1.11,0,0,1-.78-.34,4.19,4.19,0,0,1-1.23-1.87,3.93,3.93,0,0,1-1.17-1.84l-.42-1.16h-1.32c-1.73,0-3.47,0-5.07.06l-2.11,1h-1.34l.64.45L158,83.94a.65.65,0,0,1,.24-.86l.68-.23c.28-.1.28-.11.48-1,.11-.5.3-.51.85,0,.1.08.2.22.29.28a.1.1,0,0,0,.16,0,.67.67,0,0,0,0-.4c-.16-.5-.33-1-.53-1.48-.33-.79,0-1.1-.13-1.72a2.26,2.26,0,0,0-.65-1.25,1.89,1.89,0,0,1-.52-.65c-.33-.81-.61-1.64-.9-2.47a2.21,2.21,0,0,1-.09-.87,2.14,2.14,0,0,0-.71-2,3.06,3.06,0,0,1-.67-1.23,3.52,3.52,0,0,0-1.21-2c-.46-1.28-.94-2.59-1.38-3.9a1.06,1.06,0,0,1,.08-.7c.1-.15.29-.12.44-.19.57-.26.57-.3.09-1.64l-.28-.78L150,49l-4.83,11.5-.9,2.16a4.93,4.93,0,0,1-.37,2.19,4.78,4.78,0,0,1-1.28,1.77c-.68,1.66-1.35,3.27-2,4.81l0,1.33a2.88,2.88,0,0,0-.33,1.59L144,71.92a8.18,8.18,0,0,1-.89.44,6.94,6.94,0,0,1-1.59,1.1c-1.58.62-1.57.38-1.58.14s.29-.47.79-.5c.67,0,1.35,0,2-.11.38,0,.48-.22.36-.4.3,0,.61,0,.9,0l-3,2s0-.09.05-.13a1.23,1.23,0,0,1,.49-.77c.29-.15.6-.14.57.27-.09,1.11.41,1.13.85,1.26.12,0,.37-.18.54-.37s.39-.35.4-.07a1.65,1.65,0,0,1-.23.9l0,0,.39-.26a2.44,2.44,0,0,1-.44,0,5.87,5.87,0,0,0-2.14-.49c-.58-.08-1-.41.1-1.48,1.18-.81.81-.85.7-1a1.84,1.84,0,0,1-.17-.68c-.07-.48-.27-.58-1.14-.57l-2.6,0a3.49,3.49,0,0,1-2.24.52,2.32,2.32,0,0,0-1.37.24,3.2,3.2,0,0,1-1.34.29c-.74.07-.8.16-.8.5V74c-.67.41-2.13.19-2.57.74-.59.16-1.64,0-1.64-.28,0-.56,0-1.12,0-1.68,0-.13-.29-.26-.51-.37s-.72-.3-1.08-.45l-.4.19a2.34,2.34,0,0,1-1.33.31,4,4,0,0,1-1.89-.19c-.26-.16-.59-.24-.73-.15a4.25,4.25,0,0,1-2.3.45c-.87,0-1.75,0-2.63.06a1.87,1.87,0,0,0-.78.29,2.08,2.08,0,0,1-1.39.2c-.73-.15-1.18-.57-2.22-.41a4.42,4.42,0,0,0-2.73-.43c-.7,0-.86,0-.93-.39s-.2-.47-.74-.51a3.52,3.52,0,0,1-1.38-.2,2.16,2.16,0,0,0-.62-.22l-3.35-.52-1.55,4.67a1.21,1.21,0,0,0,0,.18c-.44,3-.88,5.91-1.27,8.87a7,7,0,0,0,.22,1.26,2.38,2.38,0,0,1-.26,1.39c-.14.24-.29.45-.45.7a4.09,4.09,0,0,1,.16,2.21,3.1,3.1,0,0,0,.07,1.82,2.32,2.32,0,0,1,0,1,4.38,4.38,0,0,0,0,2.36,2,2,0,0,1-.36,1.73c-.18.3-.34.56-.26.7a4.79,4.79,0,0,1,0,2.85,3.83,3.83,0,0,0,.16,2.29l-.63,1a3.31,3.31,0,0,1-.82,2.06l-.45.69a2.43,2.43,0,0,0-.14,1.79c0,.15.09.25.11.41a1.23,1.23,0,0,1-.06.36c-.39,1.14-.39,1.13-.19,1.91-.15,1-.27,2-.47,3a3.75,3.75,0,0,0,.16,2.23c-.24,1.59-.48,3.15-.72,4.71-.09.63-.29,1-.53,1l-1-.15c-.44-.07-.6.17-.74,1s-.25,1.74-.45,2.56c-.09.4-.42.52-.53,1a1.13,1.13,0,0,1,.11.34h9.28a12,12,0,0,1-.68-1.76,5.74,5.74,0,0,0-.68-1,.43.43,0,0,0-.48-.21c-.41,0-.74.18-.88,1a.33.33,0,0,1-.62.16l-.88-1.28a3.51,3.51,0,0,0,.16-1.84c-.21-1-.39-2.07-.55-3.11a4,4,0,0,0-.79-2.17.85.85,0,0,1,0-.35c.4-.76,0-1.85-.08-2.84a1.11,1.11,0,0,1,.18-.71c.26-.3.66.11.79.85s.28.92.55,1c.08,0,.15-.06.23,0,.46.2.7,1.07.53,1.9a2.32,2.32,0,0,0-.08,1.34,4.35,4.35,0,0,1,.1.52,4,4,0,0,1-.07,1.8,3.25,3.25,0,0,0,.21,1.41c.16.34.3.38.47.33a13.6,13.6,0,0,1,1.42-.25c.28-.05.42-.41.34-.89l-1.45-8.3a6.68,6.68,0,0,0-.26-.93c0-.15-.15-.22-.22-.35a2.32,2.32,0,0,1-.3-2.15,2.31,2.31,0,0,0-.26-1.78c-.15-.23-.3-.43-.44-.62-.3-1.8-.6-3.52-.84-4.93-.84-1.34-1.58-2.52-2.32-3.68a1.74,1.74,0,0,0-.1.94c.09,1.21.07,1.17-.33,1.29s-.78.1-1.18-.67c-.13-.27-.31-.44-.45-.69s-.32-.46-.38-.21a1,1,0,0,0-.06.42c.47,2.76.94,5.52,1.4,8.2-.06.21-.1.34-.13.48a1,1,0,0,0,.14,1.11,2.28,2.28,0,0,1,.35,2.14c-.1.52,0,.92.26,1s.47-.1.7.39a3.53,3.53,0,0,0-.23,1.18,3.52,3.52,0,0,1-.07,1.83,1.79,1.79,0,0,0,0,.94c.21,1.2.42,2.4.62,3.51.43.64.82,1.21,1.21,1.77-.18,1.37-.19,1.35-.83,2-.2.21-.14.49.09.74a1.66,1.66,0,0,1,.44.68c.16,1.06.39,1.56.92,1.45.25-.06.37.4.28.92l0,.15h-.68a2.23,2.23,0,0,0,.3-.62c.12-.5.12-1.09.27-1.54s.57-1,.69-1.6a8.57,8.57,0,0,1,.69-1.63,16,16,0,0,0,.38-2,1.73,1.73,0,0,1,.18-.39,1.83,1.83,0,0,1,.23-.34,1.55,1.55,0,0,0,.32-.84,2.35,2.35,0,0,0-.14-1.33,2.43,2.43,0,0,1,.3-1.78l.36-.68c-.15-.54-.29-1.08-.45-1.58,0-.1-.16,0-.23-.06C100.54,113.11,100.45,113.45,100.26,113.55Zm72.85-24.87a2.28,2.28,0,0,1,0-1.3,2,2,0,0,1,.15-.39.77.77,0,0,1,.2-.29c.24-.15.29,0,.16.51,0,.15,0,.33-.07.49.56-1.88.65-1.58.63-1.54a1.64,1.64,0,0,1-.29.58c-.23.18-.3,0-.14-.47a1,1,0,0,1,.34-.43C173.44,88.3,173.24,88.77,173.11,88.68ZM112.37,73.83a1.23,1.23,0,0,1-.48.29c-.44.11-.66,0-.44-.2a2.25,2.25,0,0,1,.62-.23c-1.3.46-1,.4-.65.45.06,0,0,.14,0,.22v.22c0,.39-.32.52-1.15.55a1.17,1.17,0,0,1-.81-.17s0-.12.07-.16l1-.5a8.32,8.32,0,0,1,1.47-.48C112.31,73.78,112.38,73.82,112.37,73.83Zm44.76,3.47a.68.68,0,0,1,0,.4.1.1,0,0,1-.16,0l-1.13-1.15c-.51-.51-.75-.43-.84.52-.05.48-.26.5-.48.57,0,0-.18-.12-.26-.23a.77.77,0,0,1-.15-.32c0-.57,0-1.12.05-1.54l2.11-.75c.05.16-.08,0-.16-.46a.55.55,0,0,1,0-.37,1,1,0,0,1,.31-.34c.12-.1.32,0,.47.3a1,1,0,0,1,0,.63c-.09.14-.27.12-.41.17A10.75,10.75,0,0,0,157.13,77.3ZM146.37,66.41c.19,0,.3.14.22.52a1,1,0,0,1-.46.61.86.86,0,0,0-.29.28,4.42,4.42,0,0,1-1.31,1.81c-.45.38-.45.42-.47-.2,0-.28,0-.55,0-.83A2.35,2.35,0,0,1,144.8,67l.9-.83A2.74,2.74,0,0,0,146.37,66.41Zm-41.21,14c.4,0,.55.35.43,1.15-.08.6-.26,1-.51,1s-.54-.35-.43-1.15C104.73,80.73,104.92,80.39,105.16,80.37Zm66.24,20.94c-.49.07-.68-.72-.39-1.63.11-.36.4-.57.65-.46s.31.48.23,1.08S171.63,101.28,171.4,101.31Zm-67.91-24.8c0-.21.08-.57.27-.63.51-.19.71.36.5,1.36a4.88,4.88,0,0,1-.37.85C103.75,77.55,103.61,77.05,103.49,76.51Zm-2.59,28.81a.69.69,0,0,1,.07.71c-.06.13-.16.3-.21.3a2,2,0,0,1-.92-.17c-.17-.09-.17-.47-.07-.69s.15-.3.21-.31a1.53,1.53,0,0,1,.47.07C100.6,105.25,100.78,105.2,100.9,105.32Zm56.46-21.55a.77.77,0,0,1,.12.33c0,.14,0,.36,0,.37s-.37.38-.69-.08a2.41,2.41,0,0,1-.46-1.84ZM103,96.94a1.09,1.09,0,0,1,0-.89c0-.15,0-.36.08-.49.14-.36.27-.48.36-.34a1,1,0,0,1,.11.38,5,5,0,0,1-.07.5C103.38,96.75,103.18,97.14,103,96.94Zm70.66-1.85a1.08,1.08,0,0,1,0-.89c0-.15,0-.36.07-.49.13-.36.27-.49.36-.35a1,1,0,0,1,.11.38,3.09,3.09,0,0,1-.06.5C174,94.89,173.84,95.29,173.7,95.09ZM179,64.33a4,4,0,0,1-.33.76,4.61,4.61,0,0,1-.12-.83,4.18,4.18,0,0,1,.19-.92c0-.14.15-.32.2-.31s.08.22.12.35A7.23,7.23,0,0,1,179,64.33Zm-69.81,8.73a1,1,0,0,1-.33.17c-.37-.09-.5-.2-.36-.31a3.84,3.84,0,0,1,.35-.17C109.15,72.85,109.28,73,109.14,73.06ZM97.52,119.68a.76.76,0,0,1-.27-.65c0-.14.07-.37.09-.35a.78.78,0,0,1,.28.64C97.59,119.45,97.55,119.69,97.52,119.68Zm55.16-57a.75.75,0,0,1-.38-.59c0-.14,0-.38,0-.36a.78.78,0,0,1,.39.59C152.71,62.44,152.71,62.7,152.68,62.68Zm22.79,24.84c-.13.36-.27.46-.35.31a1.12,1.12,0,0,1-.11-.35c.14-.36.27-.45.36-.32A1.43,1.43,0,0,1,175.47,87.52Zm4.7-23.24a.77.77,0,0,1,.08.7c-.06.13-.18.33-.2.31a.77.77,0,0,1-.07-.7A1.61,1.61,0,0,1,180.17,64.28Z"/><path class="cls-1" d="M184.94,46c-.18.2-.44.22-.56.51-.22.53.1,1.28.19,1.93a1.81,1.81,0,0,1,0,.91,2.17,2.17,0,0,0-.08,1.33c.12.49.18,1,.25,1.42l1.2,1.77a2.41,2.41,0,0,1,.22,1.38A4.13,4.13,0,0,0,186,57a4.22,4.22,0,0,1-.21,1.27l.62,1c-.07.25-.13.51-.2.78a.88.88,0,0,0,0,.37c.14.34.29.4.46.42s.37-.36.48-.74.27-.37.48.27c.41,1.28.41,1.28.94,1.2l.23,0-.09-.52a3.14,3.14,0,0,0-.64-1.7,2.76,2.76,0,0,1-.34-1.4c0-.37.13-.51.29-.53a4.41,4.41,0,0,0,.95-.17c.26-.11.48.19.69.56s.32.45.47.32.32-.06.47.26a1,1,0,0,1,0,.77c-.16.5-.28,1-.43,1.61.11.65.23,1.34.4,2.31-.23.75-.49,1.63-.76,2.5-.63,0-.69.76-.5,1.92a3.73,3.73,0,0,0,0,2.29,2.64,2.64,0,0,1,.07,1c-.1.58-.26,1.07-.4,1.6a6.57,6.57,0,0,1-.32,1.17c-.25.5.25,1.38,0,1.86a3.23,3.23,0,0,0,0,1.84,3.3,3.3,0,0,0,.68,1.69c.16.19.31.44.48.69a2.47,2.47,0,0,0,.69-.13c.17-.08.32,0,.47.28a.89.89,0,0,1,0,.76,1.76,1.76,0,0,0-.08.88c.06.49.33,1.17.51,1.15s.47-.09.71-.11.32-.16.3-.54a2.49,2.49,0,0,0-.35-1.38l-.46-.66c-.21-1.23-.42-2.44-.62-3.65-.16.16-.33.07-.47-.3a2.48,2.48,0,0,1-.21-1.39,3.83,3.83,0,0,0,.09-1.82c-.1-.53.13-.66.41-.22s.32.45.4.29a1.6,1.6,0,0,0,0-.93c-.12-.74,0-.94.21-1.06s.58.17.66.57c.2,1,.23,2.13.86,2.71a14.12,14.12,0,0,1,.62,3.48c-.39.74-.09,1.81.08,2.82.15.86.27,1.74.46,2.59a3.3,3.3,0,0,1-.16,1.76l.39.69c.07.12.15.22.23.34-.09.2-.15.5-.27.58-.34.22-.54-.06-.77-1-.17-.72-.31-.94-.57-.9s-.83,0-1.17.25-.3,1.34-.82,1.2c-.06,0-.15.49-.12.77.08.69.22,1.38.35,2.08.2,1.15.31,1.28.95,1.19s.71,0,.93,1.25c.18,1,.36,2.07.54,3.13a11.1,11.1,0,0,1-.46,2c-.21.81-.41,1.59-.62,2.38a.69.69,0,0,0,.24.72.91.91,0,0,1,.22.34c.28.93.49,2.09,1.12,1.63.31.45.62.9.94,1.38.36,2,.71,4.11,1.09,6.29-.29,1.09-.59,2.27-.85,3.27.27,1.61.51,3,.7,4.08l1,1.61c.06-.21.09-.35.13-.47.27-.94.39-1.06.94-.3.34.48.63.34.94.56a3.7,3.7,0,0,1,.39,1.38c-.14.53-.27,1.05-.43,1.67a18.42,18.42,0,0,0-1.84.34c-.1,0-.19.48-.15.74a9,9,0,0,0,.41,2,5,5,0,0,0,.91,1.37c.43.5.38,1.7.87,2.07a1.34,1.34,0,0,1,.2.29l8.23,12.8-3.73-12.93v0l.38-.71a2.39,2.39,0,0,0,.18-1.79,2.82,2.82,0,0,1-.16-1.34,25,25,0,0,0,.24-2.58c0-.4-.28-.59-.23-1.15.54-.46.51-1.86,1-2.46a.73.73,0,0,0,.2-.35c.17-1.48.68-3.07.08-4.33-.06-.13.14-.79.08-1-.24-.73-.32-1.87-.92-1.76-.15-.34-.29-.68-.44-1l-.39.57c-.32.47-.78.43-.81-.11A2.59,2.59,0,0,1,203,108c.34-.62.7-1.18,1.06-1.79,0-.15,0-.32.06-.49a22,22,0,0,0,.27-2.61c0-1.28.73-1.58.8-2.67a2,2,0,0,1,.08-.49c.42-.72.84-1.43,1.26-2.12s.77-1.59,1.32-1.35l.84-1.41c-.28-1-.79-.6-1.25-.47-.34.82-.73.89-1.13.72s-.46.23-.66.58l-.21.35a3.2,3.2,0,0,1-.17-.77c0-.82.19-1.14.64-1.26.08,0,.16.06.23,0,.93-.9.93-.91,1.36-.87l.47,0c.3,0,.45-.24.53-.91.14-1.22.29-2.44.39-3.67a.85.85,0,0,0-.25-.62c-.29-.16-.62-.14-.9-.31s-.18-.49-.25-1.23c-.18-.38,0-.64,0-.62a1.16,1.16,0,0,1,.23.5c0,.45-.08.66-.25.42s-.12-.4,0-.3a1.31,1.31,0,0,0,.65.41c.17.09.32,0,.44-.33a1.06,1.06,0,0,0-.1-.76c-.18-.49-.34-1-.52-1.6l1.64-2.75a1.55,1.55,0,0,0,.1-.36c-.31-1-.31-1,0-1.49l.88-1.47c.05-.43.11-.94.16-1.45a2,2,0,0,0,.05-.51v0l-3.64,3.26c.24-.09.57-.2.61-.32s0-.56.53-.6c.92,0,1.7,0,1.63-.63,0-.11.34-.23.52-.35a2,2,0,0,1,.5.38c.36.55.35.55,1.68.57a2.9,2.9,0,0,1,1.41.19,1.64,1.64,0,0,0,.72.22c.38,0,.42-.21.43-.39,0-.94.05-.93,1.8-1a7.77,7.77,0,0,0,1-.08c.38-.07.49-.22.37-.4-.4,0-.84,0-.87-.17-.09-.51-.72-.85-1.51-1.15a.82.82,0,0,0-.37-.06c-.37.07-.4.22-.43.39-.09.49-.29.53-1,.26-.14-.05-.25-.16-.38-.16-1.38,0-2.76-.07-4.14-.06a1.85,1.85,0,0,0-.79.26,4.12,4.12,0,0,1-1.38.22l-.26.07L208,76c.07.33.22.6.27,1a2.41,2.41,0,0,1-.1,1c-.39.67-.71,1.74-1.28,1.52a5.83,5.83,0,0,1-.64.89c-.14.14-.38.19-.45,0a4,4,0,0,1-.53-2.42c.06-.67-.07-.8-.4-.84a2.85,2.85,0,0,1-.7-.12c-.06,0-.11-.22-.12-.38a.79.79,0,0,1,.09-.35c.26-.53.6,0,.88-.6l1.16-2.57.95.68h0c.43.13.7.44,1.15.48a24.86,24.86,0,0,0,2.6,0c.73,0,.85,0,1.07.36.41.61.41.61,1.64.6h2.05c.53-.24,1-.46,1.51-.69a5.54,5.54,0,0,1,2.85-.21,5.14,5.14,0,0,0,2.17.51c.26,0,.51.55.27.64-.69.26-1.12.57-1.1,1-.49.23-1,.46-1.49.67a2.15,2.15,0,0,1-.52,0c0,.38-.2.8.73,1,.33.09.32.24.35.41.07.36.3.46.86.45a5.39,5.39,0,0,0,2.38-.26,2.24,2.24,0,0,1,2.14.08,2.34,2.34,0,0,0,1.78,0l.37-.17a2.41,2.41,0,0,1,1.79,0l.73.28c.13-.06.24-.12.38-.17a6.5,6.5,0,0,1,.74-.22,1.08,1.08,0,0,1,.36.16,4.65,4.65,0,0,0,2.38.24,2,2,0,0,0,.81-.23c.09,0,0-.15,0-.23-.17,0-.35,0-.52,0-.49,0-1,.09-1.43-.17s-1.11-.37-1.22-.73.29-.54.69-.54h2.63a1.22,1.22,0,0,1,.84.22s-.14.12-.25.16c-.64.2-.87.47-.74.82a.65.65,0,0,1,0,.24,2.15,2.15,0,0,0,.52,0c.52-.21,1-.44,1.59-.71a9.2,9.2,0,0,1,0-1.38c0-.11.43-.28.67-.29,1,0,2.08,0,3.11.05.13,0,.25.11.44.19-.75.23-1.17.52-1.17,1,0,.17-.57.34-.88.51.34.25,1,.1,1.37.21.83.27,1.52.61,2.27.93l1.14-.41A5.7,5.7,0,0,0,245,79a2.5,2.5,0,0,0,1.41,0c.32-.13.63-.27.92-.41l2.59-1.26-.05-.54c0-.08,0-.15,0-.22-.06-.52-.3-.54-.83-.1h0l-1.43,1.33-.24-.14c-.2-.12-.54-.24-.54-.36a4.49,4.49,0,0,1,.15-1.41c0-.1.18-.16.39-.19l-.17.12a2.35,2.35,0,0,1,.18-.45c-.13-.17-.3-.11-.51.21l-.06.1.56-.39a1.27,1.27,0,0,0-.34-.05h-2.08c-1.16,0-1.32-.1-1.31-.73s.23-.71.83-.71,1.39,0,2.08,0a3,3,0,0,0,.82-.07l-2,1.43a2,2,0,0,0,0-.55c-.06-.52-.1-1.07-.15-1.69.2-.58.43-1.22.66-1.87.13-.37-.07-.86-.3-.8A3.62,3.62,0,0,0,244,71.94a.53.53,0,0,1,.14.8c-.2.31-.37.36-.49.2l-.52,1.44,4.23-3h-1.18a3.13,3.13,0,0,1-2.11.49c-.68,0-1.38,0-2,0-1.12.48-1.12.48-1.75.48h-2.47l-2,.9-.72-.22a2.41,2.41,0,0,0-1.8-.07l-.74.34a4.63,4.63,0,0,0-2.71-.47h-.51c-.61.36-1.75.56-1.56,1.15,0,0-.17.15-.3.18a6,6,0,0,0-2.2.5,2.29,2.29,0,0,1-.95.06c-.28,0-.66-.15-.72-.27s0-.47,0-.71-.07-.4-.92-.43c-.58,0-1-.09-1.17-.33s0-.45.46-.63,1-.45,1.5-.67c0-.06,0-.13-.12-.17a5,5,0,0,0-2.59-.63c-3.84.06-7.68,0-11.39,0l-2.22,1-4.42,2,.49,1.5.31,1-1.18,2.08c-.06.55-.12,1.07-.18,1.59-.07.72-.07.89.31,1s.46.46.41,1.29c-.06,1,0,1.08.31.61l.42-.66c.17.51.34,1,.53,1.63,0,.44-.11,1-.16,1.46a2,2,0,0,0,0,.51,12.12,12.12,0,0,1,.32,1.22c.05.43-.18,1,0,1.43a3.71,3.71,0,0,1,.23.79,2.84,2.84,0,0,1-.34,1.35c-.41,0-.76.39-1.12,1-.26.44-.7-.15-.65-.75a24.8,24.8,0,0,0,.27-3.08c0-.4-.16-.52-.36-.42,0,.67-.23.88-.5,1-.61.3-.61.31-.7,1.07-.13,1.21-.27,2.42-.4,3.57.36,1.18.35,1.18.28,1.8l-.47,4.19a4.09,4.09,0,0,0,.14,2.32.91.91,0,0,1,0,.34c-.64.49-.5,2.37-1.18,2.83.11.39.22.78.33,1.15l-.58,1a3.5,3.5,0,0,1,.22,2.27,2.85,2.85,0,0,0,.06,1.4c.18.6.16.65-.11,1.1l-.88,1.46c-.13,1.15-.27,2.36-.4,3.57a2.67,2.67,0,0,0,0,1c.23,1.26.25,1.29.14,1.81a3.85,3.85,0,0,0,.22,2.17l-.55,1c.24.71.45,1.36.68,2.07a6.86,6.86,0,0,0-.53,1c-.12.34-.11.78-.23,1.17l7.1-.21a1,1,0,0,1,0-.25,3.23,3.23,0,0,0,0-1.82l-.17-1-.95-1.39-.36,1.14c-.44-.67-.88-1.37-1.33-2.06a2.12,2.12,0,0,1-.23-.35,2.25,2.25,0,0,1-.11-.48c-.13-.94-.41-1-.77-1.06s-.71-1.05-.54-1.86c.05-.25.1-.52.15-.78-.38-.56-.78-1.09-1.14-1.71a2.45,2.45,0,0,1-.25-.92,3.11,3.11,0,0,1,.47-1.9c.22-.28.61-.11.93-.1.06,0,.19.2.22.32.2,1,.34,2.07.58,3.08a3.76,3.76,0,0,1-.12,2.24l1,1.44a8.55,8.55,0,0,0,1.36-.26c.1,0,.2-.48.17-.72l-1-5.71a1.45,1.45,0,0,0-.36-.79.87.87,0,0,1-.29-.7,3.06,3.06,0,0,1,.1-.41,6,6,0,0,0-.38-2.82c-.13-.27-.4-.44-.44-.68a4.47,4.47,0,0,0-.88-2.07c-.06-.07-.07-.33-.2-.49a.38.38,0,0,1-.31-.24.86.86,0,0,1-.12-.31c0-.4.12-.44.27-.25a1.18,1.18,0,0,1,.25.78c0,.06-.13.07-.09,0,.3.08.46,0,.43-.45a17.31,17.31,0,0,0-.27-2,2.82,2.82,0,0,0-.39-.75c-.24-.42-.28-.47-.1-1.1a3.16,3.16,0,0,0-.07-1.43,2.9,2.9,0,0,0-.39-1.39,3,3,0,0,1-.64-1.72c0-.1-.16-.32-.22-.32-.51.07-1-.56-1.39-1.27a3.09,3.09,0,0,1-.3-1.39q.19-.8.42-1.56c.05-.19.63,0,.7.27s.13.68.24,1,.3.61.36.56.16-.49.06-.84a2.42,2.42,0,0,1,.08-1.34,2.37,2.37,0,0,0-.28-1.77l-.42-.66.24-1.15-.25-.37c-.37-.56-.72-1.23-1.17-1-.14.09-.42-.66-.45-1.25a3.09,3.09,0,0,1,.12-.75c.08.11.15.23.23.33a4.59,4.59,0,0,0,.46.56c.19.17.56-.22.54-.56a3.61,3.61,0,0,0-.16-1,7.23,7.23,0,0,0-.66-1.08c-.18-1-.35-2-.53-3.08-.3-1.73-.56-3.46-.91-5.17a4.23,4.23,0,0,1,.11-2.21,3.57,3.57,0,0,1-.76-1.59l-.78-4.66a4.1,4.1,0,0,0-.67-1.69c-.18-.31-.24-1-.42-1.33a14.8,14.8,0,0,0-.91-1.37l-1-1.4c-.23-1.31-.48-2.68-.68-4,0-.22.09-.62.21-.65.44-.13.89-.43,1.4.6a.31.31,0,0,0,.45.09c.11-.08.17-.38.24-.59l-.22-.33a2.7,2.7,0,0,1-.53-1.24c-.25-1.54-.54-3.08-.83-4.61a.61.61,0,0,0-.22-.33c-.08-.06-.16,0-.23,0-.45-.11-.58-.24-.57-.57s.13-.53.33-.46.32-.05.34-.41a1,1,0,0,0-.3-.71c-.28-.41-.27-.44-.13-1.1l.11-.4c-.14-.17-.3-.5-.41-.49-.46,0-1-.08-1.1,1.06,0,0-.14,0-.17,0-.41-1-1-.37-1.39-1.26-.16-.33-.3-.36-.47-.36-.5,0-.91.24-1,1.27l-1.18.2A1,1,0,0,1,184.94,46Zm13.4,62.57c-.06-.34-.1-.69-.18-1a.69.69,0,0,0-.22-.34c-.51-.27-.94.07-1.41.07-.21,0-.42-.43-.54-1a1.18,1.18,0,0,1,0-.89s.12,0,.18.08c.23.27.42.78.69.7s.47-.07.71-.12c.56-.13.56-.11,1.11,1.53a.55.55,0,0,0,.22.32c.05,0,.1-.18.11-.31a12.42,12.42,0,0,0-.24-2,3.77,3.77,0,0,1,.1-.83c.07.11.19.2.22.34a5.13,5.13,0,0,0,.86,2.06,2.18,2.18,0,0,1,.21,1,6.2,6.2,0,0,1-.37,1.59c-.12.28-.39.28-.46.32C198.68,110.06,198.58,109.91,198.34,108.53Zm5.4-10.31c-.15.24-.28.49-.43.7-.29.43-.59.33-.78-.24-.12-.38-.25-.77-.39-1.2.27-.44.52-.93.8-1.32a3.57,3.57,0,0,0,.53-1.73c0-.33.54-.65.65-.43a3.4,3.4,0,0,1,.56,2.3,2.27,2.27,0,0,0,.1.88c.19.68.17.71-.05,1.08s-.41.69-.62,1Zm-3.84,18.63c-.16,0-.28-.16-.32-.52a1.16,1.16,0,0,1,.15-.35,2.74,2.74,0,0,0,.49-1.22,2.25,2.25,0,0,0-.22-1.28,2.68,2.68,0,0,1,.06-1.43c.08-.36.27-.47.43-.44l.24,0,.23,0c.31,0,.5.3.47.73a2.78,2.78,0,0,1-.36,1.36c-.33.56-.31.61-.15,1.09s.23.81.38,1.15a.64.64,0,0,1,0,.75c-.06.09-.14.22-.21.22a5.51,5.51,0,0,1-.71-.06Zm-4.76-27.59c.17-.15.24-.63.38-.92s.26,0,.36.33a2.35,2.35,0,0,1,.09,1.38,6.58,6.58,0,0,0-.2.74c-.15.56-.15.55-.48.08-.22-.31-.45-.58-.65-.84C194.72,89.41,195,89.42,195.14,89.26Zm9.72,25a.89.89,0,0,1,.06.74c-.13.31-.27.37-.44.29a.7.7,0,0,0-.45-.06c-.18,0-.3,0-.36-.37a.89.89,0,0,1,.22-.71c.21-.29.4-.66.6-1C204.61,113.5,204.72,113.9,204.86,114.23ZM194.58,76.36a.09.09,0,0,1-.15,0,.56.56,0,0,1-.21-.31c-.08-.47-.29-1-.1-1.38s.51-.4.92.29Zm6.19,26.82a.77.77,0,0,1,.09.7c-.06.13-.18.34-.19.31a.77.77,0,0,1-.09-.7A2.4,2.4,0,0,1,200.77,103.18ZM187.7,51s.14.17.2.3a.76.76,0,0,1,0,.7s-.14-.19-.21-.3A.76.76,0,0,1,187.7,51Zm6,40.67a.74.74,0,0,1,.27.64c0,.15-.07.38-.09.36a.8.8,0,0,1-.28-.65C193.67,91.93,193.71,91.68,193.73,91.7Zm-1.33-3.54a1,1,0,0,1,.09-.36c.08-.15.22,0,.37.3a1.53,1.53,0,0,1-.09.36C192.68,88.59,192.55,88.5,192.4,88.16Z"/><path class="cls-1" d="M285.25,51.8l-1,1.36a1.26,1.26,0,0,1-.09-.36,13.38,13.38,0,0,1,.38-2.5c.21-1.23.28-1.29.95-1.18.07,0,.22,0,.22.05a1.17,1.17,0,0,1-.31.85c-.15.17-.28.44-.05-.1a13.23,13.23,0,0,0,.71-2.61l1.24-1.46c.28-1.51.5-2.72.72-3.93.11-.55.26-.75.61-.79s.82-.82.74-1.65c0-.15-.08-.25-.1-.4a2.25,2.25,0,0,1,.43-2.12l.23-.34a3.35,3.35,0,0,0,.9-2l.66-1c-.13-.63-.39-.79-.76-.38-.16.18-.31.53-.47.64a.37.37,0,0,1-.46,0,.6.6,0,0,1-.08-.68c.13-.27.37-.42.44-.69a1.82,1.82,0,0,0-.15-1.15c-.05-.23-.14-.54-.24-.52s-.3.41-.34.8c-.09.88-.51,1.07-.78,1.53s-.33.47-.46-.22-.6-.21-.69-.85.18-1.28,0-1.86-.11-.71.44-1c.08,0,.17.05.23,0l.94-1.32c.15-.2.35-.5.46-.47.61.16,1.29,0,1.83.49a.62.62,0,0,1,.08.37,1.32,1.32,0,0,1-.23.35c-.5.76-.54.91-.29,1.07s.4.32.67-.08a10.7,10.7,0,0,0,.69-1c.26-.5.28-1.35.67-1.7a.84.84,0,0,0,.22-.32,2.8,2.8,0,0,0-.09-.77,1.41,1.41,0,0,1-.06-.71L287.74,25c.05.23.07.48.1.72a3.31,3.31,0,0,1,.06,1.46,3.26,3.26,0,0,0-.23.78c-.09.62.26,1.52.58,1.5a1.56,1.56,0,0,0,.71-.11,1.12,1.12,0,0,0,.28-.62c.08-.4.16-.5.32-.23a2.14,2.14,0,0,1,.24.93,3.18,3.18,0,0,1-.35,1.63,4.35,4.35,0,0,0-.09,2.32c.16.94.17,1,.7,1.14.17,0,.41.09.44.41.14,1.39.55,1.63,1.07,1.69.18,0,.25.45.3.84s.1.73-.05.9-.29.12-.4.27a1.09,1.09,0,0,0-.25.57c.09.36.27.46.43.45.52,0,.88.71,1.18,1.6,0,.06,0,.35-.11.36-.39.09-.79.13-1.18.18a2.67,2.67,0,0,1,.06.5c-.22.76-.43,1.51-.65,2.26.42.79.77.3,1.15.35.21,0,.4.43.49,1a3.56,3.56,0,0,0,.39,1.29c.27.33.18.63.16.61a1.14,1.14,0,0,1-.35-.44c-.15-.42-.08-.65.14-.46s.22.36.05.29a2.75,2.75,0,0,0-1.46-.12c-.13-.21-.28-.43-.41-.68-.25-.47-.48-.3-.68-.16s-.16.5-.11.85l.15,1c.13.93.13.93.7,1.13.08,0,.16,0,.23.07a1.36,1.36,0,0,1,.32.83c.06.39.11.75,0,.92a5.18,5.18,0,0,1-.58.47.61.61,0,0,0-.11.38.58.58,0,0,0,.2.34c.23.12.48.07.69.31.37.44.28,1.26.41,1.9s.14,1,.21,1.51l-.6,2a.75.75,0,0,0,0,.36c.13.36.28.46.45.32s.32-.06.45.31a1,1,0,0,1-.09.75,1.46,1.46,0,0,0-.1.88c.12.87.22,1.74.37,2.59a1.5,1.5,0,0,0,.39.63c.06.08.15,0,.23,0l1.18-.07c.35,1.18,1,.45,1.35,1.31.14,1,.28,2.07.43,3.22-.1.32-.21.72-.35,1.07a4.15,4.15,0,0,0-.22,2.21c0,.13-.05.36-.11.38-.3.07-.62.1-.92.14-.14.42-.26.79-.38,1.17s-.16.5.18,1.08a2.37,2.37,0,0,1,.33.83,5.14,5.14,0,0,1-.07,2.8,1.84,1.84,0,0,0,.52,1.54c.08,0,.15,0,.23,0,.46.17.68,1.09.48,1.9l-.18.75c.19.34.37.68.56,1-.21.71-.41,1.36-.6,2a11.12,11.12,0,0,0,1.18,2.09l-.31,1.18a2.83,2.83,0,0,1-.1,1.81,1.84,1.84,0,0,0,0,.94l.45,3.11a2,2,0,0,1-.07.9,2.07,2.07,0,0,0,.26,2.11c.41.73.48,2,1,2.47a.72.72,0,0,1-.14.63c-.13.11-.3.08-.44.18a.66.66,0,0,0-.11.38.71.71,0,0,0,.16.34c.29.39.67-.11.9.64a18.88,18.88,0,0,1,.34,2.14l-.57,1.88a.89.89,0,0,0,0,.36c.14.35.29.47.45.38s.51.14.62.67.17,1.35.25,2c-.48.64.07,2.32-.39,3a3.08,3.08,0,0,0-.33,1.16,3.72,3.72,0,0,0,.12,1,.93.93,0,0,0,.2.37,4.06,4.06,0,0,1,.69,2.25.54.54,0,0,1,.5.64c0,.37-.15.49-.34.4l.16,1c.36.07.69.69.68,1.28,0,.77-.42,1.22-.14,2.24a1.07,1.07,0,0,1-.06.42c-.17.66-.38,1.28-.52,2a2.11,2.11,0,0,0,.17,1,5.13,5.13,0,0,1,.84,2.1.43.43,0,0,0,.45.4c.31,0,.6-.41.94.17s.6.8.93.64c0,0,.16.18.22.32s.05.15.08.21l1.5,4L305.5,130c0-.85.28-1.5.69-1.42s.77.22,1.15-.62c.13-.27.29-.17.46-.22.42-.1.45-.2.55-.88l.76-5.21c.14-.94-.09-1.06-.41-1.24s-.43-.46-.08-.87c.51-.59.48-2,1-2.45a.83.83,0,0,0,.17-.39l.53-4.12c0-.13-.05-.37-.11-.38a7.42,7.42,0,0,0-.92-.17l-.37-1.14c-.38.73-1,1.08-1.06,2.37a.59.59,0,0,1-.19.36c-.49.24-1,.4-1.24-.49-.08-.24-.17-.52-.3-.57a2,2,0,0,0-.94-.17c-.39,0-.47-.58-.65-1.19l-1.43,2.29a3.45,3.45,0,0,0-.12.46l-1.08,7.28a3.84,3.84,0,0,0,.18,1.8l-.59,1c-.18,1.16-.36,2.37-.54,3.58a1.67,1.67,0,0,0,0,.93,1.58,1.58,0,0,1,.16.68l7.27.11a5,5,0,0,1-.25-1.12c-.37-.58-.75-1.13-1.11-1.74a2.59,2.59,0,0,1-.25-1.39c0-.39.15-.48.34-.44a1.24,1.24,0,0,0,.47,0,10,10,0,0,1-.22-1.54,4.68,4.68,0,0,1,.26-1.16c-.24-.37-.47-.68-.68-1.07s-.28-.33-.46-.36c-.45-.06-.63-.38-.68-1.2a4.29,4.29,0,0,1,.12-.8c.08.12.15.24.23.34a2.64,2.64,0,0,0,.42.5,1.39,1.39,0,0,0,.1-.37,1,1,0,0,1,.49-.7c.39-.21.33-1.21-.07-1.92l-.4-.69c.16-.57.15-.58-.21-1.85a.92.92,0,0,1-.06-.35c.44-.67-.1-2.37.37-3a3.15,3.15,0,0,0-.3-1.37c-.2-.37-.49-.54-.53-1.21,0-.87-.53-1-.7-1.59a2.31,2.31,0,0,1,0-1.42,1.66,1.66,0,0,0,.16-.81c-.13-1-.31-2.05-.49-3.07a.75.75,0,0,0-.22-.34c-.07-.06-.15,0-.23,0-.45-.09-.63-.37-.68-1.2a4,4,0,0,1,.11-.84l.22.35c.14.19.36.58.41.51.22-.28.12-.87,0-1.36a3.47,3.47,0,0,1,.16-2.25,4.16,4.16,0,0,1-.8-2.1c-.14-1.38-.41-2.77-.55-4.11a3.88,3.88,0,0,1,.25-1.2,4.36,4.36,0,0,1-.43-.7,7.39,7.39,0,0,1-.38-2.45c.42-.72.17-1.79,0-2.81a1.29,1.29,0,0,1,0-.44c0-.15.08-.26.11-.4a2.36,2.36,0,0,0-.36-2.14c-.56-.85-.55-.89-.85.1-.11.39-.23.79-.37,1.25l-.67.09c-.31.06-.49-.08-.61-.65a5,5,0,0,0-.42-1.34,2.06,2.06,0,0,1-.27-2.11,4.74,4.74,0,0,0,0-1.41,1.77,1.77,0,0,1,.19-.63c.37.59.73,1.17,1.18,1.87l1.33-.18c.26,0,.32-1.14.07-1.67a8.18,8.18,0,0,0-.43-.7,2.28,2.28,0,0,1-.23-1.39,3.9,3.9,0,0,0,.18-1.78c-.15-.85-.24-1.73-.37-2.6a7.66,7.66,0,0,0-.21-1c-.33-1.41-.34-1.42-.19-1.86-.35-.57-.7-1.14-1-1.74s-.31-1.66-.79-2.1a2.41,2.41,0,0,1-.25-1.37c.31-1,.62-2.09.95-3.17L298.6,55c-.09-.65-.18-1.34-.28-2a4.32,4.32,0,0,1-.8-2.08c0-.13-.16-.35-.21-.33-.42.2-.77-.36-1.12-1-.12.41-.22.84-.36,1.18a3.08,3.08,0,0,0,0,1.42c0,.54-.18.6-.46.18s-.45-.61-.59-.8c-.21-1.49-.37-2.7-.54-3.92a1.38,1.38,0,0,1,.07-.9.41.41,0,0,1,.67.07c.15.22.29.46.46.74l1.16-.16c.32,0,.43-.17.39-.83a3.19,3.19,0,0,1,.07-1.37,4.07,4.07,0,0,0,0-1.9,3.22,3.22,0,0,0-.7-1.67c.1-.38.19-.76.29-1.14a8.35,8.35,0,0,0-.84-1.34c-.47-.48-.38-1.65-.8-2.11a1.07,1.07,0,0,1-.29-.71c0-.39.17-.45.35-.44a1.19,1.19,0,0,0,.93-.34,1.19,1.19,0,0,1,0-.6c0-.08.09-.18.13-.15a.59.59,0,0,1,.18.64c-.07.28-.16.43-.33.32s-.07-.31,0-.21c.12.92.25,1.62.3,2.31s.45,1.16.76.94a.87.87,0,0,0,.25-.63c-.16-1.38-.37-2.76-.55-4.09l.14-.45c.16-.63.16-.64-.09-1.12a2.27,2.27,0,0,1-.3-2.15,2.37,2.37,0,0,0-.13-1.79c-.29-.47-.6-.89-.87-1.4-.37-.72-.73-.85-1.15-.76s-.6-.16-.72-1l-.17-1.23L290.88,5.3,287.44,24l-.06.33a3.77,3.77,0,0,0,0,1.8,2.72,2.72,0,0,1-.2,1.41c-.14.37-.31.45-.47.34a.33.33,0,0,0-.24-.05c-.35.05-.6-.17-.68-.85s-.35-.45-.58-.39-.31.42-.38.76l-1.42,7.77a1.51,1.51,0,0,0,0,.43c0,.13.08.31.13.31.53,0,.65.51.39,1.59.17.81.35,1.62.53,2.42l-.48,2.6c-.12.66-.19.87-.58.84s-.64.54-.94.9c-.11-.35-.22-.71-.32-1.07l-.95,1.36a4.41,4.41,0,0,1,.08,2.21c-.25,1-.4,2.07-.59,3.1.24.89.35,2,1.07,1.81.2-.06.32.05.37.35a4.21,4.21,0,0,1,.22,2.17c-.14.68.27,1,.17,1.72-.06.45-.35,1.19-.52,1.15-.45-.11-1,.15-1.11-1a3.29,3.29,0,0,1-.57-.49,1,1,0,0,1,0-.9c-.16-.16-.36-.09-.46.29a37.76,37.76,0,0,0-1,5.5.56.56,0,0,0,.1.37c.15.07.33.22.46.07a20,20,0,0,1,1.35-1.75c.13.53.28,1,.39,1.58a1.76,1.76,0,0,1-.08.5c.21,0,.45,0,.63.14s.28.52.12,1.07c.08,0,.17.11.23,0,.24-.28.47-.65.7-.92s.23-.07.65.91c.05.1.08.29.14.28.38,0,.52.42.63,1,0,.24.2.12.39-.23s.45-.45.7-.43c.82.08.83.06,1.11-1.44a3.47,3.47,0,0,1,.66-1.68c.42-.72.45-1.62,0-1.89s-.49-.45-.11-1.05a2.84,2.84,0,0,0,.49-1.29,3.86,3.86,0,0,1,.81-2.14c.09-.12.06-.64-.1-.65-.51,0-.66-.47-.4-1.57-.11-.54-.2-1.11-.35-1.6s-.37-.35-.62-.16a1.2,1.2,0,0,0-.33.85,2.06,2.06,0,0,0,0,1.07c.49.11.66.44.58.73s-.45.48-.66.32a.43.43,0,0,1-.14-.23,1.12,1.12,0,0,1-.08-.38c0-.49.11-.63.31-.44s.14,0,0,0c-.41,0-.55-.08-.54-.46s.08-1,.08-1.4-.12-.51-.69.33A3.6,3.6,0,0,0,285.25,51.8Zm14.11,31.3a1.18,1.18,0,0,1-.35-.43c-.15-.42-.08-.65.14-.47a1.64,1.64,0,0,1,.3.58c-1.73,1.17-2,.77-2.29.25a2.07,2.07,0,0,1-.16-1,13.82,13.82,0,0,1,.41-1.57c.08-.28.47-.38.61-.16a11.38,11.38,0,0,1,.85,1.37c.19.41.1.66-.16.52l-.68,2.2a13.86,13.86,0,0,1,1.21-1.27C299.4,83,299.37,83.11,299.36,83.1ZM302,108.37l-1,.13-.91-1.39c.23-.69.22-1.78.82-1.8.27,0,.28-.41.18-1.12-.08-.51-.15-1-.21-1.54,0-.13.07-.39.11-.37a3.6,3.6,0,0,1,1.09,2c.34,1.87.33,1.87,1.22,1.75a5.75,5.75,0,0,0,.94-.14c.18-.06.31,0,.47.28a3.13,3.13,0,0,1,.21,1.41c0,.14-.06.34-.12.36a3.93,3.93,0,0,1-.7.11c-.35,0-.47.64-.26,1.41.08.27.3.7.37.67.57-.29.94.82,1.36,1.42a2.65,2.65,0,0,1,.17,1,1.88,1.88,0,0,1-.19.79,1.74,1.74,0,0,0,0,.92c.11.73,0,1-.2,1.09s-.6-.1-.65-.51a3.37,3.37,0,0,0-.64-1.71,1.71,1.71,0,0,1-.27-.9c-.06-.51-.15-1-.19-1.26C303,110,302.48,109.17,302,108.37Zm1.77,16.26c-.16.56-.16.56-.49.05l-.63-1c-.16-1.05-.32-2.07-.48-3.08a.6.6,0,0,1,.11-.37c.38-.42.88-.23,1.33-.35.23-.06.44.32.53.93s.16,1,.25,1.62C304.2,123.13,304,123.88,303.77,124.63Zm-12-98.31a.81.81,0,0,1,.1-.39.1.1,0,0,1,.16,0c.55.6.58.64.7.13s.18-.53.32-.14a3,3,0,0,1,.23.93,5.17,5.17,0,0,1-.48,2,3.75,3.75,0,0,0,0,1.42c0,.38-.09.6-.22.55a.54.54,0,0,1-.21-.33l-.29-2.08h0Zm10.73,74.29a3.68,3.68,0,0,1,.11-.82l.22.33a6.85,6.85,0,0,0,.43.66.83.83,0,0,1,.24.7c-.05.32-.17.45-.36.37C302.84,101.92,302.59,101.46,302.54,100.61Zm-1.72-5.09c-.05-.5.09-.77.34-.86s.31,0,.45.29a.79.79,0,0,1,0,.73,1.79,1.79,0,0,0-.11.37c-.07.26-.13.51-.2.76A2.17,2.17,0,0,1,300.82,95.52ZM296.46,53.3a.56.56,0,0,1,.11-.37,1,1,0,0,1,.4-.22c.07,0,.15,0,.22.13a.63.63,0,0,1,.2.33.69.69,0,0,1-.1.37,1.18,1.18,0,0,1-.17.2A.55.55,0,0,1,296.46,53.3Zm7,51.53c-.14.2-.35-.21-.45-.85a3.16,3.16,0,0,1-.07-.5.81.81,0,0,1,.11-.38c.09-.14.23,0,.36.35a2.38,2.38,0,0,1,.08.5A1,1,0,0,1,303.48,104.83Zm1.44,21.75c0,.37-.22.67-.51.62-.08,0-.17,0-.22,0a.74.74,0,0,1-.11-.37.75.75,0,0,1,.27-.65c.07,0,.15,0,.23,0S304.89,126.21,304.92,126.58ZM293.24,39.19a1.2,1.2,0,0,1-.2-.31c0-.38.14-.52.26-.39a2.22,2.22,0,0,1,.21.32C293.45,39.17,293.36,39.32,293.24,39.19Zm-1.7-6a.73.73,0,0,1-.25-.66c0-.14.08-.37.1-.35a.77.77,0,0,1,.26.65A2,2,0,0,1,291.54,33.21Zm8.62,70.47c0-.14.08-.37.1-.35a.77.77,0,0,1,.26.65,2,2,0,0,1-.11.37A.84.84,0,0,1,300.16,103.68Z"/><path class="cls-1" d="M80,24.86a1.23,1.23,0,0,1-.12-.41l-.71-5.06,2.54,5a2.65,2.65,0,0,1,.24.93c0,.54-.09.78-.36.85s-.37.37-.26.95c.19,1,.41,2.07.58,3.11a3.48,3.48,0,0,0,.79,1.59,4,4,0,0,0-.07,2.21c.32,1.35.54,2.74.82,4.12a.53.53,0,0,0,.23.32c.16.07.31,0,.47.08s.39.44.31.94a1.77,1.77,0,0,0,0,.75c.11.39.3.46.46.32s.32-.06.47.29a.91.91,0,0,1,0,.36c0,.28-.12.53-.19.8a3.42,3.42,0,0,0-.11,2.2c-.08.4-.17.79-.25,1.2a3.59,3.59,0,0,1,.89,2.08c.06.51.18,1,.29,1.55a1.64,1.64,0,0,1,0,.89,1.8,1.8,0,0,0-.11.83c.29,1.28.25,2.83,1.11,3.72a1.08,1.08,0,0,1,0,.35c0,.15-.07.26-.09.4a2.37,2.37,0,0,0,.48,2.12,2.19,2.19,0,0,1,.36,1.75,3.47,3.47,0,0,0,0,1.84c0,.11-.07.25-.09.39a2.15,2.15,0,0,0-.11.76c.1.37.3.43.46.39.39-.09.79-.15,1.18-.2.17,0,.5.71.51,1.18a5.76,5.76,0,0,1-.07.86,2.88,2.88,0,0,0-.09.4c0,.24.13.42.32.71a2.26,2.26,0,0,1,.42,1.74c-.16.66-.32,1.31-.49,2a13.52,13.52,0,0,0-.51,2.4c.25,1.39.51,2.77.77,4.15.13.67.29,1.33.43,2a1.53,1.53,0,0,1,.33,1.84,1.22,1.22,0,0,0,0,.48,4.75,4.75,0,0,1,0,2.79,3,3,0,0,0,.38,1.37c.13.08.22,0,.27-.41,0-.15,0-.37.1-.38.77-.2,1.54-.37,2.32-.53.06,0,.16.08.23.19.34.6.85.87,1,1.94a4.24,4.24,0,0,0,.8,2.18,2.14,2.14,0,0,1,.24,1.38c-.14.51-.28,1-.45,1.47s-.66-.21-.81-.86l-.1-.58-2.38-3.34-.4.06a.51.51,0,0,1-.24,0c-.2-.07-.32.05-.34.43a2.54,2.54,0,0,0,.27,1.38c.28.45.67.77.36,1.46a1.24,1.24,0,0,0,0,.9,4.45,4.45,0,0,1,0,2.76c.16.87.31,1.73.46,2.6.11.63.31,1,.56,1,.49,0,1-.07,1.08-1.16,0-.27.48-.16.67.1s.31.44.47.68c.31,0,.62-.12.94-.15.53-.06.53-.06.49-1.44,0-.54.08-.82.36-.87s.39-.38.29-.93l-1.1-6.22a3.61,3.61,0,0,0-.77-1.61,4.57,4.57,0,0,0,.09-2.2c-.49-2.4-.9-4.83-1.35-7.24l-.65-1c.08-.37.15-.74.22-1.1-.35-.51-.66-1-1-1.4s-.32-.47-.24-.72.07-.27.14-.29c.23-.07.47-.08.7-.14s.36-.35.24-1l-1.87-9.87-1.36-2c-.1-.54-.2-1.06-.3-1.58-.12-.68-.06-.94.23-1s.5,0,.7-.15a1,1,0,0,0,.17-.7l-1.08-5.69a1.53,1.53,0,0,0-.38-.81A2.44,2.44,0,0,1,89.28,46a4.16,4.16,0,0,1-.11-1.9,2,2,0,0,0,.07-.85q-.52-2.85-1.09-5.69a1.84,1.84,0,0,0-.39-.59c-.16.65-.32,1.31-.49,2,0,.11-.11.13-.16.21s-.62-.13-.7-.49l-.41-2c-.58-.42-.7-1.7-1.15-2.39a2.47,2.47,0,0,1-.4-.75c-.31-1.71-.74-3.4-.9-5.12,0-.14,0-.35.1-.36a7.62,7.62,0,0,1,.93-.18l.72,1a2.37,2.37,0,0,1,.41,1.75c-.06.27-.13.52-.2.81.16.84.33,1.7.49,2.56.12.62.34,1,.57,1a3.85,3.85,0,0,0,.47-.08c.45-.09.54-.35.38-1.19s-.33-1.71-.49-2.53c-.18-.26-.34-.48-.49-.72a1.44,1.44,0,0,1-.15-.33,4,4,0,0,0,0-2.29c-.27-1.19-.46-2.41-.71-3.61a1.3,1.3,0,0,0-.15-.41L70.82-.47l5.23,24.36a3.49,3.49,0,0,1,.21.83,15.88,15.88,0,0,1-.17,2c-.07.7-.2,1.4-.25,2.09a2.61,2.61,0,0,0,.16.84c.27,1,.27,1,.87,1.12.24.06.46.09.56.59s.28.66.54.66c.06,0,.13.11.17.21a.75.75,0,0,1,.09.37c0,.15-.14.33-.21.34-.46.07-1,.35-1.23-.66-.12-.49-.29-.37-.46.24-.36,1.32-.36,1.32-.89,1.25l-.23,0-1.4,10.85a1.16,1.16,0,0,0,.06.42c.08.27.19.16.37-.18.27-.49.57-.92.85-1.37.15-.22.53-.12.63.16s.24.77.35,1.17a2.39,2.39,0,0,1-.32,1.75l-.65,1a1.22,1.22,0,0,0-.46-.06c-.35,0-.6-.17-.72-.84s-.37-.46-.59-.38-.29.42-.23.68a2.59,2.59,0,0,1,.22,1.26l-.62,4.65a1.82,1.82,0,0,0,.16.82,4.29,4.29,0,0,1,0,1.39,6.67,6.67,0,0,0,.28,1.21,3.61,3.61,0,0,1-.31,1.38c-.19.36-.49.54-.51,1.2.54.08,1.08.13,1.6.26.09,0,.12.41.16.64a.64.64,0,0,1-.2.31,1.7,1.7,0,0,1-.45,0c-.23,0-.43-.2-.68.14s-.22.91-.35,1.35c0,.13-.18.34-.2.31a1.57,1.57,0,0,1-.22-.52,2.58,2.58,0,0,1,.06-.5l.28-2c-.16-.15-.38-.07-.44.31-.81,4.47-1.31,9-2,13.49a1.91,1.91,0,0,0,.14.83,4.09,4.09,0,0,1,0,1.4,6.88,6.88,0,0,0,.27,1.23A3.56,3.56,0,0,1,70,77.55l-.43.69c-.21,1.4-.42,2.78-.64,4.18a3.34,3.34,0,0,1,.14,2.24,3.12,3.12,0,0,0-.08.52,3.9,3.9,0,0,1-.74,2.21,5.7,5.7,0,0,0-.31,2.85,2.17,2.17,0,0,1-.36,2.12l-.28.43q-.77,4.72-1.55,9.57l6.91-.68c-.46-1.37-.92-2.78-1.39-4.18a3.77,3.77,0,0,0-1-1.46q-.81-2.46-1.65-5a5.53,5.53,0,0,0,.07-1.24,9.86,9.86,0,0,0-.48-1.49L68,87.85c-.37-.39-.73-.81-1.1-1.18a2.57,2.57,0,0,1-.61-1l-.7-1.92-2.08,0H63.3c-.7,0-1.41,0-2.11,0-.49,0-.77-.19-.83-.5s-.34-.49-.84-.5c-1.41,0-2.81-.09-4.21-.08a2.25,2.25,0,0,1-.4,0l3.82,2.61a4.35,4.35,0,0,1,0-1.43l-.82-.9c-.7-1.92-1.46-3.89-2.13-5.88a4.16,4.16,0,0,0-1.23-1.87c-1-2.65-1.93-5.28-2.86-7.82l-.81-1c.23-1.74-1-3.48-1.46-5.23a4.84,4.84,0,0,0-.18-.49,1.62,1.62,0,0,0-.23-.4,2.63,2.63,0,0,1-.49-.56l-6.27-9.15-1,9.27A20.27,20.27,0,0,1,40,63.22a18,18,0,0,1-.74,2A3.34,3.34,0,0,0,39.09,67c-.65,1.71-1.33,3.51-2,5.31a2.78,2.78,0,0,0-.17,1.33,2.43,2.43,0,0,1-.61,1.69l-.55.59,0,.08,3.38-2.39-7.26-.1a3.79,3.79,0,0,1-1.72.46c-2.11,0-4.22,0-6.32-.07a1.7,1.7,0,0,0-.87.2,2.08,2.08,0,0,1-.81.25c-.69,0-1.4,0-2.1,0-.88,0-1.79-.07-2.63,0-.6.06-1.08.35-1.69.44a7.46,7.46,0,0,1-1.57,0,4.09,4.09,0,0,0-2.26.43,5.52,5.52,0,0,1-1,0,1.45,1.45,0,0,0-.4.13c-.07,0-.13.13-.09.17a.57.57,0,0,0,.36.16,3.48,3.48,0,0,1,1.81.34c.56.29,1.72.09,2.17.52.16.15.46.09.74-.09a2.38,2.38,0,0,1,1.34-.26,3.75,3.75,0,0,1,1.88.26.74.74,0,0,0,.74.13l1.88-.84,7.36.06c1.4,0,2.82,0,4.21.07A4.23,4.23,0,0,0,35,75.51l4.07.06-1.57,1.11,1.16-3.11c.83-.87.83-.87,1-1.45l1.85-4.94a1.49,1.49,0,0,1,.51-.72.93.93,0,0,0,.43-.64c0-.36-.05-.51-.26-.47s-.33-.12-.23-.5a2.42,2.42,0,0,1,.45-.62c.1-.11.23-.17.29-.3.27-.63.49-1.3.77-1.92a3.7,3.7,0,0,0,.37-1.31l.17-2.33,1.69,2.3a3.26,3.26,0,0,0,.63.65,3.86,3.86,0,0,0,.31,2.25c.61,1.64,1.21,3.28,1.79,4.87l.33.34a2.33,2.33,0,0,1,.8,2,2.31,2.31,0,0,0,.75,2,3,3,0,0,1,.49.71,4.74,4.74,0,0,1,.56,2.77,2,2,0,0,0,.31.92c.53.59,1.07,1.46,1.6,1.23.25-.1.45.27.7.92a5.07,5.07,0,0,1,.48,2.32c-.05.6.44,1.6.25,2.22,0,.14.17.37.41.63a2.15,2.15,0,0,1,.7,1.74l-1-.67.28.12.4.19a3.7,3.7,0,0,1,1.11-.42,9.05,9.05,0,0,1,2.08,0,4,4,0,0,1,1.12.48l2.14,0a3.49,3.49,0,0,0,1.48-.24l.13,0,.64.58a1.45,1.45,0,0,1,.2.24A2.53,2.53,0,0,1,65,88a6.74,6.74,0,0,0,.32,2.29c.06.16.1.34.17.5a4.38,4.38,0,0,1,.32,2.3,2.09,2.09,0,0,0,.49,1.3c.1.11.19.19.28.3a2.4,2.4,0,0,1,.61,1.69c0,.14,0,.27,0,.41-.05.64,0,.65.49.76.17,0,.35-.06.49.1.44.52.07.73.12,1.12a9.87,9.87,0,0,1,.25,2.27,5.53,5.53,0,0,0,.55,2l.38,1,.13-1c0-.17,0-.34.07-.49a4.53,4.53,0,0,0,0-2.8,5.22,5.22,0,0,1,.95-3.15c.28-1.7.57-3.42.81-5.15a.75.75,0,0,0-.24-.61c-.23-.09-.44-.15-.5-.66l1.12-1.71a2.41,2.41,0,0,0,.15-1.8,2.34,2.34,0,0,1-.1-.4.84.84,0,0,1,.07-.35c.15-.25.3-.46.45-.69-.07-.4-.15-.79-.24-1.29.09-.57.19-1.26.3-1.95.32-2.08.6-4.17,1-6.24a4.22,4.22,0,0,0-.16-2.23A3.32,3.32,0,0,0,74,71.27c0-.17,0-.35.08-.52.07-.36.06-.73-.09-.86s-.42-.32-.67.12c-.14.25-.3.46-.45.69-.63-.09-1.26-.17-1.89-.29-.06,0-.1-.23-.11-.38s.11-.59.29-.62a3.46,3.46,0,0,1,.92.11l1.84-2.86c.11.32.23.65.37,1a6.3,6.3,0,0,0,.82-1.32,12.71,12.71,0,0,0,.37-2c0-.17,0-.35.08-.52a3,3,0,0,0-.2-1.75c0-.12.09-.26.14-.35.49-.86.51-1,.16-1.29a2.52,2.52,0,0,1-.77-1.83.62.62,0,0,1,.21-.32c.68-.25.68-.24.91-.63l.44-.69a2.94,2.94,0,0,0,.15-1.42c-.27-1.6-.27-1.6.5-2.88.28-2.08.55-4.17.84-6.29a3.66,3.66,0,0,1-.2-2.22,4.11,4.11,0,0,1,.6-1.7.63.63,0,0,0,0-.74c-.13-.14-.32,0-.45-.15s-.2-.61-.1-.68c.65-.5.54-2.37,1.21-2.8l-.18-.77A2.45,2.45,0,0,1,79,35.55l.39-.69c.13-1.07.27-2.1.38-3-.1-.49-.17-.89-.25-1.29.54-.45.54-1.83,1-2.42a.74.74,0,0,0,.21-.73c-.2-.66-.41-1.3-.6-2a1.7,1.7,0,0,1,.06-.51C80.12,24.89,80,25,80,24.86Zm7.17,22.65c-.06-.34-.07-.71.07-.82s.4-.33.66.11.6.76.93.65c.08,0,.31.37.39.64a2.53,2.53,0,0,1,.13.94c-.19.93-.41,1.82-.67,2.66-.06.18-.3.18-.45.07a1.56,1.56,0,0,1-.37-.73c-.16-.66-.27-1.34-.4-2Zm-9.75-4.39c-.14.36-.28.46-.36.31a1.05,1.05,0,0,1-.11-.35c.14-.35.27-.45.36-.32A2.42,2.42,0,0,1,77.38,43.12Z"/><path class="cls-1" d="M277.79,97.14a1.3,1.3,0,0,1,.07-.62.73.73,0,0,1,.25.27c.25.61.5,1.22.69,1.84a1.45,1.45,0,0,1,0,.77c-.12.3-.27.13-.38-.37,0-.15-.11-.32,0,0,.24.87.41,1.2.62,1.24a1.37,1.37,0,0,0,.7-.07c.43-.13.46-.44.18-1.25-.53-1.48-1.05-3-1.55-4.35a4.59,4.59,0,0,1-.85-1,4.79,4.79,0,0,1-.61-2.78,2.37,2.37,0,0,0-.43-1.33L275.09,88a2.52,2.52,0,0,1,0-.37c0-.28.13-.65.06-.8-.25-.48-.48-.36-.73-.38-.49,0-.51-.12-.47-.78v-.25l.07-.9-3.65-1.63a1.87,1.87,0,0,0-1.07-.2,1.11,1.11,0,0,1-.86-.21c-.2-.2.12-.5-.38-.64s-.7.23-1.11.28c-1.18.13-2.39.26-3.22-.34a9.5,9.5,0,0,0-2,.8l3.92,2.86-.19-.21a3.35,3.35,0,0,0-.19-2.22c-.13-.31-.23-.65-.34-1a10.74,10.74,0,0,0-1.1-1.19c-.52-.41-.65-1.42-1.13-2a2,2,0,0,1-.62-2,4.32,4.32,0,0,0-.23-1.4c-.12-.53.05-.64.39-.29s.42.42.48-.15c0-.38.07-.78.1-1.16l-.3-.34c-.39-.46-.4-.46-.37-1.05a2.23,2.23,0,0,0-.68-2,2,2,0,0,1-.46-.76c-.24-.83-.51-1.06-.9-1s-.45-.09-.68-.78l-.16-.5c-.41-1.21-.41-1.21.05-1.75.18-.23.29-.51,0-1.12-.08,0-.16.13-.23,0-.44-.51-.88-1-1.27-.74,0,0-.18-.16-.26-.29-.47-.77-.5-1.6-.08-1.76a3.11,3.11,0,0,0,.65-.28c.05,0,.06-.24,0-.39a.91.91,0,0,0-.17-.32,3.3,3.3,0,0,1-.87-1.56,5.78,5.78,0,0,0-.26-.74l-4.71-11.15-2.84,11a2.64,2.64,0,0,0-.09,1.07c.08.57,0,.68-.46.8-.72.18-.72.18-1.1,1.29-.23.66-.47,1.31-.73,2.06-.15.14-.34.3-.52.5a2.31,2.31,0,0,0-.57,1.68,2.34,2.34,0,0,1-.15,1.31c-.16.34-.24.77-.09.85.36.21.54.64.55,1.38,0,.24.46.2.68,0l.61-.64a13.4,13.4,0,0,0,.16,2c.16.66-.27,1.55-.26,2.21s.11,1.34.15,2a2.23,2.23,0,0,1-.16.48c.13.18.35.14.49-.21A5.93,5.93,0,0,1,249.32,73c.32-.31.49.1.72-.13.48-.5.9-.82,1.29-.69,0,0,.18-.18.27-.27s0-.58-.09-.64c-.4-.24-.85-.38-1.26-.6-.06,0-.08-.26,0-.38.23-.65.45-1.29.73-2.07l1.57-1.67a2.32,2.32,0,0,0,.18-.48c-.21.06-.34-.1-.25-.49a14,14,0,0,1,.43-1.45c.32-.93.54-1.17.91-1a2.51,2.51,0,0,0,.46.16c.17,0,.2.25.24.53.12.81.2.83.42.3a2.64,2.64,0,0,0,.35-1.39c0-.24,0-.54-.06-.82l.46-1.3-5.14-.08,1.16,3.63a11,11,0,0,1,.81,1c.15.23.22.66.36.93.22.43.35.41.37,0a2.23,2.23,0,0,1,.1-.79c.09-.16.28-.16.44-.17s.36.45.33,1.06a2,2,0,0,1-.58,1.4c-.21.25-.18,1-.26,1.51l1.43,1.58a3,3,0,0,1,.47,1.34c-.12,1-.23,1.89-.34,2.84a2.53,2.53,0,0,0,.78,2l.28.33c.32,1,.64,2,1,3a.64.64,0,0,0,.27.29c.05,0,.11-.05.13-.13.22-.9.19-1,.52-1,.48,0,.61-.56.63-1.34.46.56.86.91,1.29.81.24,0,.44.71.62,1.19s.41.52.5.06c.17-.88.35-1,.93-.33.25.28.51.59.76.89-.08.71-.17,1.39-.25,2.06.08.32.13.65.23,1l.79,2.48-1.53-1.11h1.61a2.66,2.66,0,0,1,.74.24l-.37.17c-.37.17-.75.32-.66.6a1,1,0,0,1,0,.48c0,.3-.28.43-1,.41h-.58l-.07-.21a4.06,4.06,0,0,0-1.18-2.09c-.27-.84-.54-1.68-.8-2.51-.08,0-.18.12-.23.06-.58-.85-1-.91-1.47-.63a.88.88,0,0,1-.23.07c-.06.54-.12,1.07-.2,1.73l.89,2.79c.13.41.44.66.71.57a1.46,1.46,0,0,0,.82-.51,1.2,1.2,0,0,1-.05-.59c0-.08.06-.19.1-.17a.57.57,0,0,1,.29.6c0,.28-.08.45-.27.37,0,0-.11-.29-.07-.21a1.84,1.84,0,0,1,.23,1l-.09.38,1.84.9a.27.27,0,0,1,.12.09,3,3,0,0,0,1.48,1.15,2.28,2.28,0,0,0,1.79-.11c.32-.13.52-.23.75-.17a1.15,1.15,0,0,1,.37.17,3.78,3.78,0,0,0,1.9.22,3,3,0,0,0,.94-.11,4.55,4.55,0,0,0,1.27-.67l-2.28-1.6.05,0c.25.12.46-.11.76.32.42.6.67.19,1,.42a.54.54,0,0,1,.22.72,3.7,3.7,0,0,0,.28,1.8c.07.28-.28.74-.46.61a6.57,6.57,0,0,1-.55-.52c-.09-.09-.19-.2-.29-.29a4.06,4.06,0,0,0,.06.86c.39,1.16.8,2.32,1.23,3.46a2.05,2.05,0,0,0,.51.67,1.61,1.61,0,0,1,.49.75,4.62,4.62,0,0,0,1.35,2.44,3.08,3.08,0,0,1,.36,1.36c0,.28-.06.53-.09.77l1,2.74,2.79,7.89,1.51-8.24.34-1.84c-.23,0-.49,0-.69-.16s-.15-.48,0-.7.16-.29.22-.29a4.08,4.08,0,0,1,.7.11c.13-.39.15-.78,0-.89a2.59,2.59,0,0,0-.87-.34c-.2,0-.35.28-.55,1s-.28.88-.58.91-.3-.08-.37-.33a2.59,2.59,0,0,1,.18-1.4,5,5,0,0,0,.93-2.64c.09-.54.29-.79.6-.73s.35.07.47-.3a5.75,5.75,0,0,1,.89-2.06c.08-.08,0-.59-.13-.63a6.63,6.63,0,0,0-1.41-.17c-.06,0-.17.18-.22.32a1,1,0,0,0,0,.37l.21.85-.7,1a.75.75,0,0,1-1.31,0,1.1,1.1,0,0,1,0-.35,4.68,4.68,0,0,0,.93-2.64c.05-.35.16-.7.18-1a4.77,4.77,0,0,0-.08-.87c-.07-.43-.15-.84-.2-1.12a5.31,5.31,0,0,0-.81-.14c-.18,0-.31-.11-.32-.49a.75.75,0,0,1,.13-.34c.23-.35.46-.69.69-1s.58-.3.64.07c.11.81.49.9.78,1.26a1.21,1.21,0,0,1,0,.92,1.11,1.11,0,0,0,0,.89.38.38,0,0,0,.66,0c.39-.56.77-1.13,1.17-1.66.06-.08.15,0,.23,0a6.19,6.19,0,0,1,.3-1.51,4.58,4.58,0,0,0,.86-2.07,4.39,4.39,0,0,0,.95-2.59,2.1,2.1,0,0,1,.35-.82,2.31,2.31,0,0,0,.44-2.1c-.1-.61-.1-.61.2-1.09s.33-.85.11-1-.3-.08-.43-.19-.23-.2.3-1.06a2,2,0,0,0,.23-.34c.25-.57.22-1.55-.06-1.62a4.23,4.23,0,0,0-.71-.13c-.22,0-.43.38-.55,1a4.52,4.52,0,0,0-.09,2.35,2.15,2.15,0,0,1-.37,1.72l-.7,1-.31-1.08c-.16.23-.31.46-.47.67s-.57.29-.67.1a1.34,1.34,0,0,1-.05-.88c.19-1,.4-2.06.56-3.09a3.61,3.61,0,0,1,.79-1.63c.36-2,.73-4,1.1-6.09a1,1,0,0,0-.19-.67c-.12-.13-.31-.06-.46-.11-.6-.17-.61-.21-.36-1.61.13-.68.25-1.37.39-2.08.21-.33.45-.65.66-1a2.09,2.09,0,0,0,.1-.51c-.21,0-.45,0-.63-.14s-.28-.51-.12-1.07c-.08,0-.17-.1-.24,0-.23.29-.46.63-.68.94L279,61.86c-.28-.06-.5.23-.6.78-.29,1.54-.54,3.1-.86,4.63a4.23,4.23,0,0,0,0,2.28,2.61,2.61,0,0,1-.32,1.36l-.48.69c.18.78.36,1.56.53,2.33-.16.88-.32,1.74-.47,2.6s-.11.9.22,1c.07,0,.17,0,.23.05s.24.62.1,1.22-.28.88-.59.83a6,6,0,0,0-1.18-.18c-.11,0-.35.37-.4.61l-.87,4.63a2.32,2.32,0,0,0,0,.88,2.16,2.16,0,0,1-.35,2.11,5.78,5.78,0,0,0-.66,2.77c.39.75,0,1.82-.1,2.81a1.54,1.54,0,0,0,.15.74c0,.09.16,0,.22.06a3,3,0,0,1,.51,2.19,2.41,2.41,0,0,0,0,.93,2,2,0,0,1,.1,1.3c-.22.83.19,1.08.16,1.72a2.4,2.4,0,0,1-.21,1,3,3,0,0,0-.64,1.22l4.89-.39a12.26,12.26,0,0,0-.46-1.37l-.18-.49c-.17-.48-.39-1-.23-1.33,0-.07.34.25.5.46s.38.38.35-.27C278.11,98.08,277.91,97.61,277.79,97.14ZM258.72,70.49a1.59,1.59,0,0,1,0,.81.29.29,0,0,1-.43.14,11.86,11.86,0,0,1-1.06-1.14.78.78,0,0,1-.09-.33c.22-.57-.12-1.44-.17-2.16a4.91,4.91,0,0,1,.13-1.18c0-.11,0-.28.08-.26a1.22,1.22,0,0,1,.45.71l.47,1.46C258.32,69.19,258.55,69.84,258.72,70.49ZM269.85,87l-.09-.09.57.41c-.45.18-.48.16-1-.05a5.82,5.82,0,0,1-1-.5c-.15-.11-.08-.3,0-.45s.85-.32,1.24-.25a4,4,0,0,1,.76.21l.41.15v.18c0,.41-.06.79-.11,1.3C270.37,87.57,270.11,87.25,269.85,87ZM251.11,63.65a8.57,8.57,0,0,1,1.08-1.09c.29-.26.54.47.37,1-.25.81-.48,1.11-.88,1-.17,0-.29,0-.5.22a4.42,4.42,0,0,1-.53.53A2.2,2.2,0,0,1,251.11,63.65Zm17.2,21.42c0,.28-.28.46-.78.49-1,.06-1.68-.28-1.32-.71a2,2,0,0,1,1.29-.25C268,84.63,268.32,84.79,268.31,85.07Zm6,5.39c.15-.15.32-.4.46-.43a1,1,0,0,1,.68.13c.13.07.19.36.28.56-.16.15-.31.38-.46.43s-.31,0-.48-.07S274.35,90.93,274.28,90.46Zm.48-1.69a1.08,1.08,0,0,1,0-.89c.05-.15,0-.36.1-.49.15-.35.29-.47.37-.33a.81.81,0,0,1,.1.38,3.31,3.31,0,0,1-.09.5C275.11,88.58,274.89,89,274.76,88.77Zm-1.78,4a1,1,0,0,1,.45.76c0,.16.14.34.16.48.05.38,0,.56-.16.47a.73.73,0,0,1-.27-.28,2.87,2.87,0,0,1-.17-.47C272.77,93.07,272.77,92.61,273,92.73Z"/><path class="cls-1" d="M307.31,103.53a1.82,1.82,0,0,1-.3.58c-.23.18-.3-.06-.14-.48.08-.2.23-.32.14,0a9.09,9.09,0,0,0-.29.95c-.29.48-.59.92-.87,1.37-.41-.1-.76.3-1.11.94-.25.47-.26.43-.16,1.11a3.21,3.21,0,0,1,.08.87c-.11.82-.05,1.29.35,1.32s.62.1.93.15.4-.1.55-.88c.07-.37.11-.75.28-.87s.48-.07.69-.3a12,12,0,0,0,.88-1.34c.42-.62.61-.58.94.33.1.27.17.49.35.47.5,0,.91.22,1.06,1.24.52-.79,1-1.56,1.54-2.41a2,2,0,0,0,.15-1c-.17-.82-.4-1.56-.6-2.33l.92-1.42c.26-.39.29-.44.11-1.09a4.89,4.89,0,0,1,0-1.43c0-.64-.35-1-.68-.64-.16.16-.29.47-.44.66s-.26,0-.26-.43.26-1.17,0-1.38-.41.48-.62.72-.61-.1-.61-.33a1,1,0,0,1,.25-.73c.74-1.11,1.47-2.26,2.19-3.42a1.6,1.6,0,0,0,.08-.51,2.16,2.16,0,0,1,.09-.49,4.45,4.45,0,0,0,.83-2.07,1.52,1.52,0,0,1,.43-.68,5.18,5.18,0,0,0,1-3,3.54,3.54,0,0,1,.76-2.14,3.69,3.69,0,0,1,.83-2,4.65,4.65,0,0,1-.28-1.2,10.26,10.26,0,0,1,.31-2.06,1.62,1.62,0,0,1,.18-.4l-3.5,3c.23.09.44.22.67.31a3.51,3.51,0,0,1,1.73-.5c1,0,2.1,0,3.15,0a1.49,1.49,0,0,1,.85.22,2.56,2.56,0,0,0,1.35.24c.5,0,1,0,1.5.06.66.51,1.78.38,2.79.34a1.21,1.21,0,0,0,.69-.29c.13-.13-.05-.37.13-.45.68-.29,1.1-.6,1-1a2.8,2.8,0,0,1,0-.71c0-.24-.33-.36-1-.38s-1.1-.14-1.06-.36c.07-.47-.24-.94.19-1.4a.9.9,0,0,1,.35-.13,7.56,7.56,0,0,1,.76.33c.26.12.74.08.7-.11-.11-.58.86-.82,1.54-1.18a11.67,11.67,0,0,1,2.22.87c.44.16.59.36.56.61s0,.48,0,.72.16.44.57.61,1,.44,1.55.69a6.47,6.47,0,0,1,0,1.16c0,.29.31.45.71.58s.42.44.33.65-.49.25-.69.15a3.35,3.35,0,0,0-1.77-.38c-1,0-2.1,0-3.15,0a2.84,2.84,0,0,1-.79-.27l-.37-.17c-.19.11-.49.22-.55.34-.18.35.24.63,1.05.6,1.22,0,2.45,0,3.78,0a3.05,3.05,0,0,0,2.07.51c.12,0,.23.11.37.15.69.24.68.24,1.12.05s.79-.3,1.18-.45c-.27-.12-.4-.17-.51-.23s-.55-.24-.52-.34.46-.23.84-.2c.62,0,1-.1,1.12-.35s-.26-.61-1-.61c-.52,0-1.05,0-1.57,0a.6.6,0,0,1-.37-.16c-.11-.11.06-.23.45-.31a3,3,0,0,1,.52,0c.38,0,.75,0,.86-.21s.09-.61.75-.82.31-.58.41-.88c0-.08.08-.21,0-.23-1.2-.37-1.11-.92-1.08-1.48,0,0-.21-.12-.36-.16a.91.91,0,0,0-.36,0c-.15,0-.25.12-.38.17-.46.2-.87.16-.95-.12s0-.47-.54-.61a3.66,3.66,0,0,0-1.79.33l-.37.13-1.49-.66a1,1,0,0,1-.05-.23V76c0-.45-.92-.67-1.74-.42-.28.09-.47.25-.75.34-.77.24-1.54,0-1.73-.43s-.26-.41-.92-.43-1.08.09-1.17.34,0,.47-.51.62l-1.12-.43c-.12.06-.31.11-.35.17s0,.32-.16.46a1.14,1.14,0,0,1-.59.27c-.38,0-.51-.2-.45-.37s-.2-.45-.74-.51-1.35.09-1.33.25c0,.46-.15.75-1.38.76-.66,0-.76.22-.34.42l.37.17c.62.35.29.8-.73.83a4.51,4.51,0,0,0-1.67.52,3,3,0,0,0-1.66.3l.32-.27.16.54.23.79a3,3,0,0,1-.17,1.42,5.85,5.85,0,0,0-.74,2.15,2.62,2.62,0,0,1-.46,1.29l-.62.87c-.24-.84-.46-1.63-.68-2.42a2.37,2.37,0,0,1,.32-1.77c.35-.64.34-.62.22-1.1s-.18-.82-.26-1.21l-.71,1c-.16-.57-.32-1.09-.46-1.64a1.48,1.48,0,0,1,.06-.41l.47-2.39,2.32,0h.1c.09-.13.06-.25-.1-.33l-.75-.34-2.36,3a.74.74,0,0,0-.11.25c-.16.65-.25,1.33-.38,2-.09.45-.25.63-.59.68s-.47.26-.56.8l-.15,1a12.56,12.56,0,0,0-.22,1.55c0,.78.37,1.22.13,2.25a2.28,2.28,0,0,0,.15.8c.14.53.28,1,.42,1.59a1.41,1.41,0,0,1-.07.51,1.57,1.57,0,0,0,0,.92,2.28,2.28,0,0,1-.2,2.13,3.88,3.88,0,0,0-.48,1.25c-.19.87-.24.86-.56.81l-.91-.15c-.26,0-.52.25-.58.66-.35,2.4-.71,4.8-1,7l.43,1.72a1.69,1.69,0,0,0,1.38-.24C307.24,103.19,307.32,103.49,307.31,103.53Zm.5-3a1.2,1.2,0,0,1,.2-.31c.12-.12.22,0,.25.4,0,.05-.13.21-.19.32S307.85,100.89,307.81,100.51Z"/><path class="cls-1" d="M184.3,30.56a4.84,4.84,0,0,1,.25,3.15,5.13,5.13,0,0,0-.23,2.54c0,.37-.12.51-.32.42s-.27.1-.34.4-.12.91-.43.8a2.2,2.2,0,0,1,.08.51,4.34,4.34,0,0,1-.2.79,2.73,2.73,0,0,0,.13,1.43c.13.54.25.48.47-.25,0-.12.07-.26.1-.39l.44.58.23.31a4.82,4.82,0,0,0,.08-.86c0-.33-.12-.69-.17-1-.17-1.14-.08-1.19.52-1.42.44-.16.76.54,1.13.83a4.58,4.58,0,0,0,.24-2.64.64.64,0,0,1,.1-.38c.18-.25.44-.44.64,0,.5,1.06,1.15.36,1.64,1.56.05.13.32.07.45,0a.66.66,0,0,0,.07-.68c-.65-.51-.65-2.3-1.32-2.74a2.09,2.09,0,0,1,.17-.64c.56-.56.57-.54.37-1.62s-.45-2.41-.64-3.62a2.29,2.29,0,0,0-.28-.83l-10.1-16.62,3.45,16.69a2.42,2.42,0,0,0,.13.43,1.27,1.27,0,0,1,0,.93,5.07,5.07,0,0,1,.68.11c.05,0,.09.19.12.31.13.5-.08,1.55-.34,1.68s-.45.16-.59-.23a1,1,0,0,1-.08-.39c.06-.49.14-1,.21-1.48-.33.05,0-.57-.23,0a5.73,5.73,0,0,0-.36.79c-.09.28-.13.66-.24.92a4,4,0,0,1-.43.69c.08.4.15.79.23,1.2l-.37.65a2.42,2.42,0,0,0-.25,1.77,2.26,2.26,0,0,1,.13,1.32c-.09.37-.09.8.07.87.39.15.65.53.83,1.24,0,.19.3.05.43.17a.67.67,0,0,1,.12.68c0,.14-.15.31-.22.33-.74.21-.74.2-.9,1.23a6.39,6.39,0,0,1-.72,2.15,1.72,1.72,0,0,0-.11.46,5.08,5.08,0,0,0,0,1c0,.37.16.28.35-.09s.32-.56.43-.53c.52.14.76-.4.84-1.46a3.88,3.88,0,0,0,.8-2.08c0-.12.31-.46.42-.41.58.27,1.1-.15,1.59-1.14.28-.56.57-.79.91-.68.08,0,.29-.41.36-.69.15-.65.22-1.34.37-2,.09-.39.28-.46.45-.31a1.45,1.45,0,0,0,0-.93c-.28-1-.26-1,.27-1.17s.58-.18.7-1.11a4.26,4.26,0,0,1,.71-2.21c.13-.14.08-.42,0-.75,0-.11-.06-.19-.08-.26l-5.68.05c.14.23.12.38,0,.85a2.18,2.18,0,0,0-.06.89,2.12,2.12,0,0,0,.29.91c.16.23.23.1.3-.28.23-1.2.95-.57,1.44-.81.11,0,.31.25.46.45a2.26,2.26,0,0,1,.09.5C184,30.13,184.19,30.2,184.3,30.56ZM186.53,33a.78.78,0,0,1-.28-.65c0-.14.07-.37.1-.35a.78.78,0,0,1,.28.64A2.36,2.36,0,0,1,186.53,33Z"/><path class="cls-1" d="M284.27,69.25l.71.13c.29,0,.41.38.32.91s-.16,1-.29,1.55a2.71,2.71,0,0,1-.38.63c0-.13-.07-.26-.1-.39-.16-.6-.19-.66-.47-.2-.47.74-.81.36-1.18.3-.11,0-.17-.38-.25-.58l.24-.34c.33-.49.33-.5.19-1.48a.73.73,0,0,1,0-.36c.06-.14.17-.33.22-.32A7.52,7.52,0,0,1,284.27,69.25Z"/><path class="cls-1" d="M205.08,105.76c.17-1.55.33-3.11.53-4.66,0-.39.26-.51.35-.35a.81.81,0,0,1,.11.39c-.08.69-.15,1.38-.22,2.06l.63,1.94c.14.46.07.85-.31,1.79a3.78,3.78,0,0,0-.4-1.05C205.59,105.69,205.31,105.79,205.08,105.76Z"/><path class="cls-1" d="M271.7,99.51c.32-.45.61-.94.92-1.29a.28.28,0,0,1,.44.08,1.49,1.49,0,0,1,.12.78c-.05.49-.17,1-.27,1.49s-.68,1.08-.81.73A4.47,4.47,0,0,1,271.7,99.51Z"/><path class="cls-1" d="M183,33.84l.17,1c.12.71-.07,1.08-.51,1-.07,0-.15-.15-.22-.25s-.12-.4,0-.74a.92.92,0,0,0-.15-1,2.75,2.75,0,0,1-.47-1.26c-.06-.5.06-.83.33-.88s.53.25.61.69Z"/><path class="cls-1" d="M284.14,66c.09-.65.54-1.18.77-.91a4.36,4.36,0,0,1,.52,1.77,3,3,0,0,1-.17,1c-.1.36-.54.58-.68.42a5,5,0,0,1-.53-1.76A2.47,2.47,0,0,1,284.14,66Z"/><path class="cls-1" d="M290,38.76c.46-.22.7.32.82,1.4a1.64,1.64,0,0,0,.4.7,1.2,1.2,0,0,1,.28.87c0,.07-.15,0-.23,0-.6.11-.69.11-.81-.72-.18-1.26-.52-1.25-.93-1.23-.06,0-.16-.19-.21-.34a.74.74,0,0,1,0-.36c0-.12.08-.26.15-.28A1.88,1.88,0,0,1,290,38.76Z"/><path class="cls-1" d="M201.46,86.93a2.46,2.46,0,0,1,.06-.33,3.57,3.57,0,0,0,.6-1.69c.08-.64.51-.84.81-.49a3,3,0,0,1,0,1.4,3.35,3.35,0,0,1-.18.38c-.54,1-.79,1.29-1.19,1.13C201.53,87.31,201.51,87.08,201.46,86.93Z"/><path class="cls-1" d="M189.3,39.17c.07.57-.28,1.24-.53.95s-.44-.63-.67-.91a1.06,1.06,0,0,1-.3-.69c0-.37.14-.47.33-.43a1.2,1.2,0,0,0,.46-.07C189,38,189.19,38.33,189.3,39.17Z"/><path class="cls-1" d="M189.41,42.73c0,.13,0,.34-.11.37-.54.31-.7.33-1.09.13a.78.78,0,0,1-.21-.33,3.09,3.09,0,0,1-.08-1.39c.17-.26.38-.32.63-.09a2.21,2.21,0,0,1,.22.32,3.78,3.78,0,0,1,.22.33Z"/><path class="cls-1" d="M205.66,108.62c0,.07-.11.26-.18.29s-.37.16-.46,0a4.59,4.59,0,0,1-.57-1.87,2.31,2.31,0,0,1,.39-1.29c.07-.07.23,0,.23,0C204.93,107.14,205.67,107.39,205.66,108.62Z"/><path class="cls-1" d="M316.59,75.42a4.14,4.14,0,0,1-1.74.78,3.61,3.61,0,0,1-1,0c-.55-.08-.5-.13.15-.41a3.29,3.29,0,0,1,2.16-.48A1.52,1.52,0,0,1,316.59,75.42Z"/><path class="cls-1" d="M341.45,76.42l1.06.49c.71.33.7.44,0,1l-1.07-.49C340.73,77,340.74,76.93,341.45,76.42Z"/><path class="cls-1" d="M280.59,54.65c-.07,0-.21,0-.21,0a1.16,1.16,0,0,1,.29-.81c.22-.28.43-.63.65-.93.05-.06.14-.09.17,0a1.27,1.27,0,0,1,0,.84c-.16.81-.34,1.09-.72,1Z"/><path class="cls-1" d="M280.83,88a1.32,1.32,0,0,1,.1.3c0,.74-.15,1.52-.4,1.64a.38.38,0,0,1-.59-.2c-.16-.32-.14-.36.23-.83C280.39,88.58,280.61,88.25,280.83,88Z"/><path class="cls-1" d="M253.57,65.27c.27.14.25.74-.1,1.44a2.8,2.8,0,0,1-.46.57l0-.38c0-.25,0-.51-.08-.74-.09-.59-.07-.69.21-.82A1.26,1.26,0,0,1,253.57,65.27Z"/><path class="cls-1" d="M80.42,24.94c-.23.12-.29,0-.19-.43l1-3.77,0,3.76v.09a.69.69,0,0,1-.08.36,1.17,1.17,0,0,1-.36.28c-.14.07-.33,0-.42-.38a.46.46,0,0,1,0-.21h.7a1,1,0,0,1-.25.34C80.71,25.06,80.56,25,80.42,24.94Z"/><path class="cls-1" d="M161.06,82.77c0,.06,0,.13,0,.17a2.13,2.13,0,0,1-1.73,0,.11.11,0,0,1,0-.16.67.67,0,0,1,.36-.16,8.51,8.51,0,0,1,1,0A1.05,1.05,0,0,1,161.06,82.77Z"/><path class="cls-1" d="M164.39,82.93a.51.51,0,0,1-.87.44.93.93,0,0,1-.17-.43c0-.06.08-.14.16-.2a1,1,0,0,1,.36-.16.73.73,0,0,1,.35.15A.63.63,0,0,1,164.39,82.93Z"/><path class="cls-1" d="M176.64,56.26c.19-.09.31,0,.34.42s-.2.66-.49.62c-.08,0-.17,0-.23,0a.75.75,0,0,1-.11-.38.71.71,0,0,1,.26-.64C176.48,56.18,176.56,56.25,176.64,56.26Z"/><path class="cls-1" d="M259.14,81.23c-.18-.58-.2-1.09-.05-1.07s.47.67.58,1.17a1.47,1.47,0,0,1,0,.41.71.71,0,0,1-.06.35c-.15.24-.27.1-.36-.39A3.1,3.1,0,0,0,259.14,81.23Z"/><path class="cls-1" d="M183.63,30.32c.19-.2.3-.05.3.44a.73.73,0,0,1-.08.37,1.35,1.35,0,0,1-.36.28c-.14.07-.33-.05-.42-.38a1,1,0,0,1,.13-.61C183.31,30.29,183.48,30.34,183.63,30.32Z"/><path class="cls-1" d="M184.61,43.06c-.09-.61-.05-1.12.1-1.07s.38.72.41,1.23a1.88,1.88,0,0,1,0,.42.91.91,0,0,1-.1.34c-.19.22-.29.06-.31-.44A2.83,2.83,0,0,0,184.61,43.06Z"/><path class="cls-1" d="M74.86,33.07s.16-.3.18-.28a1.09,1.09,0,0,1,.22.51c0,.45-.09.66-.26.41A1.85,1.85,0,0,1,74.86,33.07Z"/><path class="cls-1" d="M243.64,72.94a.53.53,0,0,1-.14-.8c.2-.31.36-.37.49-.2Z"/><path class="cls-1" d="M259.2,64.05a1.11,1.11,0,0,1,0-.37c0-.08.06-.19.1-.17a.57.57,0,0,1,.29.6c0,.28-.09.45-.28.37A1.47,1.47,0,0,1,259.2,64.05Z"/><path class="cls-1" d="M175,65a1,1,0,0,1-.18.33c0,.06-.13.15-.16.11a.59.59,0,0,1,0-.67c.14-.25.27-.37.4-.21A1.11,1.11,0,0,1,175,65Z"/><path class="cls-1" d="M174.08,74a.79.79,0,0,1,.06.71c0,.13-.17.34-.19.31a.77.77,0,0,1-.07-.7A1.73,1.73,0,0,1,174.08,74Z"/><path class="cls-1" d="M193.08,59.7a.86.86,0,0,1-.27-.66c0-.14.07-.37.09-.35a.76.76,0,0,1,.28.64A2,2,0,0,1,193.08,59.7Z"/><path class="cls-1" d="M308.15,125.21a.81.81,0,0,1-.09.32,1.16,1.16,0,0,1-.34-.43c-.16-.42-.1-.65.13-.47A2.2,2.2,0,0,1,308.15,125.21Z"/><path class="cls-1" d="M134.62,77a.53.53,0,0,1-.7.4c-.36-.07-.47-.21-.35-.39Z"/><path class="cls-1" d="M168.88,95.11a.92.92,0,0,1,0-.37c0-.08.05-.19.09-.17a.56.56,0,0,1,.32.58c0,.29-.06.45-.26.38A1.46,1.46,0,0,1,168.88,95.11Z"/><path class="cls-1" d="M332.49,75.75a.85.85,0,0,1-.7.16c-.14,0-.36-.13-.34-.15a.76.76,0,0,1,.68-.17A3,3,0,0,1,332.49,75.75Z"/><path class="cls-1" d="M175,98.66c.14-.75.29-1,.43-.82a1.06,1.06,0,0,1,0,.89Z"/><path class="cls-1" d="M175.48,98.73a.54.54,0,0,1,.31.76c-.13.34-.28.43-.44.29Z"/><path class="cls-1" d="M189.3,62.07s-.06.34-.09.32a1.06,1.06,0,0,1-.35-.42c-.17-.42-.11-.65.12-.47A2.1,2.1,0,0,1,189.3,62.07Z"/><path class="cls-1" d="M219.37,77.16h-1.05c-.12-.18,0-.32.35-.4A.53.53,0,0,1,219.37,77.16Z"/><path class="cls-1" d="M190.73,75.68a1.28,1.28,0,0,1,.07-.36c0-.08.09-.19.12-.16a.6.6,0,0,1,.21.64c-.06.27-.15.43-.32.32A1.22,1.22,0,0,1,190.73,75.68Z"/><path class="cls-1" d="M308.54,109.37a.75.75,0,0,1,.26-.65s.08.22.1.36a.72.72,0,0,1-.26.64S308.57,109.49,308.54,109.37Z"/><path class="cls-1" d="M185.67,34.19a.74.74,0,0,1,.12.31.7.7,0,0,1,0,.32c-.14.38-.24.39-.32.16a1.15,1.15,0,0,1,0-.82C185.49,34.1,185.62,34.13,185.67,34.19Z"/><path class="cls-1" d="M185,45.06a.53.53,0,0,1-.51-.63c0-.36.13-.49.33-.41Z"/><path class="cls-1" d="M278.8,100.4a.52.52,0,0,1,.26.76c-.14.34-.3.42-.45.28Z"/><path class="cls-1" d="M183,37.9a.84.84,0,0,1-.21-.26,1,1,0,0,1-.11-.3c0-.4.11-.45.26-.26a1.19,1.19,0,0,1,.26.79C183.22,37.92,183.09,37.94,183,37.9Z"/><path class="cls-1" d="M187.33,62.12a.79.79,0,0,1,0,.7s-.15-.17-.21-.3a.76.76,0,0,1,0-.7S187.26,62,187.33,62.12Z"/><path class="cls-1" d="M196.45,119.2c.08-.13.21,0,.37.3a1,1,0,0,1-.1.36c-.07.15-.21,0-.36-.3A1.66,1.66,0,0,1,196.45,119.2Z"/><path class="cls-1" d="M300.34,118.19a.53.53,0,0,1-.5-.64c0-.36.14-.49.34-.4Z"/><path class="cls-1" d="M300.36,120.2s-.19-.24-.19-.28a1.78,1.78,0,0,1,.12-.64c.17-.24.3,0,.27.41A1.07,1.07,0,0,1,300.36,120.2Z"/><path class="cls-1" d="M307.71,129c.12-.1.22,0,.26.41a1.2,1.2,0,0,1-.2.31c-.12.12-.22,0-.26-.4A1.68,1.68,0,0,1,307.71,129Z"/><path class="cls-1" d="M344.26,83.94c-.12-.11,0-.22.36-.31a.92.92,0,0,1,.33.15c.14.1,0,.22-.35.31A1.68,1.68,0,0,1,344.26,83.94Z"/></svg>