<svg id="Camada_1" data-name="Camada 1" xmlns="http://www.w3.org/2000/svg" viewBox="0 0 354.61 150.36"><defs><style>.cls-1{fill:#009145;}</style></defs><path class="cls-1" d="M109.91,65.62a3.53,3.53,0,0,1,1.19-1c.05,0,.22,0,.22,0s.05.32,0,.38c-.4.36-.83.68-1.25,1,.15.19.37.35.44.56s-.07.47,0,.68.32.34.24.61a.62.62,0,0,0,.13.64c.45.55.87,1.12,1.32,1.68a1,1,0,0,1,.16.86.54.54,0,0,0,.36.52.4.4,0,0,0,.24,0c.22,0,.34.07.31.2a1,1,0,0,0,.14.87,1.15,1.15,0,0,0,1,.54c-.07.38-.17.74.16,1.08a4.44,4.44,0,0,1,.55.76c0,.17-.06.32-.09.47a.67.67,0,0,0,.29.59.41.41,0,0,0,.45,0c.13-.09.28-.16.4-.26a.45.45,0,0,1,.44-.11c.15,0,.17.15.09.35s0,.42.13.64a.37.37,0,0,1-.22.55.3.3,0,0,0-.23.36c.05.23.14.45.41.51l1.21.26a1,1,0,0,0,.14,1.09,12.61,12.61,0,0,1,.8,1.16c0,.18-.07.34-.11.49s.07.18.28.24c.59.15.6.2.58.8,0,.15,0,.33,0,.44L122,86a1.25,1.25,0,0,0,1,.61c.17,0,.35.36.32.56s0,.31-.08.49c.5.7,1,1.41,1.59,2.11a.67.67,0,0,1,.14.43,1.22,1.22,0,0,0,.4,1c.3-.17.48-.17.52,0a.29.29,0,0,1-.21.36c.61.76,1.27,1.5,1.92,2.24.32.34.53.16.81,0s.38-.14.61.11.22.41,0,.6l-.35.34c-.31.33-.31.48,0,.77l.82.78.88.72c0,.19.05.36.08.53a.49.49,0,0,0,.1.16,2.42,2.42,0,0,1,1.21.2,2.32,2.32,0,0,0,.95-.18c.11-.33.41-.44.73-.53.77-.23.94-.06.86.69,0,.36,0,.39.33.51a1,1,0,0,0,.68,0c.22-.15.31,0,.3,0s-.18.21-.29.22-.3-.11-.14-.27.21-.09.13,0a2.64,2.64,0,0,0-.41.85,4.59,4.59,0,0,0,.68.89,7.24,7.24,0,0,0,1.39.17c.55,0,.57,0,.69-.55a.65.65,0,0,1,1-.37l.46.25a8.14,8.14,0,0,0,2.11-.8c.27.05.52.06.78.09l.25-.16a2.06,2.06,0,0,0,.66-.53,1.68,1.68,0,0,0,.17-.7c.43,0,.86,0,1.29-.07a.66.66,0,0,0,.5-.55,1.37,1.37,0,0,1,.44-1.15c.3-.3.17-.62.14-1,.44-.11.91-.22,1.36-.35A1.13,1.13,0,0,1,147,93.4a4.11,4.11,0,0,0,.38-.65.46.46,0,0,1,.37-.26.59.59,0,0,0,.54-.4c0-.08.09-.14.12-.22.12-.37.41-.46.72-.55,0,0,.08-.09.08-.14s0-.2-.07-.23l-.83-.47c-.05,0-.07-.15-.07-.23a.24.24,0,0,1,.32-.17c.15,0,.28.15.43.18s.39-.2.46-.47a.42.42,0,0,0,0-.22c0-.17-.14-.15-.34-.08s-.35.1-.45-.21l-.3-.94-.41.08a.58.58,0,0,1-.74-.35l-.5-1.52c.65.16.77-.34,1-.77.12-.26.35-.39.53-.28a9.36,9.36,0,0,1,1.62.94.29.29,0,0,1,.07.23c-.08.22-.2.43-.3.65l.21.11a1.39,1.39,0,0,1,.21.11.3.3,0,0,0,.43,0c.09-.07.06-.2,0-.39s0-.42.27-.37c.64.13.68.15.85-.3a1,1,0,0,1,.86-.65c.17-.35.33-.7.52-1a.5.5,0,0,0,.05-.43,1.06,1.06,0,0,1,.18-1.06c-.3-.25-.32-.3-.19-.66-.07,0-.18-.07-.2-.13-.1-.3-.17-.61-.25-.94.28-.18.73-.12.85-.56,0,0,.13-.07.2-.07.48,0,.62-.33.55-1.1s-.07-.68.07-.73.16-.06.24.53c0,.22.18.46,0,.65-.2-.24-.42-.08-.64-.07-.06,0-.17,0-.19,0a.37.37,0,0,1,0-.44c.09-.13.17-.26.53.07.33.5.4.59.46.59l.67-.07c.26,0,.33-.18.15-.39s-.36-.3-.35-.57a10.46,10.46,0,0,1,1.24-.08c-.1-.47.06-.94-.42-1.3,0,0,0-.18,0-.23.22-.38.48-.79,1-.68a.42.42,0,0,0,.4-.06c.27-.24.49-.15.68.18.08.14.17.27.26.4s.29.25.5.15a.27.27,0,0,0,.18-.3c0-.12-.1-.21-.27-.23s-.27-.11-.24-.25a.36.36,0,0,1,.07-.19c.23-.22.46-.2.65.11.34.53.55.54.75,0,.07-.16.12-.3.2-.21a.66.66,0,0,0,.82.15c.12-.05.24-.06.32.06a.62.62,0,0,0,.73.29c.22,0,.28-.08.36-.38,0-.08,0-.18,0-.24a2,2,0,0,1,.21-.37,2.46,2.46,0,0,1,.13.41c0,.14,0,.34,0,.43.15.26.24-.15.38-.19a1,1,0,0,1,.34-.07c.35,0,.68.21,1,.27a1.22,1.22,0,0,0,.38-.09c.52-.15.54-.14.73.35s.24.5.78.37l.22-.06.08.4a.5.5,0,0,0,.62.42l.42,0a5.37,5.37,0,0,1,.05.9c-.05.42.48.54.39,1s.28.48.47.7a.66.66,0,0,0,.64.18c.08,0,.21,0,.24,0a1.12,1.12,0,0,0,1.09.29l0,.49c0,.06,0,.17.06.18A.42.42,0,0,0,171,82a1.17,1.17,0,0,0,.47-1.26H172c.3,0,.43-.2.54-.39a.36.36,0,0,0-.13-.42c-.67-.58-1.33-1.17-2.1-1.86l-1.32.26c0-.35,0-.59-.06-.82a.57.57,0,0,1,.46-.67,1.29,1.29,0,0,1,1.35.34.83.83,0,0,0,.41.22,3.74,3.74,0,0,0,.95-.08c.12,0,.21-.23.28-.36a.23.23,0,0,0,0-.23c-.29-.29-.61-.57-.19-1,.09-.09.05-.29.06-.44-.15,0-.35,0-.45.12s-.32.3-.59.21a6.74,6.74,0,0,0-.21-1.23.83.83,0,0,0-.35-.37c-.27-.14-.52-.12-.64.14s-.21.21-.41.21a4.74,4.74,0,0,0-.82.08l-.91-.57a6.33,6.33,0,0,0-.78.16,1.4,1.4,0,0,1-1.23,0,1.44,1.44,0,0,1-1.46,0c-.27-.1-.4-.23-.3-.53a4.58,4.58,0,0,1,.15-.64c.1-.18.31-.32.79-.15s.68-.19,1-.28c.07,0,.17-.08.16-.12a.44.44,0,0,0-.41-.34.85.85,0,0,1-.65-.54.49.49,0,0,0-.52-.28c0,.19-.08.31-.32.36a1,1,0,0,1-1.07-.34c-.15-.2-.28-.26-.45-.14a1.74,1.74,0,0,0-1,1.16c0,.28-.55.1-.74.23a4.25,4.25,0,0,0-.88,1,.73.73,0,0,1-.89.15.81.81,0,0,0-.73,0,5.27,5.27,0,0,1-.49.22.46.46,0,0,1-.49,0s0-.13.07-.21.27-.42.16-.7-.39-.26-.63-.35l-.2-.09.28-.49a.53.53,0,0,0-.15-.64.65.65,0,0,0-.6,0,17.48,17.48,0,0,0-3,2,1.49,1.49,0,0,0-.64,1.24,1.25,1.25,0,0,0-.44,1.24,1.27,1.27,0,0,0-1.12.56,17.09,17.09,0,0,0-1.58,2.53.41.41,0,0,1,.14.27c0,.06,0,.15,0,.17-.18.12-.27.08-.31-.07a.37.37,0,0,1,.11-.42s.13.06.09.05c-.21-.21-.37-.25-.52-.12s-.33.42-.52.5a1.22,1.22,0,0,0-.77.58c-.22.48-.48.92-.69,1.32.14.52.28,1,.41,1.45-.37.2-.71.15-.88.53a1.66,1.66,0,0,0-.15,1.33l-1.12.38a.63.63,0,0,0-.24.61c0,.16.1.31.15.46l-.38.18c-.43.19-.55.61-.21.88a1.26,1.26,0,0,1,.42.52,1.21,1.21,0,0,1,0,1.11,1.1,1.1,0,0,1-.06,1.11c-.39.66-.73,1.34-1.08,2,.12.46.21.84.31,1.31a17.59,17.59,0,0,1-1,1.47c-.11.14-.38.1-.6-.09l-.55-.46c-.23-.2-.23-.17-.82-.27-.31-.06-.43-.21-.55-.6,0-.07,0-.15,0-.22a.22.22,0,0,0-.13-.1.27.27,0,0,0-.2,0,2.12,2.12,0,0,0-.34.39c-.16.25-.51-.06-.69,0a.3.3,0,0,0-.15.41c0,.12.05.28,0,.34s-.35.26-.52.4-.17,0-.27-.11c-.35-.25-.32-.25-.37.16,0,.17-.07.31-.18.29s-.28.19-.38.54a2.4,2.4,0,0,0-.46,0,2.94,2.94,0,0,1-.48-.1s-.09-.19-.08-.31.07-.31.1-.47c.13-.62.15-.59-.11-.7a1.49,1.49,0,0,0-.3-.09c-.1,0-.22-.12-.34-.17-.25.14-.5.34-.77.17s-.26-.49-.27-.78a5.94,5.94,0,0,1-.69-.52,7.22,7.22,0,0,1-.68-.58l-.67,0c-.29-.4-.8-.12-1.22-.17a4.13,4.13,0,0,1-1.26.24c-.91-.09-.74-.25-.56-.4a.46.46,0,0,1,.61-.08,5.48,5.48,0,0,0,.64.55c.14.1.3,0,.39-.15a2.83,2.83,0,0,0,.3.3.28.28,0,0,1,.15.36c-.08.21-.25.45-.46.43-.56-.06-.85.31-1.16.64a.59.59,0,0,0-.09.42c0,.2,0,.3-.17.3a.42.42,0,0,1-.39-.19c0-.07-.13-.13-.12-.19a1.66,1.66,0,0,0-.27-1c-.12-.25,0-.59,1.13-1,.93-.16.86-.31,1-.46a3.23,3.23,0,0,1,.47-.51c.33-.34.36-.47.12-.71s-.47-.52-.7-.78a.91.91,0,0,1-1-.39.55.55,0,0,0-.54-.32c-.26,0-.4-.13-.58-.28s-.33-.19-.61,0l-1,.7c-.51,0-.7-.66-1.27-.5-.28-.13-.41-.62-.19-.77.46-.32.93-.63,1.37-1a.71.71,0,0,0,.18-.39c0-.21.06-.42.1-.64l-.26,0a.67.67,0,0,1-.58-.31c-.14-.26-.45-.46-.31-.81.08-.18.06-.35,0-.35a1.05,1.05,0,0,1-.92-.62,9.2,9.2,0,0,0-.69-1,.69.69,0,0,0-.44-.15.52.52,0,0,1-.5-.42c0-.36.2-.75-.18-1.07a1.14,1.14,0,0,0-.29-1.28c-.19-.25-.18-.34.12-.56s.35-.33.26-.56-.24-.38-.16-.64a.58.58,0,0,0,0-.43c-.75-1.13-1.52-2.28-2.33-3.4-.11-.15-.45-.13-.65-.25a.56.56,0,0,1-.33-.57c0-.15.06-.31.09-.47-.37-.12-.77-.14-1-.58s-.2-.31-.77-.5a.57.57,0,0,1-.36-.29,1.14,1.14,0,0,0-.93-.69c-.34,0-.44-.27-.39-.73,0-.2,0-.37-.07-.37-.63,0-.84-.46-1.1-.86a1.16,1.16,0,0,0-1-.57c0-.24,0-.46.07-.69-.4-.33-.26-.72-.21-1.11l0-.48c0-.29-.18-.48-.63-.61a2.17,2.17,0,0,1-.25,0,.24.24,0,0,1-.1-.14c-.2-.58-.2-.58-.67-.66-.31-.37-.66-.74-1-1.15a1.17,1.17,0,0,0-1.08-.47c-.51-.59-1.09-1.13-1.63-1.69-.21-.22-.27-.45-.1-.63l.68-.68c.31-.31.3-.5,0-.82s-.69-.62-1-1c-.15-.17,0-.46-.25-.68-.46.12-.86-.2-1.28-.33a2.58,2.58,0,0,0-.83,0c-.19,0-.27.13-.38.26a1,1,0,0,0-.22,1.11c.08.21-.16.5-.36.53l-1,.14c-.11-.34-.11-.68-.49-.88s-1-.46-1.44-.72a1.24,1.24,0,0,0-1.25,0s-.15,0-.16-.07c-.17-.64-.83-.55-1.33-.71a.62.62,0,0,1-.31-.36c-.1-.34.2-.61.64-.53a.64.64,0,0,0,.72-.23c0-.06,0-.16.06-.23.27-.39.85-.32,1.19.15.17.22.26.47.62.54a1.72,1.72,0,0,1,.29.11c.32.14.33.16.72.77a1,1,0,0,0,.68.4.41.41,0,0,0,.41-.25c.22-.42.48-.83.74-1.23a.45.45,0,0,0-.2-.66,14.92,14.92,0,0,0-2.49-1.12,9.8,9.8,0,0,0-1.36-.43c-.48-.1-1-.2-1.46-.28a1.94,1.94,0,0,0-.68,0c-.11,0-.19.11-.29.15-.68.3-.8.3-1.54-.09a1.16,1.16,0,0,0-1.27.08,5.59,5.59,0,0,0-.42.4,17.09,17.09,0,0,0-1.78.46c-.54.19-1,.41-1.46.6a11.8,11.8,0,0,0-.74,1.38,8.89,8.89,0,0,0-.5,1.28.65.65,0,0,0,.55-.07c.64-.25.62-.22.86.13a1,1,0,0,1,.15,1.11c-.07.14-.06.33-.12.48s0,.33.09.36a.44.44,0,0,0,.23,0,9.67,9.67,0,0,1,3.47-1.48l.24.18c.29.21.28.2.5,0,.39-.43.52-.38,1,0,.21.2.38.17.44-.08s0-.47.29-.62c.17.15.29.48.47.51a.9.9,0,0,1,.71.52c.06.14.2.18.36.24a9.38,9.38,0,0,1,1.46.55c.42-.14.81-.27,1.21-.38.34.64.3.68.11,1.44-.06.23,0,.29.25.21s.38-.14.46-.08c.39.27.65.33,1-.11.15-.21.35-.1.42.19s0,.33.13.43.44.26.55.47.09.64.27.84.15.58.27.83a3.43,3.43,0,0,0,.59.7.36.36,0,0,1,0,.21.59.59,0,0,1,0,.23c0,.18,0,.28.14.41s.41.18.64.2a.55.55,0,0,1,.52.62l0,.41,1,.07c.06,0,.13-.1.19-.15C109.9,65.91,109.82,65.77,109.91,65.62Zm42.86,11.52c-.09-.11.06-.46.27-.63a.72.72,0,0,1,.2-.09.42.42,0,0,1,.22,0c.22.08.21.2,0,.34a.69.69,0,0,0-.16.18c.83-.53.86-.3.83-.3a.7.7,0,0,1-.36.07c-.21-.06-.22-.21,0-.3a.56.56,0,0,1,.36,0C153.09,77.14,152.86,77.27,152.77,77.14Zm-30.11,4.22a.72.72,0,0,1-.36,0c-.19-.11-.17-.24.06-.27a.64.64,0,0,1,.34.12c-.69-.26-.57-.18-.53,0s-.12.07-.18.11l-.19.12a.46.46,0,0,1-.74-.16.34.34,0,0,1,0-.41.18.18,0,0,1,.15,0l.67.14C122.72,81.18,122.69,81.35,122.66,81.36Zm17.89,14s.13,0,.2,0,.1.08.1.12c0,.29,0,.6,0,.9s.07.62.63.74a.75.75,0,0,1,.52.4.4.4,0,0,1,0,.24s-.09.12-.13.12a8.25,8.25,0,0,1-.89-.1L139.8,95.9s0,.08-.14.08a.26.26,0,0,1-.17-.07,3,3,0,0,1-.25-.34c-.08-.13-.11-.29,0-.36s.19.05.26.12a2.73,2.73,0,0,1,.23.38A1.13,1.13,0,0,0,140.55,95.37Zm-7.08.42c-.09.17-.18.28-.36.25s-.15-.14-.15-.33,0-.19,0-.21a1,1,0,0,1-.41-.94c0-.35,0-.34.33-.4l.44-.08a.43.43,0,0,1,.5.46l.07.65C133.73,95.39,133.58,95.58,133.47,95.79ZM119,78a.48.48,0,0,1-.78-.09.39.39,0,0,1,0-.59.47.47,0,0,1,.78.1A.39.39,0,0,1,119,78Zm30.45,4.3a.52.52,0,1,1,.45-.89.47.47,0,0,1,.09.63C149.86,82.3,149.67,82.39,149.46,82.31ZM121.8,78.2c.12,0,.15.21,0,.34-.35.36-.72.31-.92-.11a1.17,1.17,0,0,1,0-.47C121.2,78,121.51,78.11,121.8,78.2Zm-9-10c-.19,0-.32,0-.33-.15s0-.18,0-.22a4.54,4.54,0,0,1,.76-.54.22.22,0,0,1,.33.15c0,.07,0,.18,0,.22a3.27,3.27,0,0,1-.37.28A1.4,1.4,0,0,1,112.77,68.2Zm31,26.73a.2.2,0,0,1,.09-.13c.07,0,.18-.06.22,0s.45.21.4.51-.25.56-.71.56C143.74,95.54,143.74,95.24,143.73,94.93ZM114.4,71.88a.33.33,0,0,1,.38.23c0,.07.11.12.12.19s0,.3-.15.31a.35.35,0,0,1-.23,0c-.06,0-.09-.12-.14-.18C114.21,72.14,114.22,71.9,114.4,71.88Zm37.79,8.57a.34.34,0,0,1,.07-.44c.06-.05.07-.16.13-.19s.3-.08.36,0a.43.43,0,0,1,0,.23.76.76,0,0,1-.12.19C152.51,80.53,152.29,80.61,152.19,80.45ZM164.06,75a2.06,2.06,0,0,1-.3-.29c.14-.06.29-.18.42-.15a.89.89,0,0,1,.39.19.24.24,0,0,1,.1.19c0,.06-.13.08-.2.12A1.31,1.31,0,0,1,164.06,75Zm-41.52,4.72c-.07,0-.21,0-.21,0,0-.19,0-.29.17-.29a.93.93,0,0,1,.23,0C122.73,79.6,122.67,79.71,122.54,79.71ZM103,58.5c-.17.11-.3.1-.37,0s-.1-.2-.08-.21.29-.1.37,0A1,1,0,0,1,103,58.5Zm33,37.18c-.11.14-.21.16-.26.08s-.06-.16,0-.18.2-.16.25-.08S136,95.66,136,95.68Zm18.82-17.61c-.18.06-.3,0-.33-.09s0-.21,0-.22c.18-.07.29,0,.33.09A1.13,1.13,0,0,1,154.85,78.07Zm9-1.9c-.13.15-.23.16-.29.1s-.1-.15-.09-.17.23-.2.3-.11A.76.76,0,0,1,163.81,76.17Z"/><path class="cls-1" d="M187.32,85.65c.19.13.31.36.53.43.42.13.66-.31,1-.5a.68.68,0,0,1,.52-.15.76.76,0,0,0,.76-.22,6.92,6.92,0,0,1,.6-.53c.07-.51.13-.93.15-1.36a.68.68,0,0,1,.52-.51,1.31,1.31,0,0,0,.92-.4c.14-.15.46-.13.73-.2V81.5l.5-.08c.07,0,.2,0,.21-.08a.44.44,0,0,0-.16-.43c-.19-.2-.42-.14-.66-.11s-.36-.08-.24-.4c.24-.64.24-.64-.18-1l-.2-.14-.14.2a1,1,0,0,0-.26.89.71.71,0,0,1-.37.6.33.33,0,0,1-.43-.07,7.15,7.15,0,0,0-.74-.62.65.65,0,0,1-.25-.62.38.38,0,0,0-.2-.4.34.34,0,0,1-.22-.38c0-.12.13-.15.34-.15a8.39,8.39,0,0,0,1-.12l.63-.85,1.58-.23c.47.4.83.2,1.15-.25a1.06,1.06,0,0,0,.93-.68.73.73,0,0,1,.32-.35c.3-.11.63-.18.94-.27a3.12,3.12,0,0,1,.71-.19c.4,0,.32-.59.72-.6s.53-.31.71-.61a1,1,0,0,0,.07-.92c-.05-.15-.09-.32-.13-.49a6.08,6.08,0,0,0-.62-.33c-.18-.06-.29-.15-.29-.34s.11-.2.31-.23a.54.54,0,0,0,.39-.24c.13-.19.15-.56,0-.65l-.64-.33a.35.35,0,0,0-.44,0,.57.57,0,0,0-.21.63,4,4,0,0,1,.14.46c-.27.51-.55,1-.82,1.51a.3.3,0,0,1,.27.35.58.58,0,0,1-.36.57,1.08,1.08,0,0,0-.75.52c-.12.22-.36.13-.42-.16s-.09-.32-.22-.32-.25.13-.35.28-.32.32-.58.2-.4-.38-.31-.55c.2-.41.61-.77.3-1.3a3.31,3.31,0,0,1,.77-1.41c.59,0,.74-.52.95-.93s.4-.71.55-1.07.47-.39.76-.5L197,69a1,1,0,0,0-.07-.23,1.1,1.1,0,0,1,.43,0c.37.1.44.3.3.72s-.07.47.17.59a5,5,0,0,0,1.07.52c.35.08.74-.29,1.12,0,.05,0,.31-.08.38-.19a7.16,7.16,0,0,0,.45-.87c.23-.49.19-.59-.38-.88s-.61-.36-.35-.89l.64-1.32a4.5,4.5,0,0,1,1.09-.43c.45-.17.9-.32,1.36-.48.15,0,.16-.17.05-.35a.43.43,0,0,1-.08-.23c.09-.44.32-.93-.38-1.09-.1-.31-.21-.61-.32-.93l1.29-2.58,1.87-.57c.34-.63.63-1.16.86-1.6-.08-.39-.15-.69-.21-1l-.28.07c-.56.12-.71.09-.87-.43-.11-.33-.4-.45-.57-.69s.08-.6.19-.63l1-.24c.51.32,1,.66,1.6,1a.43.43,0,0,0,.39-.1,1.63,1.63,0,0,0,.39-.76,2,2,0,0,0-.2-.87c-.14-.39.34-.65.11-1a.51.51,0,0,1,0-.22l.42-.05a.47.47,0,0,0,.43-.59c0-.23-.06-.41.12-.59a6.73,6.73,0,0,0,.66-.77c.09-.12-.08-.39.08-.55.46.2.73-.23,1.13,0,.07,0,.16.09.19.07.2-.18.44-.15.62-.28a.77.77,0,0,0,.34-.65c0-.08.23,0,.25-.13.11-.34.44-.57.34-1.15a3.53,3.53,0,0,1,.35-.59,2.52,2.52,0,0,0-.27-.3c-.23-.24-.3-.69,0-.82a.63.63,0,0,1,.72,0,4.59,4.59,0,0,1,.75,1,.84.84,0,0,1,.2.05c.38.1.71.32,1.08.38.57.14.36.81.75,1,.07,0,.15.08.16.14a8.81,8.81,0,0,1,.08,1.35c0,.44.07.87-.38,1.23,0,.3-.06.59-.1.87.52,0,.75-.44,1-.8a1,1,0,0,1,.52-1,.66.66,0,0,0,.23-.62v-.24c.14,0,.31,0,.41.06.31.21.32.42,0,.76,0,.06-.13.1-.16.17-.33.88-.33.86-.65,1.15l-.36.32c-.22.2-.24.36-.08.55l.91,1.15c.06.07.29.06.41,0,.28-.13.53-.34.8-.47s.31,0,.61.21c.28,0,.24.18.22.19a.67.67,0,0,1-.35,0c-.19-.1-.16-.24.06-.27s.22.05.07.1a2.82,2.82,0,0,0-.65.27c-.17.09-.26.19-.24.37s.14.13.33.15.6.11.94.18c-.14.59-.31,1.18-.47,1.76,0,.05,0,.11,0,.17.56.14.56.14.46.46s-.18.59-.29.93l.3.55c0,.07,0,.17.11.2a.7.7,0,0,0,.41.08c.22-.07.5-.26.64-.07.23.34.39.64.89.36.1-.06.28,0,.42,0a2,2,0,0,1-.24.37c-.42.39-.42.39-.18.93.09.2.24.39.1.64s-.11.31-.06.38.27.08.43,0c.85-.39.86-.38,1.23.31a1.9,1.9,0,0,0,.26.37.29.29,0,0,0,.43,0c-.12-.14-.16-.34,0-.43a1.62,1.62,0,0,0,.76-1.11s0-.15,0-.17-.28-.07-.44,0c-.46.17-.53.11-.44-.32,0-.08.1-.17.07-.23-.24-.58-.49-1.16-.78-1.71a.59.59,0,0,0-.4-.2c-.28,0-.32-.31-.49-.46s-.44-.14-.63-.26-.26-.28-.23-.38c.12-.43.05-1,.59-1.19a4.6,4.6,0,0,1,.25-.65c.08-.12.27-.28.37-.25.45.08.94,0,1.24.56.16.27.31.25.6.09s.42-.23.64-.32c.06,0,.16,0,.22.07a.21.21,0,0,1,0,.18c-.05.34-.53.3-.56.69s-.23.5-.17.7a6.17,6.17,0,0,0,.53,1.1c.15.3.14.37-.11.61-.45.44-.45.43-.2.94l.41.85c.32.12.62.25.92.34.55.18.61.67.73,1.12-.25.36-.09.74,0,1.12,0,.13-.41.44-.54.37a1.21,1.21,0,0,0-1.11-.06l-.89-.34s-.07-.14-.1-.21c-.35.15-.76.24-.82.73,0,.17-.16.23-.32.31-.31.17-.36.31-.25.53s.21.72.67.88.49.35.3.91a.54.54,0,0,0,.28.75l.22.09a.55.55,0,0,1,.3.74l-.13.42a1.45,1.45,0,0,1,.22.09,1.3,1.3,0,0,1,.33.23s0,.14-.08.21c-.26.41,0,.74.18,1.08,0,.12.22.19.35.26s.15-.06.22-.09a1.45,1.45,0,0,1-.09-.22c-.06-.21-.26-.4-.09-.66s.15-.6.46-.79.56-.08.63.09l.45,1.11a.38.38,0,0,1-.06.43s-.14,0-.19,0a.78.78,0,0,0-.89,0,2,2,0,0,1-.22.09c0,.08,0,.19.09.22.29.14.59.25.94.4.4-.16.83-.35,1.28-.49a.41.41,0,0,1,.38.17c.19.44.33.89.48,1.34,0,.06-.06.15-.11.26a1,1,0,0,0-1.08-.14c-.16.06-.41-.12-.62-.19-.18.23.07.47,0,.66a9.52,9.52,0,0,1-.49,1.29l.57.34a2.78,2.78,0,0,0-.19.44.56.56,0,0,0,.23.6c.22.11.44.2.66.29s.5,0,.73-.37c.08-.13.14-.33.25-.37a10.54,10.54,0,0,1,1.34-.45c.17,0,.29.12.3.31a.31.31,0,0,0,.32-.3.41.41,0,0,0,0-.22L230.8,73c-.18-.5-.13-.6.46-.83s.69-.15.8.1.25.59.34.89a.71.71,0,0,0,.47.48c.29.12.58.26.91.41l.33.84c.07.17.46.21.62.08a1.51,1.51,0,0,0,.48-1.22c-.34.09-.5,0-.49-.16a.31.31,0,0,1,.32-.29l-.46-1.16a.92.92,0,0,1-.8-.73,6.85,6.85,0,0,0-.34-.87c-.63-.31-.63-.31-.74-.57s-.29-.74-.42-1.07l-1.18-.51c0-.13,0-.27.08-.4.11-.4,0-.64-.25-.79l-.44-.19a1.25,1.25,0,0,0,0-1.34l-.11-.22c-.44-.12-.83-.53-1.34-.22,0,0-.16,0-.21-.06-.26-.27-.42-.65-.86-.73-.1,0-.21-.24-.23-.38a.48.48,0,0,1,.11-.41,3.5,3.5,0,0,1,.65-.3c.3-.14.35-.19.22-.57s-.11-.47.09-.63a.6.6,0,0,1,.66-.06c.29.15.6.25.9.38,0,0,.11-.07.13-.12a1.54,1.54,0,0,0,.08-1.38c-.79-1.64-1.54-3.32-2.37-4.93-.7-.26-1.32-.47-2-.69.11-.46.22-.93.31-1.4l-.4-.69c-.19-.31-.25-.37-.6-.2s-.54.09-.79-.24-.39-.38-.47,0l-.11.48-1-.27-.38-.6c0-.07-.09-.18-.15-.2a4.64,4.64,0,0,1-.69-.22c-.19-.11-.24-.44-.55-.45a1.58,1.58,0,0,1-.47-.1c-.13,0-.35-.56-.26-.64a1.39,1.39,0,0,0,.44-1.06c0-.31.57-.43.79-.19a8,8,0,0,0,1,1.22.29.29,0,0,0,.44-.08.46.46,0,0,1,0-.67c.35-.5.35-.5.11-.83-.41-.52-.83-1-1.27-1.54-.78-.15-.8-.14-1-.4a19.76,19.76,0,0,0-1.9-1.68,1.67,1.67,0,0,0-1.45-.49.42.42,0,0,1-.21-.11c0-.71-1.39-.95-1.62-1.64-.34.06-.65.12-1,.2-.25-.19-.51-.4-.81-.61a3.22,3.22,0,0,1-1.84.42,1.67,1.67,0,0,0-1.06.35c-.41.3-.42.31-.82.2a10.91,10.91,0,0,0-1.37-.29,13.34,13.34,0,0,0-1.2.59c-.19.11-.4.21-.58.33l-.52.35a1.29,1.29,0,0,0-.43.48c-.44.78-.35.82-.64,1a1.41,1.41,0,0,0-.6,1.2l-.72.16a13.44,13.44,0,0,0,0,1.41,3.79,3.79,0,0,0-.66.18c-.22.12-.31.42-.61.5-.56.16-.55.18-.81.55l-.31.45c0,.33.1.67.16,1l.74-.14c.06.47.15,1,.22,1.44a.69.69,0,0,1,0,.24.58.58,0,0,1-.1.21c-.27.37-.06.55.21.77s.17.73-.27.88l-.42.16c.1.39.24.78.32,1.17a.58.58,0,0,1-.14.42,1.41,1.41,0,0,1-1.09.36c-.28,0-.54-.29-.81-.46a.23.23,0,0,1-.06-.22c.21-.44.48-.86.67-1.32a1.06,1.06,0,0,1,.94-.65c-.08-.32-.16-.64-.25-1-.37-.22-.77-.48-1.19-.69a.43.43,0,0,0-.41.14c-.51.81-.95,1.63-1.39,2.44a.47.47,0,0,0,0,.47c.09.18.09.32,0,.39s-.15,0-.23.08a1.36,1.36,0,0,0-.71,1.14c0,.16.17.36.12.46a1.29,1.29,0,0,0,0,1.15s-.07.14,0,.26a.38.38,0,0,1,.18.24s0,.14,0,.16-.25.09-.31,0a.32.32,0,0,1,.06-.39s.14,0,.09,0c-.23-.18-.41-.22-.53-.07a3.88,3.88,0,0,0-.47.81c0,.12,0,.3.06.45s.06.3-.3.42-.35.3-.45.51-.3.4-.16.66a.8.8,0,0,1-.05.89.2.2,0,0,0,.08.21,1.61,1.61,0,0,1,.74,1.12c0,.17-.09.56-.23.61-.3.11-.6.21-.91.3-.11,0-.52-.33-.49-.44a2.54,2.54,0,0,0,.12-.43c0-.13,0-.36-.11-.37a.3.3,0,0,0-.35.24c-.07.28-.31.32-.53.4a.56.56,0,0,0-.38.72c0,.14.09.29.13.43l-.61.24c0,.1.06.18.09.25.12.37.18.76.65.9.15.05.12.43-.06.63s-.24.12-.37.18a2,2,0,0,0-.08-.22,2.68,2.68,0,0,0-.19-.42c-.1-.15-.55-.22-.65-.09s-.22.26-.21.39a3.38,3.38,0,0,0,.17.68l-.64,1.23c-.37.68-.77,1.34-1.09,2a1.13,1.13,0,0,1-.89.56c0,.3.25.57,0,.87-.39.55-.69,1.17-1.09,1.69a1,1,0,0,0-.12.83c0,.2-.17.39-.17.59a5,5,0,0,0,.16.9c0,.31.1.61.16,1-.37.43-.73.92-1.15,1.34a.46.46,0,0,1-.41,0c-.35-.3-.77-.58-.71-1.11,0-.09-.16-.26-.28-.33a1,1,0,0,0-.39-.08l0,.21a.62.62,0,0,1-.13.57c-.41.45-.83.79-1.24,1.19,0,0,0,.14,0,.2a2,2,0,0,0,.11.2c.21.37.23.49.09.51a.33.33,0,0,1-.35-.24.38.38,0,0,0-.34-.26c-.1,0-.11.11-.11.29s0,.27-.35.15l-.19-.09c0,.12,0,.27,0,.36.22.42.38.89.91.95,0,0,.08.12.06.14-.24.41.28.88.05,1.31a.45.45,0,0,0,0,.45c.19.46.44.83,1,.84l.58,1A.39.39,0,0,1,187.32,85.65Zm14.24-26.46a2.76,2.76,0,0,0-.2.43.28.28,0,0,0,.06.23,5.25,5.25,0,0,0,1.22.69c.18.11.2.36.09.61s-.16.28-.34.27-.1-.07-.13-.12-.08-.47-.34-.58l-.64-.32c-.52-.24-.51-.25-.39-1.07a.3.3,0,0,0-.08-.22s-.14,0-.2,0c-.29.18-.31.53-.5.78a1.4,1.4,0,0,1-.38.22c0-.07-.09-.16-.07-.22a1.52,1.52,0,0,0,0-1.13.46.46,0,0,1,.16-.42,2.61,2.61,0,0,1,.88-.33,1.09,1.09,0,0,1,.51.13C201.83,58.53,201.85,58.63,201.56,59.19ZM217.81,48.4c0-.17-.05-.34-.08-.5a.51.51,0,0,1,.56-.58c.26,0,.53,0,.82,0a5.81,5.81,0,0,1,.12,1,1.18,1.18,0,0,0,.41.88c.12.12-.11.57-.27.58-.47.05-.93.2-1.32-.18a.59.59,0,0,0-.43-.12c-.4,0-.39,0-.41-.28l-.09-.7Zm-10-2a.39.39,0,0,1,0-.49s.16,0,.24,0c.26,0,.51.11.87-.08a1.29,1.29,0,0,0,.55-.69,1.13,1.13,0,0,1,.88-.42.34.34,0,0,1,.42.26l.06.23.06.23a.51.51,0,0,1-.23.65,1.43,1.43,0,0,1-.84.1c-.41-.09-.44,0-.57.26a3.13,3.13,0,0,0-.28.73c0,.24-.09.34-.27.3s-.18,0-.22-.08-.28-.39-.41-.58ZM197.51,67.16a2.56,2.56,0,0,0-.64.12.22.22,0,0,1-.19-.29c.06-.2.11-.46.4-.5a3.81,3.81,0,0,0,.44-.15c.32-.11.31-.1.43.22s.18.41.26.61C197.93,67.33,197.73,67.21,197.51,67.16Zm13.88-17.52c0,.19,0,.27-.15.24a.44.44,0,0,1-.28-.3,1.94,1.94,0,0,0-.22-.4.37.37,0,0,1-.07-.42c.05-.11.15-.1.31,0a4.25,4.25,0,0,1,.54.32A2,2,0,0,0,211.39,49.64Zm-18,21.93a.15.15,0,0,1,.14.07c0,.06.09.16.07.21s-.13.47-.42.47-.56-.16-.65-.59ZM216.55,44.8a.41.41,0,0,1-.49,0,.79.79,0,0,1-.16-.23.42.42,0,0,1,.5,0C216.45,44.65,216.57,44.79,216.55,44.8ZM188.43,82.52s0-.15,0-.22.16-.15.35-.09c0,0,0,.14,0,.22S188.61,82.58,188.43,82.52Zm11.14-15.45c-.11-.16-.11-.29,0-.35s.2-.09.21-.07.11.28,0,.35S199.58,67.09,199.57,67.07Zm-.12,1.85s-.13.06-.21.07-.19-.09-.2-.29c0,0,.13,0,.21-.07S199.44,68.72,199.45,68.92Z"/><path class="cls-1" d="M260.2,93.78l-.92.33a.57.57,0,0,1-.08-.2,2.78,2.78,0,0,1,.41-1.08c.22-.53.28-.54.9-.26.07,0,.21.07.21.1,0,.19-.13.27-.31.31s-.27.12,0-.07a2.67,2.67,0,0,0,.71-1l1.19-.3c.29-.63.53-1.14.76-1.65.11-.23.26-.27.58-.18s.78-.11.72-.53c0-.08-.06-.15-.07-.23-.12-.56-.06-.67.46-.86l.22-.08c.36-.12.79-.16.89-.63l.65-.24a.57.57,0,0,0-.69-.46c-.16,0-.3.13-.45.13a.8.8,0,0,1-.43-.19c-.14-.12-.15-.29,0-.35s.35-.06.43-.16,0-.41-.08-.61-.11-.31-.2-.34-.29.08-.35.26c-.12.38-.5.32-.78.44s-.32.11-.41-.28-.53-.32-.59-.67.23-.56.11-.91-.06-.39.46-.3c.07,0,.15.09.21.07.31-.08.61-.19.92-.27.15,0,.35-.1.45,0a7.49,7.49,0,0,1,1.61,1c.05,0,.08.18.05.21s-.14,0-.22.07c-.49.17-.53.22-.32.39s.35.31.61.23a4.87,4.87,0,0,0,.68-.2c.26-.12.31-.51.68-.51.08,0,.21,0,.22,0a.84.84,0,0,0,0-.39c-.12-.27,0-.44.15-.62s.16-.43.44-.46a1.64,1.64,0,0,0,.45-.1.46.46,0,0,0,0-.76,2.9,2.9,0,0,0-.6-.38.66.66,0,0,0-.44,0c-.21.07-.31.06-.34-.11a.46.46,0,0,1,.14-.42c.23-.25.57-.22.86-.25a1.13,1.13,0,0,0,.89-.57c.22-.35.24-.37-.12-.75-.11-.11-.27-.28-.18-.39.4-.46.21-.77-.15-1.15-.12-.12,0-.28.1-.42s.22-.25.39-.19.26.17.39.22.37.07.4,0a.36.36,0,0,0-.13-.41,1,1,0,0,1-.15-1.22s.18,0,.22,0c.3.27.58.55.86.83.05,0,.1-.15.15-.15A11.24,11.24,0,0,1,273,77c.05-.46-.36-.66-.56-1a.44.44,0,0,1,.12-.58.82.82,0,0,0,.34-.52c0-.27.17-.25.17-.23a.59.59,0,0,1,0,.35c-.09.2-.23.18-.28,0s0-.23.11-.08a5.29,5.29,0,0,0,.77,1.21c0,.13,0,.28,0,.42s.16.42.33.56a.31.31,0,0,0,.39,0l.31-.24c.28-.21.27-.21,0-.72a1.86,1.86,0,0,1-.1-.2.3.3,0,0,1,.17-.35c.13-.1.25-.17.38-.07s.31.32.47.47.15.09.19.07.05-.14,0-.2a2.82,2.82,0,0,1-.18-.64c0-.36.38-.32.59-.47a4.32,4.32,0,0,1,.53-.26c.35.19.67.38,1,.56a.13.13,0,0,0,.13,0,.34.34,0,0,0,0-.43.35.35,0,0,1,0-.44c.07-.08.19,0,.32.11a.38.38,0,0,0,.37.13l.93-.22c.09,0,.16-.2.21-.33s0-.15,0-.23l-.13-1.17c.49-.25.14-.9.52-1.23a14.35,14.35,0,0,1,1.5-.06,5.26,5.26,0,0,1,.44.49,1.22,1.22,0,0,0,.92.6.2.2,0,0,1,.13.17c0,.32-.06.63-.09.93.13.21.25.37.36.57s.15.26.43.06a.54.54,0,0,1,.38-.15,1,1,0,0,1,1,.69c.07.22.55.11.7-.13a2,2,0,0,0,.07-.23c.22-.4.63-.34.83.06l.19.37c.19-.08.38-.17.57-.24.16.38.28.76.4,1.11a5.07,5.07,0,0,0,1.22-.43l.23.64a.67.67,0,0,1,.5.65c0,.15.14.22.28.3l1.16.64c.14.07.17.2.21.36.17.58.19.61.75.51s.82.32,1.3.07c.05,0,.14.17.08.34s-.17.26-.23.4a.25.25,0,0,0,0,.22s.12,0,.18,0c.29-.08.4-.56.74-.46a3.42,3.42,0,0,1,.78.54c0,.36.08.74.11,1.12,0,0,0,.14.08.15a.36.36,0,0,0,.4-.19.39.39,0,0,1,.58-.19,4.11,4.11,0,0,1,.67.59c-.18.59.61.85.45,1.44a1.31,1.31,0,0,0,0,.68c0,.13.19.22.31.31a.36.36,0,0,0,.23,0c.47-.15.72.17,1,.42.27-.22.44-.25.5-.08a.3.3,0,0,1-.16.39l.35.31a.7.7,0,0,1,.48-.15l1.67.69a.39.39,0,0,1,.37-.08c.35.12.53.59,1,.45.05,0,.14.06.19.11.29.26.56.55.87.78a.45.45,0,0,0,.45,0,1.53,1.53,0,0,1,1-.55c.16,0,.19-.23.2-.39,0-.31-.15-.65.14-.91a.87.87,0,0,0,.35-.84s.09-.13.16-.17c.42-.24.79-.06.79.4s0,.79.36,1c.14.08.11.26.14.42.08.39.12.41.44.39l2.4-.11c.44,0,.48-.27.54-.61s.17-.5.38-.22.94.13,1.18.61a.27.27,0,0,0,.19.1l1.9-.16c.06,0,.16-.11.17-.17,0-.32,0-.63,0-.93l.49-.56c-.36-.26-.56-.77-1.15-.66a.21.21,0,0,1-.18-.12,1.21,1.21,0,0,1,.13-1.31.87.87,0,0,0,.24-.38,5.13,5.13,0,0,0,0-1c0-.38.23-.56.49-.84l-1.15-1a.78.78,0,0,0-.21,0c-1.12,0-2.25.11-3.37.14-.38,0-.55.26-.8.48l-.51-.42c-.54,0-1.1.06-1.66.07a.44.44,0,0,0-.42.17.86.86,0,0,1-.82.37c-.28.28-.55.58-.85.86a.59.59,0,0,1-.65.06.31.31,0,0,1-.17-.4,3.68,3.68,0,0,0,0-.47,2.12,2.12,0,0,1-.71,0c-.2-.06-.34-.27-.51-.41a6.47,6.47,0,0,1-.53.52.55.55,0,0,0-.19.41c0,.44-.21.57-.59.51a.25.25,0,0,1-.11,0l1.77.72c0-.1,0-.21-.05-.3h.25l.12,0-2.09-.85a1.44,1.44,0,0,0,.18-.25s-.1-.1-.16-.15l0,0,2.38,1a.9.9,0,0,1,.19-.6c.24-.35-.06-.74-.53-.77l-.47,0c0-.35,0-.35-.63-.64-.06,0-.15-.08-.14-.1.15-.6-.69-.94-.55-1.54,0-.12-.4-.35-.6-.37s-.48.12-.7-.13-.65,0-.94-.15a.63.63,0,0,1-.44-.56.59.59,0,0,0-.14-.44c-.4-.32-.84-.6-1.27-.88-.05,0-.17,0-.24,0s-.1.11-.16.16c-.32.31-.52.34-.82,0a1.29,1.29,0,0,1-.19-.41l.24,0c.15,0,.42,0,.43-.11,0-.28-.21-.44-.44-.55a1.18,1.18,0,0,1-.67-1,1.36,1.36,0,0,1-1.21-.17c-.58-.41-1.25-.7-1.83-1.08-.19-.12-.23-.43-.34-.64a2.36,2.36,0,0,1-.51.12,2.26,2.26,0,0,1-1.18-.53c-.11-.6-.7-.75-1.2-1a.44.44,0,0,1-.19-.17c-.06-.07-.08-.15-.14-.22a.81.81,0,0,0-1.15-.34c-.62.25-.62.23-.27.81l.41.72c-.07.19-.14.41-.22.63s-.23.42-.52.36a1.3,1.3,0,0,0-.73,0c-.6.23-.63.23-1-.3a1.19,1.19,0,0,0-.63-.38c-.11,0-.17-.21-.25-.32.39-.23.77-.44,1.24-.66.1-.39.22-.85.33-1.3.07-.26-.48-.63-.85-.51a4.52,4.52,0,0,0-.49.25.78.78,0,0,1-.8-.11c-.28-.24-.47-.53-1-.54s-1-.11-1.57-.11a4.14,4.14,0,0,0-.6.09c-.87.15-.87.15-1.13,0-.36.27-.71.61-1.05.9s-1,.2-1.19.67c-.08.19-.62.32-.77.25a14.1,14.1,0,0,0-2.12-.81c-.32.46-.63.9-.92,1.39l-1.07.52a2.05,2.05,0,0,1-.83,1c-.06,0-.12.21-.09.25.3.34.17.74,0,1.14a4.76,4.76,0,0,1,.77.13c.28.09.47-.1.7-.2s.38.1.29.39a3.93,3.93,0,0,0-.13.63,13,13,0,0,0-1.55,1,.4.4,0,0,1-.45.1.6.6,0,0,1-.34-.55c0-.17,0-.33.09-.53l-.7-.94c-.19-.26-.32-.32-.63-.14a1.14,1.14,0,0,1-.75.26c-.41-.07-.63.29-.93.51s-.34.62-.37,1l-.72.11a4.27,4.27,0,0,0,0,1c.09.47-.46.75-.36,1.18.05.2,0,.35-.09.41a.33.33,0,0,1-.44-.1,2.06,2.06,0,0,0-.82-.52.43.43,0,0,1-.3.15c-.06,0-.14,0-.16,0-.08-.2,0-.29.15-.33s.31,0,.38.12-.09.14-.07.09c.31-.38.53-.68.79-.94a.48.48,0,0,0-.09-.83.55.55,0,0,0-.47,0c-.5.56-1,1.15-1.42,1.72l-.3.06c-.39.11-.39.11-.4.44,0,.64-.06.68-.66.93s-.66.41-.62.72.12.67.14,1a1.08,1.08,0,0,0,.64.94c.41.23.43.4.21.77-.14.22-.28.44-.4.66s-.17.28-.1.92a.67.67,0,0,1-.3.62.31.31,0,0,1-.44,0,.61.61,0,0,0-.21-.11.74.74,0,0,1-.55-.7c0-.32-.29-.38-.5-.44s-.32.09-.4.24c-.62,1.15-1.21,2.29-1.76,3.42a.36.36,0,0,0,0,.23c0,.08.06.18.11.2.49.18.58.49.29.93.14.46.27.92.41,1.38l-.52,1.11c-.13.29-.2.37-.56.22s-.6,0-.9.13l-.27-.63-.91.35c.08.37.27.71,0,1.11a9.73,9.73,0,0,0-.6,1.31c.2.5.28,1.09,1,1.22a.39.39,0,0,1,.33.29c.1.37.39.69.16,1.12-.15.28.23.55.12.88s-.35.45-.51.37c-.41-.21-.94-.28-1-.88-.17-.14-.35-.27-.51-.43a.28.28,0,0,1,0-.43c-.14-.12-.33-.16-.43,0a7.92,7.92,0,0,0-1.05,2.22.25.25,0,0,0,.09.2c.12.09.29.22.41.2.44-.06.83-.31,1.29-.33.11.29.23.59.32.88,0,.06-.06.14-.1.21a2.62,2.62,0,0,1,.58.29.38.38,0,0,1,.07.55c.07,0,.15.12.21.1.23,0,.45-.13.68-.18s.21,0,.56.67c0,.07.06.17.11.19a.84.84,0,0,1,.54.71c0,.14.18.13.36,0a.68.68,0,0,1,.66.05c.75.33.76.33,1.09-.32.17-.35.17-.35.68-.6a.51.51,0,0,0,.1-.92c-.43-.33-.44-.39-.07-.56a.75.75,0,0,0,.49-.46,1,1,0,0,1,.8-.78c.09,0,.08-.29-.07-.35-.47-.19-.61-.45-.34-.9a9.24,9.24,0,0,0-.29-.89.57.57,0,0,0-.58-.28c-.19,0-.27.12-.32.3a.55.55,0,0,0,0,.53c.45.22.6.44.52.55s-.43.08-.62-.06a.51.51,0,0,1-.13-.16.42.42,0,0,1-.06-.21c0-.24.11-.27.29-.12s.14.07,0,0c-.39-.11-.51-.22-.5-.4s.1-.43.11-.65-.11-.29-.65-.07A.89.89,0,0,0,260.2,93.78Zm28.43-21.86a.7.7,0,0,1-.31.18c-.23,0-.29-.11-.12-.26a.65.65,0,0,1,.35-.1c-.29,1.91-.59,2-.87,2.13a.43.43,0,0,1-.4-.11,5.52,5.52,0,0,1-.42-.8.63.63,0,0,1,.17-.61,3.88,3.88,0,0,1,.86-.38c.24-.06.3.09.14.28.19.41.36.84.51,1.27,0-.89,0-1.3.07-1.48S288.64,71.91,288.63,71.92Zm9.53,6.93-.63.75-1,.12c0-.42-.32-.84.07-1.29.18-.21.08-.37-.18-.56s-.39-.28-.56-.43a.25.25,0,0,1,0-.23,1.4,1.4,0,0,1,1.29,0c.74.48.73.49,1.3-.21.2-.25.42-.48.6-.74a.4.4,0,0,1,.39-.22.75.75,0,0,1,.55.41c0,.08,0,.19,0,.23-.14.2-.3.37-.45.55a.46.46,0,0,0,.19.76c.13.06.4.08.44,0,.32-.52.87-.32,1.34-.36.11,0,.3.16.37.29a.81.81,0,0,1,.08.46.47.47,0,0,0,.21.41c.26.23.28.39.13.59s-.46.37-.6.23a.94.94,0,0,0-.88-.26.47.47,0,0,1-.42-.19c-.17-.16-.37-.3-.46-.38Zm6.07,3.84c.24.23.24.23,0,.49l-.5.49-1.42,0c-.06,0-.14-.09-.16-.15a4.48,4.48,0,0,1-.08-1.37c0-.23.17-.39.46-.4l.75,0Zm-38.79-1.54s-.14.07-.22.07a.2.2,0,0,1-.14-.08c-.23-.52-.23-.55-.52-.45s-.34.08-.31-.13a.81.81,0,0,1,.16-.44c.3-.33.74-.3,1.13-.39s.39-.26.55-.44a.25.25,0,0,1,.37,0,.22.22,0,0,1,0,.23c-.17.28-.36.55-.54.82h0C265.79,80.59,265.63,80.88,265.44,81.15Zm30.9-5.73a1.22,1.22,0,0,1-.18-.4l.24,0a4,4,0,0,0,.48-.07c.2-.06.31,0,.36.09a.31.31,0,0,1-.12.41C296.92,75.71,296.64,75.7,296.34,75.42Zm-2.62-.56c-.19-.15-.19-.36-.07-.6A.38.38,0,0,1,294,74q.19,0,.21.3a.86.86,0,0,0,.05.23c0,.15.09.29.13.43A.62.62,0,0,1,293.72,74.86ZM274.09,71a.29.29,0,0,1-.24-.06,1.81,1.81,0,0,1-.28-.34.32.32,0,0,1,0-.22c0-.07.05-.19.11-.22s.17,0,.24,0a.58.58,0,0,1,.17.14C274.22,70.6,274.23,71,274.09,71Zm24.1,5.33c0,.18-.29.18-.54,0a.74.74,0,0,1-.19-.15.34.34,0,0,1,0-.22c0-.12.14-.18.34-.14s.13.09.2.14A.31.31,0,0,1,298.19,76.37Zm10,5.58c-.16.09-.31-.1-.31-.4a.59.59,0,0,1,0-.23.52.52,0,0,1,.16-.17c.11-.06.23,0,.31.17a.58.58,0,0,1,0,.23A.31.31,0,0,1,308.16,82ZM269.3,76.43c0,.07,0,.21,0,.22-.18.07-.31,0-.34-.08a1.79,1.79,0,0,1,0-.23C269.15,76.28,269.27,76.31,269.3,76.43Zm-1.11,2.77c.08.18.06.3-.05.35s-.21,0-.22,0c-.08-.17-.05-.29.05-.35S268.18,79.18,268.19,79.2Zm27.49-.8c0-.07-.05-.2,0-.21.17-.08.3-.06.35,0a1.3,1.3,0,0,1,0,.22C295.84,78.52,295.72,78.5,295.68,78.4Z"/><path class="cls-1" d="M72.43,86.26a.51.51,0,0,1,.35-.5c.21-.08.38,0,.54.24s.35.28.57.12c.38-.28.7-.66,1.07-1s.16-.59.18-.9a1,1,0,0,0,1-.41l1.11-1.55s0-.17,0-.23-.23-.2-.32-.32-.13-.37.14-.44c.12,0,.29-.08.33-.16a.3.3,0,0,0-.23-.38.32.32,0,0,1-.25-.37A.17.17,0,0,1,77,80.3l.44-.1c.37-.08.79-.06.93-.54l.66-.19a1,1,0,0,1,.08-1.12,3.77,3.77,0,0,0,.34-.63.43.43,0,0,1,.36-.24c.14,0,.35-.08.39-.18.24-.56.84-1,.47-1.76,0,0,0-.1.09-.13a1.87,1.87,0,0,1,.22-.07c.46-.2.52-.33.38-.92-.08-.38,0-.68.34-.75a.87.87,0,0,0,.67-.57s.15,0,.22-.08.33-.08.36-.18-.08-.29-.23-.37l-1-.58a.54.54,0,0,1,0-.66A1.83,1.83,0,0,1,82,71a1.42,1.42,0,0,0,.22-.07c.1-.07,0-.21,0-.4-.1-.44,0-.7.3-.79l1.13-.34A6.23,6.23,0,0,0,85,69l.94-1.7c.16-.28.28-.57.43-.86-.24-.5,0-.7.47-.73,0,0,.12-.09.15-.16.23-.44.51-.82,1.07-.81.15,0,.33-.51.27-.61s-.17-.14-.37-.07-.18.07-.23,0l-2-1.34a.31.31,0,0,1-.09-.21c0-.41-.26-.82.13-1.23a1.44,1.44,0,0,0,.42-1.21.66.66,0,0,1,.5-.57,5.74,5.74,0,0,1,1-.1c.27,0,.34.55.14.83l-.2.24A22.85,22.85,0,0,0,87.89,63l.32.25a1,1,0,0,1,.19.15.31.31,0,0,0,.43.11.6.6,0,0,0,.38-.54c0-.3-.15-.65.37-.6a.36.36,0,0,0,.4-.19,1.1,1.1,0,0,1,1.19-.59,8.63,8.63,0,0,1,.87-.84.41.41,0,0,0,.1-.61c-.28-.39-.55-.78-1.16-.66-.14,0-.35-.35-.33-.56a5.24,5.24,0,0,1,.08-.53l-.6-.74c-.32-.43-.32-.43-1-.06-.29.15-.5.15-.69-.06s-.45-.21-.68,0a33,33,0,0,0-2.34,2.66c-.28.36-.17.68-.18,1a1.49,1.49,0,0,0-1,.64c-.68,1.08-1.34,2.11-2,3.16l.11.71-.61.22c.09.37.15.71.25,1s.08.33-.08.37-.16,0-.22,0c-.21-.1-.41-.24-.62-.35s-.43-.1-.58.19C79.73,68.63,79,70,78.35,71.4c.12.45.25.91.38,1.37l-.32.64c-.15.28-.29.33-.56.19a4.28,4.28,0,0,0-.63-.34.39.39,0,0,0-.39.12l-1.17,2.23a.46.46,0,0,0,0,.44.62.62,0,0,1-.05.63c-.16.24-.24.54-.6.56a.54.54,0,0,0-.36.18l-1.2,2c0,.07,0,.24.07.36.36,0,.72,0,1.08-.09.06,0,.14,0,.21.06s.41.41.34.55-.31.48-.46.72c.26.47-.14.83-.1,1.26,0,.14.06.34,0,.43a5.4,5.4,0,0,1-1.45,1.45.19.19,0,0,1-.2,0c-.2-.24-.4-.49-.59-.74,0-.23,0-.44-.06-.66s.1-.5.37-.49l.43,0c.2-.22.4-.49.61-.75a.39.39,0,0,0,0-.56l-.37-.31c-.36-.29-.51-.31-.69-.07a8.24,8.24,0,0,1-.55.67,2.51,2.51,0,0,1,.08.45.24.24,0,0,1,0,.14c-.36-.09-.59-.07-.77.15a1.39,1.39,0,0,1-.35.34c-.11.08-.23.2-.34.27s0,.37,0,.48-.21.21-.32.27l-.18.1a.35.35,0,0,0-.17.06s-.06.18-.09.3a2.12,2.12,0,0,0-.1,1,.92.92,0,0,1-.1.64.87.87,0,0,0-.16.63.47.47,0,0,1-.07.21c0,.06-.09.15-.13.14a.19.19,0,0,1-.12-.15A1.94,1.94,0,0,1,69.39,85c.13-.2.08-.35-.06-.42-.31-.21-.3-.2-.24-.73l0-.23a4.29,4.29,0,0,1-2.41-1s-.12,0-.18,0-.17.12-.17.31,0,.53,0,.81a.75.75,0,0,1-.42.49,4.54,4.54,0,0,1-.66.14c-.28,0-.48-.19-.48-.53a5.1,5.1,0,0,1,0-.67,3.43,3.43,0,0,0,.33-.33.92.92,0,0,1,.77-.39c.26,0,.4-.23.52-.4s0-.25-.08-.25-.43.12-.59,0c-.4-.4-.8-.85-1.21-1.31-.07-.08-.27-.09-.41-.08s-.35-.22-.53-.31a2.5,2.5,0,0,0-.65-.13c-.13,0-.27-.39-.26-.56s.19-.44,0-.62c-.44.3-.88.62-1.34.9-.08,0-.25,0-.36-.09s0-.16,0-.21.24-.18.35-.28.41-.2.49-.44-.16-.39-.22-.59,0-.21,0-.21a1.15,1.15,0,0,1,.37,0c.05,0,.08.11.12.17l.5.73c.19-.06.32-.21.24-.36-1-1.69-2.15-3.35-3.25-5.17-.06-.11-.27-.16-.41-.18s-.36-.29-.54-.43a2.41,2.41,0,0,0-.67-.23c-.13,0-.27-.46-.25-.64s.05-.33.07-.48c-.37-.57-.76-1.14-1.16-1.72a1.08,1.08,0,0,1-1-.61,1.46,1.46,0,0,0-.16-.21,1.32,1.32,0,0,1-.45-1.17,1.61,1.61,0,0,0-1.13-1.06c-.65-.13-.72-.19-.87-.87L53,65.21a10.81,10.81,0,0,0-4.08-2.27,9.11,9.11,0,0,0-5.32.1c-.63.23-.73.59-1,.92a15.47,15.47,0,0,0-1.51,1c-.41.35-.89.72-1.23,1.08a2.45,2.45,0,0,0-.8.18,2.35,2.35,0,0,0-.61.65l-.17.22c0,.34,0,.68,0,1a.84.84,0,0,1-.18.68c-.23.26-.43.55-.63.81s-.35.19-.63,0-.49-.14-.63,0c-.4.53-.78,1-1.13,1.5-.21.3-.52.26-.84.31,0,.2.05.41.07.63-.26.35-.54.66-.81,1a7.41,7.41,0,0,1-.88.89c-.3.27-.26.59-.22,1q-.62.56-1.23,1.08l-1.25,1-.13.59c-1-.35-1.3.53-2,.68a.51.51,0,0,0-.18.09s-.11.09-.11.15c-.08.82-.86.75-1.34,1a2.55,2.55,0,0,1-.77.29c-.32.07-.34.4-.48.69l-1.06.33-1.11.27c-.24,0-.33.22-.44.4a.47.47,0,0,1-.71.17l-.36-.26c-1,.16-2,.28-2.95.35-.2.21-.3.51-.66.51-.87,0-1.75,0-2.63,0a.48.48,0,0,0-.37.2.62.62,0,0,1-.34.25,6.78,6.78,0,0,1-.9,0,5.21,5.21,0,0,0-1.11-.06c-.27,0-.5.3-.77.37a1.2,1.2,0,0,1-.67-.07,1.05,1.05,0,0,0-1,.32c-.09.07-.3,0-.44,0a.37.37,0,0,0-.2.11.18.18,0,0,0-.06.15c0,.07.08.18.13.19a.87.87,0,0,1,.76.44c.21.32.75.17.91.63,0,.15.19.11.34-.06a.63.63,0,0,1,.62-.21c.3.06.63,0,.82.32s.22.25.33.15c.3-.25.58-.53.87-.8,1.08.06,2.17.06,3.25,0,.62,0,1.23-.1,1.85-.1.47,0,.65-.3.87-.57A28.56,28.56,0,0,0,23,83c.59.35.59.33.85.27.75-.18,1.49-.42,2.22-.66a.45.45,0,0,1,.44.07c.16.12.3.14.38,0a.31.31,0,0,0,0-.43c-.12-.15-.14-.33,0-.42s.26,0,.39.07.16.1.21.08c.29-.1.56-.25.86-.33s.57-.47.62-.86c.67.19.68.18,1.1,0,.69-.36,1.31-.82,1.95-1.22l0-.26c.09-.56.18-.63.72-.64s.64,0,.75-.59a.9.9,0,0,1,.13-.41,1.21,1.21,0,0,1,1.22-.52c.1,0,.33-.19.33-.3,0-.44.16-.89-.29-1.26-.2-.18-.12-.34.07-.57a1.21,1.21,0,0,1,.95-.55c.36,0,.58-.46,1-.41.11,0,.09-.17.08-.36,0-.51.07-.61.65-.72l.26,0c0-.22-.14-.48-.06-.66a2,2,0,0,1,.57-.75,1.67,1.67,0,0,1,.69-.15c.2-.28.4-.53.59-.79s.19-.23.2-.87a.57.57,0,0,1,.39-.54c.79-.32.78-.31,1-.56a1.45,1.45,0,0,0,.17-.18A1.11,1.11,0,0,1,42.55,68a.49.49,0,0,0,.46-.45c0-.07,0-.16,0-.24a.57.57,0,0,1,.69-.48l.24,0c.35.08.35.11.27-.37,0-.14-.13-.32-.06-.43.21-.35.4,0,.6,0a1.83,1.83,0,0,1,1.13.27c.29.19.73.06,1.11.09a1.3,1.3,0,0,0,1.29-.13,1.53,1.53,0,0,1,.77.29.82.82,0,0,1,.37.74,12.75,12.75,0,0,1,1.79,1.43c.07.07.31,0,.41,0s.34-.3.6-.23c0,.41,0,.81-.05,1.22s.19.45.62.54a.91.91,0,0,1,.23,0,.2.2,0,0,1,.08.14,3.71,3.71,0,0,1,0,.48l.67.19.52.74c.54.8,1.1,1.58,1.57,2.43a1.22,1.22,0,0,0,.94.58c-.16.7-.15.7.13,1.11a2.39,2.39,0,0,1,.13.21.34.34,0,0,0,.39.21c.21-.06.45-.14.5-.42s.07-.32.1-.47l1.63-1c.05,0,.17,0,.23,0a.23.23,0,0,1,0,.37,5.94,5.94,0,0,1-.78.49l-.44,1.94L58,77.24a2.71,2.71,0,0,0-.18.88,2.94,2.94,0,0,0,.43.82,2.39,2.39,0,0,1,.13.21c.16.36.51.34.81.41a1.28,1.28,0,0,1,0,.19c-.06.55,0,.59.36.48a1.53,1.53,0,0,1,1.28.06s0,.17,0,.22c-.43.49-.43.49-.47.75l-.07.47c0,.17.22.44.43.5.83.28.83.25.77,1.12a19.61,19.61,0,0,0,2.07,2.11,1.24,1.24,0,0,1,1.1.26c.26.25.27.24.44.76,0,.16.17.22.35.09s.16-.28.28-.38.35-.1.34,0c-.05.62.83.67.84,1.28.14,0,.28-.09.42-.15a.6.6,0,0,1,.79.18,3.55,3.55,0,0,0,.27.35,6.18,6.18,0,0,0,1.42,0,6.43,6.43,0,0,0,.52-.47c.29.41.88.13,1.26.37.18.11.3.12.37,0a6.88,6.88,0,0,0,.44-1.14c0-.06.13-.08.19-.12S72.42,86.33,72.43,86.26Zm5.47-8.75a.31.31,0,0,1-.36.2c-.2-.07-.44-.15-.49-.42a.91.91,0,0,0-.51-.72c-.07,0-.11-.28-.08-.4a.51.51,0,0,1,.24-.34c.49-.15,1-.28,1.51-.39a.51.51,0,0,1,.38.23.54.54,0,0,1,0,.43,7.75,7.75,0,0,1-.42.81ZM65.24,85.6c-.07-.17,0-.29.06-.34s.2-.06.21,0c.07.17,0,.27-.06.34S65.25,85.62,65.24,85.6Z"/><path class="cls-1" d="M246,99.82c0-.09,0-.23.09-.34s.17,0,.2,0a5.09,5.09,0,0,1,.48.58.44.44,0,0,1,0,.37c-.11.21-.22.19-.29,0s-.08-.11,0,0c.17.31.3.38.46.29a3.6,3.6,0,0,0,.57-.39c.35-.29.38-.43.2-.67-.35-.44-.69-.91-1-1.38-.25,0-.55,0-.65-.16-.25-.3-.58-.63-.31-1.14.1-.18-.1-.48-.25-.51l-1.12-.25a.54.54,0,0,1,0-.18c0-.15.17-.37.12-.42s-.39,0-.61,0c-.43.13-.45.1-.34-.25s.18-.43,0-.63a.32.32,0,0,1,0-.42c.15-.17.47-.19.5-.44s-.34-.17-.46-.3c-.34-.39-.69-.82-.31-1.39a5.19,5.19,0,0,0-1.24-.5.93.93,0,0,0,.05-1.07,3.11,3.11,0,0,1-.22-.4A5.81,5.81,0,0,0,241,90c-.44-.07-.46-.55-.84-.71-.55-.22-.55-.3-.35-.88a1,1,0,0,0-.06-.66c-.05-.24.12-.33.4-.24s.34.11.46-.2l.23-.61-.24-.1c-.32-.14-.32-.14-.23-.44.16-.53.16-.59-.39-.88-.15-.08-.29-.13-.34-.28-.12-.37-.34-.43-.72-.31s-.41.06-.54-.25l-.09-.21c-.23-.53-.23-.54.27-.92.2-.15.33-.32.17-.58-.07,0-.17.1-.22.08a1.11,1.11,0,0,0-1.1-.09s-.15,0-.21-.09a.5.5,0,0,1,.15-.89,6.22,6.22,0,0,0,.64-.29.25.25,0,0,0,.09-.21s-.07-.1-.12-.12c-.48-.28-.5-.27-.62-.62a.94.94,0,0,0-.58-.66c-.33-.12-.32-.19,0-.45.51-.39.51-.39.3-.89-.11-.29-.22-.59-.36-.92a3.72,3.72,0,0,0,.2-.4.56.56,0,0,0-.31-.74c-.2-.11-.45-.16-.5-.44s-.15-.33-.31-.29a1.36,1.36,0,0,1-1.1-.12c-.12-.07-.48.16-.56.33s-.13.29-.21.47a5.63,5.63,0,0,0-1.06-.49c-.45-.1-.5-.56-.82-.74s-.72-.33-1.08-.5c0,0-.06-.14-.09-.22-.18,0-.35.13-.3.3a1.76,1.76,0,0,1-.21,1.31c-.12.25-.45.21-.53.39a1.35,1.35,0,0,1-.74.81c-.06,0-.07.14-.1.21.12,0,.27.17.37.14.45-.13.88-.3,1.32-.44a.21.21,0,0,1,.21.09c.13.28.23.58.37.93l-.52,1.23c0,.06.05.15.08.22a.29.29,0,0,1,.44,0,3,3,0,0,1,.32.62c.17.41.1.59-.27.73a3.47,3.47,0,0,0-.45.17.51.51,0,0,1-.45,0c-.48-.17-.55-.14-.48.12s.07.47.35.56a4.28,4.28,0,0,1,.44.2c.29.75.59,1.5.87,2.23a3.53,3.53,0,0,1,.64.35c.11.09.12.29.22.4s.28.14.34,0a1.09,1.09,0,0,1,.19-.44,1,1,0,0,1,.43-.18c.23-.07.29.15.18.47a1.78,1.78,0,0,1-.71.87c-.23.17-.29.55-.42.84l1.15.5a.65.65,0,0,1,.28.59l-.64,1.56c-.15.39,0,.64.51.88l.23.11c.18.44.38.89.58,1.34,0,0,.14.08.22.08s.11,0,.13-.1c.3-.53.28-.57.6-.66a1,1,0,0,0,.72-.85,1.29,1.29,0,0,0,1.12.1c.22-.09.32.26.45.46s.31.17.45-.09c.25-.51.43-.59.89-.41.21.07.42.17.62.26-.15.39-.3.76-.44,1.13a2.09,2.09,0,0,0,.11.43l.79,1.73c0,.1-.05.27-.08.4l-.23-.07c-.22-.08-.43-.17-.66,0a2.39,2.39,0,0,1-.43.2c-.28.12-.45.07-.56-.22-.19-.47-.43-.85-1-.93l-.5-1.11c-.07,0-.17.11-.21.09a1.14,1.14,0,0,0-1.31.05A1.33,1.33,0,0,1,235,92l-.36,1,.57,1.25c.08.19.35.24.6.12a2.83,2.83,0,0,0,.81-.49.38.38,0,0,1,0-.31s.07-.11.11-.11.25.09.21.24a.31.31,0,0,1-.29.27s-.08-.13,0-.09c.17.24.2.4.06.54-.54.58-.65.76-.74,1.13s0,.52.47.71c.18.08.31.12.3.24a.51.51,0,0,1-.07.24c-.17.35.07.62.21.9a.7.7,0,0,0,.3.35,2.23,2.23,0,0,0,.92.23c.21,0,.43-.2.66,0s.58-.1.88-.09.27.11.14.32,0,.61.11.9c.05.13-.29.5-.44.49a3.57,3.57,0,0,1-.47-.11l-.23-.07c0,.16-.07.34,0,.47a12.66,12.66,0,0,0,.92,1.53.71.71,0,0,0,.42.19.53.53,0,0,1,.41.24c.26.45.56.86,1.14.85.13,0,.32.44.31.62s0,.33,0,.48a20.35,20.35,0,0,0,1.63,1.85,2.58,2.58,0,0,1,.5-.49.24.24,0,0,1,.37.12.29.29,0,0,1,0,.24c-.14.18-.31.35-.47.52.12.19.3.3.46.19a5.07,5.07,0,0,0,.67-.64c.13-.15.06-.33-.18-.63s-.23-.39-.06-.62a.48.48,0,0,1,.39-.22c.17,0,.54.21.51.38-.07.56.33.86.75,1.13.21.14.24.34.08.61s-.19.3,0,.44a3,3,0,0,1,.87,1c0,.08.34.06.4-.1.17-.44.3-.9.43-1.35,0-.05,0-.16-.1-.21s-.12,0-.18,0l-.49.18c-.08-.24-.13-.47-.19-.7a1.41,1.41,0,0,1,.58-1.16.19.19,0,0,1,.15,0c0,.55.37.7.73.8a1.86,1.86,0,0,0,.37.1.83.83,0,0,0,.33-.18,1.59,1.59,0,0,0,.37-.36c0-.35,0-.59.05-.82a.7.7,0,0,1,.09-.4s0,0,.07.07a3.67,3.67,0,0,0,.26.47c.08.13.18.5.09.63a3.73,3.73,0,0,0-.29,1c-.05.16-.2.19-.36.14a.31.31,0,0,0-.37.15.66.66,0,0,0,0,.65,6.4,6.4,0,0,0,.91.89s0,.16,0,.24c.3,0,.67-.18.88-.1a1.55,1.55,0,0,0,1.4.09,1.57,1.57,0,0,0,1.67-.39.89.89,0,0,1,.53-.15c.76-.08.83-.18,1-.78.09-.38.09-.37.46-.44s.44-.25.3-.46-.22-.22-.31-.35-.15-.23.46-.37a1.09,1.09,0,0,0,.26,0c.3-.16.43-.68.19-.86s-.38-.29-.58-.42-.42,0-.6.2-.55.59-.46,1.09c.06.33-.28.59-.65.6H254v-.7a3.62,3.62,0,0,1-.47,0,.72.72,0,0,1-.5-.41.38.38,0,0,1,.11-.4,5.4,5.4,0,0,0,.88-1c.21-.28.52-.22.84-.29a18.77,18.77,0,0,0,1.49-2.32c.05-.09-.05-.3-.14-.4s-.27-.15-.4-.24c-.53-.33-.52-.34-.24-.89l.44-.82c.21-.07.43-.13.64-.22s.08-.14.11-.21a2.39,2.39,0,0,1-.57-.3.37.37,0,0,1-.08-.54c-.07,0-.15-.11-.21-.1-.23,0-.45.12-.66.18l-1.07-.54c-.26-.13-.47-.09-.58.13a19.1,19.1,0,0,1-.91,1.68,1,1,0,0,0-.07,1c.06.14-.16.37-.34.4l-.44,0c.12.41.22.77.32,1.17a5.94,5.94,0,0,1-.55.69c-.17.2-.14.27.09.52.05.06.13.1.17.16s.12.36,0,.48-.28.12-.49-.12-.52-.61-.79-.9c-.08-.06-.24-.16-.28-.14s-.21.17-.26.16-.1.08-.09,0,0,.14,0,.22c.08.37,0,.37,0,0s0-.19,0-.2,0,0,0,0c-.15.49-.22.31-.36.29a1.13,1.13,0,0,0-.23.2s-.07.14-.12.2c-.23.34-.65.61-.91.49a.43.43,0,0,0-.32,0c-.18.06-.4.18-.54,0s-.53,0-.77-.07-.28-.2-.25-.29a1.06,1.06,0,0,0-.4-1.11l-.14-.15c-.13-.16-.29-.34-.15-.56,0-.06.27,0,.4,0s.3,0,.29-.3A3.73,3.73,0,0,1,246,99.82Zm-8.61-13.91a.49.49,0,0,1-.08.41.5.5,0,0,1-.42.17,5.53,5.53,0,0,1-.85-.33A.17.17,0,0,1,236,86c.27-.34.06-.71.1-1.07a2.06,2.06,0,0,1,.26-.64c0-.06.08-.16.11-.15a.37.37,0,0,1,.34.26l.26.65A8,8,0,0,1,237.38,85.91Zm2.35,11.47c-.33-.11-.34-.11-.24-.43a3.31,3.31,0,0,1,.22-.65.74.74,0,0,1,.4-.21c.17,0,.47.19.48.39a1.19,1.19,0,0,1,0,.42c0,.22-.13.44-.22.73Zm-6.51-17.87a4,4,0,0,1-.39.84c-.11.2-.65.12-.77-.11s-.13-.54.25-.71c.16-.07.26-.13.31-.3a1.92,1.92,0,0,1,.19-.41A.56.56,0,0,1,233.22,79.51Zm8,16a.43.43,0,0,1-.59-.1.5.5,0,0,1,.37-.84.54.54,0,0,1,.48.4A.42.42,0,0,1,241.19,95.53Zm8.59,7.12c0,.12,0,.24,0,.37s-.06.47-.11.69a1.62,1.62,0,0,1-.17.35,1.58,1.58,0,0,1,0-.39c0-.14.08-.3.12-.47A1.86,1.86,0,0,1,249.78,102.65Zm.15.18c0-.17,0-.21.07-.16s0,0,0,0a.83.83,0,0,1,.07.3.63.63,0,0,1,0,.16s0,0-.06,0S249.9,103,249.93,102.83Zm-7.85-3.38a.3.3,0,0,1,.35.24c0,.07.11.13.11.2s0,.31-.16.32a.32.32,0,0,1-.22-.06A.53.53,0,0,1,242,100C241.88,99.71,241.9,99.47,242.08,99.45Z"/><path class="cls-1" d="M318.74,80.49a.65.65,0,0,1-.28-.2c-.1-.2,0-.3.2-.21s.17.17,0,.13a4.13,4.13,0,0,0-.45-.13c-.24-.2-.46-.42-.69-.63a1.07,1.07,0,0,0-.5-.93c-.23-.17-.22-.19-.52,0-.12.09-.25.22-.38.23-.38,0-.59.16-.57.56s0,.63,0,1,.08.37.44.39c.17,0,.35,0,.41.13s.07.46.19.63a5.89,5.89,0,0,0,.67.65c.31.3.31.5-.08,1-.11.14-.21.24-.18.42a1.23,1.23,0,0,1-.48,1.26c.4.37.78.76,1.2,1.11a.47.47,0,0,0,.46,0c.35-.3.67-.65,1-1l.71.67c.2.19.23.22.5-.07s.42-.18.65-.24a.53.53,0,0,0,.24-.77c-.09-.13-.24-.21-.34-.33s0-.26.18-.32.54.06.62-.23-.25-.32-.37-.49a.71.71,0,0,1,.1-.66c.13,0,.21,0,.35.13.56.54,1.13,1.07,1.71,1.6,0,0,.15,0,.23,0s.2,0,.23,0a1.23,1.23,0,0,0,1,.47c.12,0,.25.19.34.31a1.34,1.34,0,0,0,1.44.52,1,1,0,0,1,1,.39,1.08,1.08,0,0,1,1,.49c.17-.18.32-.42.52-.48a1.91,1.91,0,0,1,.95,0c.19,0,.33.27.5.42.24-.23.4-.51.79-.5s1,0,1.44,0a.45.45,0,0,1,.39.21.67.67,0,0,0,.61.25,5.34,5.34,0,0,1,.69,0c.31.51.82.38,1.28.35.11,0,.26-.17.31-.29s0-.37.06-.45a1.1,1.1,0,0,0,.44-1,5.77,5.77,0,0,1,0-.72c0-.23-.16-.35-.48-.37s-.5-.15-.48-.36a3.88,3.88,0,0,1,.09-1.4c0-.06.14-.14.16-.13s.23.21.34.32.34.08.32-.1c-.05-.58.4-.83.71-1.18.43.18.67.59,1,.87a.66.66,0,0,1,.26.61c0,.24,0,.48,0,.72a.69.69,0,0,0,.26.61c.24.21.45.44.71.69,0,.36,0,.76,0,1.15a.63.63,0,0,0,.32.58.57.57,0,0,1,.16.65c0,.2-.23.25-.32.16a.92.92,0,0,0-.81-.38,9.89,9.89,0,0,1-1.44,0c-.13,0-.24-.17-.36-.27l-.17-.16c-.09.11-.23.21-.25.34a.45.45,0,0,0,.48.6c.56,0,1.12,0,1.73,0a.92.92,0,0,0,.94.5c.06,0,.11.11.17.16.32.24.32.23.51,0s.37-.3.55-.45l-.24-.24c-.09-.11-.25-.23-.23-.33s.21-.23.38-.2a.42.42,0,0,0,.51-.35.45.45,0,0,0-.47-.61c-.24,0-.49,0-.72,0a.27.27,0,0,1-.17-.16c-.05-.11,0-.23.2-.31a.48.48,0,0,1,.24,0c.18,0,.35,0,.39-.2s.05-.61.35-.82.14-.59.19-.88c0-.08,0-.21,0-.23-.54-.37-.5-.93-.49-1.48,0-.06-.1-.13-.16-.16s-.12,0-.17,0-.11.11-.17.17c-.21.19-.4.16-.44-.12s0-.48-.24-.62-.53.07-.82.34l-.17.13-.68-.66,0-.23v-.48a.48.48,0,0,0-.79-.42c-.13.09-.22.25-.35.34-.35.23-.7,0-.79-.44s-.11-.4-.42-.42-.49.08-.53.33,0,.47-.24.63l-.51-.44c0,.06-.14.11-.16.18a3,3,0,0,1-.07.45c-.05.12-.2.29-.27.28a.31.31,0,0,1-.21-.37.41.41,0,0,0-.33-.51c-.25-.07-.62.08-.62.25,0,.46-.06.74-.63.76-.3,0-.34.21-.15.42s.12.1.17.16a.49.49,0,0,1-.34.84c-.39,0-.51.35-.76.52-.48-.11-.71.26-1,.55l-.34.35a.66.66,0,0,1-.65.07c-.66-.37-.66-.39-1-.37a.67.67,0,0,1-.61-.24l-.44-.47,1-1.08c.22-.22.51-.21.82,0s.31.23.51,0,.36-.32.53-.46l-.49-.54c.24-.26.47-.5.7-.72.05,0,.16,0,.24,0,.05-.19,0-.37-.17-.39a7.15,7.15,0,0,0-.93,0c-.2,0-.3-.15-.35-.47s-.15-.42-.4-.42l-.48,0a2.77,2.77,0,0,0-.71,0c-.35.11-.53.57-1,.5-.09,0-.23.18-.35.29l-.68.68c-.05,0-.16,0-.24,0s-.28.06-.41.19c-.42.43-.6.44-1,.15a1.11,1.11,0,0,0-.6-.27c-.4,0-.4-.09-.41-.41V78.5c0-.27-.15-.47-.34-.46l-3.25.14-.75.71a3.06,3.06,0,0,0,.22,1.32C318.89,80.36,318.76,80.5,318.74,80.49Zm1.41,0s.11.09.15.15,0,.22-.16.32c0,0-.11-.1-.16-.15S320,80.58,320.15,80.48Z"/><path class="cls-1" d="M179.29,85.3c.56,0,1.09-.14,1.49.46a1.39,1.39,0,0,0,1.27.61c.2,0,.28.19.23.37s.06.28.24.39.54.21.5.5c.1,0,.22-.08.3-.06a4.61,4.61,0,0,1,.51.22c.29.16.59,0,.87-.1s.25-.24-.24-.46l-.26-.11.27-.41c0-.07.09-.14.13-.22a3,3,0,0,0-.51-.09,2.83,2.83,0,0,0-.56.13c-.62.12-.65,0-.82-.58-.11-.44.21-.72.29-1.07-.41-.19-.69-.65-1.21-.51,0,0-.13-.09-.16-.15s-.17-.49,0-.63c.4-.36.12-1.1.48-1.4,0,0,0-.31-.07-.44s-.19-.26-.21-.18c-.11.54-.66.36-.83.89a.86.86,0,0,1-.18-.3c-.1-.66-.08-.66-.39-.66a5.5,5.5,0,0,1-1-.2c-.17-.08-.32,0-.47.15s-.24.15-.34,0c-.09.21-.18.42-.28.62a.43.43,0,0,1-.17.12c-.24.13-.58-.13-.52-.36a.73.73,0,0,1,.34-.52c.06,0,.14-.07.18,0s.3.13.45.19c.1-.3.19,0,.1-.22a1.18,1.18,0,0,0-.13-.3c-.06-.08-.18-.14-.22-.24a1.29,1.29,0,0,1-.05-.4l-.53.15-.06-.34a.4.4,0,0,0-.53-.37c-.2,0-.42.18-.57,0s-.27-.19-.39-.06a1.46,1.46,0,0,1-1,.48c-.1,0-.2.23-.32.32s-.31.08-.36,0a.24.24,0,0,1,0-.22c.36-.61.37-.62,0-.92s-.23-.23-.45-.95a.36.36,0,0,0-.12-.18,1.2,1.2,0,0,0-.39-.2c-.18,0-.22.07-.18.29s0,.35,0,.43c-.39.37-.31.67.09.93,0,.37,0,.76.39,1,.05,0,0,.33-.07.4a1.33,1.33,0,0,0-.44,1.47.83.83,0,0,1-.21.86c-.06.06,0,.32.12.42.22.25.54.43.77.67a.27.27,0,0,1-.07.43.45.45,0,0,0,.47.14c.65-.1.65-.1.51.4s-.16.55.3.79.86.43,1,.91c.05.14.24.12.46,0s.35-.09.59.27a1,1,0,0,0,.46.33.79.79,0,0,0,.6,0c.18-.08.13-.18-.05-.37-.55-.58,0-1,.09-1.58,0-.11.22-.21.35-.29s.17,0,.25,0C179,85.45,179.11,85.3,179.29,85.3Zm1.42-1.63c-.09.17-.19.22-.28.15s-.12-.14-.11-.16.19-.21.27-.15S180.72,83.66,180.71,83.67Z"/><path class="cls-1" d="M258.58,102l.62.36a.42.42,0,0,1,.2.6,3.4,3.4,0,0,1-.43.68c-.09.1-.27.11-.41.16l0-.25c-.07-.38-.09-.42-.39-.32-.49.17-.74-.19-1.06-.39-.1-.06-.11-.26-.16-.39l.24-.06c.34-.09.36-.1.3-.65a.24.24,0,0,1,.07-.16c.06,0,.17-.09.23-.06C258,101.64,258.3,101.81,258.58,102Z"/><path class="cls-1" d="M214,48.71a4.76,4.76,0,0,1,1.58.75.21.21,0,0,1,0,.34c-.06,0-.16.07-.2.05-.22-.14-.43-.24-.64-.37a5,5,0,0,0-.85.57c-.17.17-.24.07-.42-.22.11-.16.28-.27.38-.44A3.91,3.91,0,0,0,214,48.71Z"/><path class="cls-1" d="M248.7,100.89a6.71,6.71,0,0,1-.15.78.84.84,0,0,1-.29.34.35.35,0,0,1-.34,0,1.48,1.48,0,0,1-.37-.34c-.14-.15.06-.63.27-.68A2.41,2.41,0,0,1,248.7,100.89Z"/><path class="cls-1" d="M180.65,87.28l.58,0c.41,0,.63.2.54.63,0,.06-.1.13-.16.19s-.26.07-.45-.08-.34-.26-.65-.06a1.14,1.14,0,0,1-.84.17c-.31,0-.48-.24-.43-.51a.52.52,0,0,1,.53-.44Z"/><path class="cls-1" d="M258.69,100.29a.49.49,0,0,1,.76-.15,2.28,2.28,0,0,1,.36,1.09c0,.12-.12.3-.23.42s-.53.08-.64-.06a2.92,2.92,0,0,1-.36-1.09S258.65,100.36,258.69,100.29Z"/><path class="cls-1" d="M271.42,78.83c-.41-.27-.38-.58,0-.89.07-.07,0-.29,0-.44s0-.32.15-.39.11.11.17.16c.44.43.5.49.27.74s-.12.63.18.92c0,0,0,.15,0,.21s-.09.06-.15.06a.28.28,0,0,1-.2,0A4.93,4.93,0,0,1,271.42,78.83Z"/><path class="cls-1" d="M224.16,50.32s.09.11.08.15a1.26,1.26,0,0,0,.18,1c.16.27-.11.59-.47.65-.14,0-.52-.32-.55-.48a1,1,0,0,1,0-.24c0-.69.13-.94.5-1.13C224,50.22,224.07,50.29,224.16,50.32Z"/><path class="cls-1" d="M182.74,81.78a.66.66,0,0,1,.47.58c0,.21-.13.37-.19.58s-.12.26-.22.23-.2-.17-.22-.36a2.42,2.42,0,0,0-.1-.45C182.4,82,182.49,81.8,182.74,81.78Z"/><path class="cls-1" d="M184,81.84c.06,0,.15,0,.18.09a2.09,2.09,0,0,1,.47,1,.28.28,0,0,1-.06.2.61.61,0,0,1-.58.06.7.7,0,0,1-.23-.59.73.73,0,0,1,.05-.2l.06-.2Z"/><path class="cls-1" d="M213,49.47s-.07-.09-.08-.16a1.15,1.15,0,0,1,0-.45,1.27,1.27,0,0,1,.7-.72.43.43,0,0,1,.44.35.64.64,0,0,1,0,.21C213.49,48.62,213.32,49.35,213,49.47Z"/><path class="cls-1" d="M331.91,79.22a1.73,1.73,0,0,1-.79.77.76.76,0,0,1-.44,0c-.26-.07-.23-.12.06-.41s.53-.62,1-.48C331.8,79.07,331.85,79.15,331.91,79.22Z"/><path class="cls-1" d="M343.29,80.22l.48.48c.33.34.32.45,0,1l-.49-.49C343,80.84,343,80.72,343.29,80.22Z"/><path class="cls-1" d="M255.81,93.59c-.07,0-.19-.07-.19-.1s.12-.24.28-.28.42-.15.63-.22c0,0,.13,0,.15,0a.34.34,0,0,1,0,.41c-.16.33-.33.4-.68.25Z"/><path class="cls-1" d="M250.91,108.57a.69.69,0,0,1-.16.18c-.46.25-1,.18-1.11,0a.52.52,0,0,1,.09-.61c.18-.21.18-.2.51.08A5.39,5.39,0,0,0,250.91,108.57Z"/><path class="cls-1" d="M230.43,80.24c-.29.1-.55-.09-.59-.45,0-.12.07-.25.11-.38l.21.09.41.17c.35.12.38.16.21.33A2.16,2.16,0,0,1,230.43,80.24Z"/><path class="cls-1" d="M72.63,86.67c-.16-.16-.13-.27.08-.3a.3.3,0,0,1,.21,0,2,2,0,0,1,.28.3.27.27,0,0,1,0,.4c-.06.06-.27,0-.35-.06A1.64,1.64,0,0,1,72.63,86.67Z"/><path class="cls-1" d="M142.06,90.7c.05,0,.11.06.13.1.13.26-.12.65-.37.59a.22.22,0,0,1-.13-.1c0-.07-.07-.16-.05-.21a1.94,1.94,0,0,1,.21-.34S142,90.72,142.06,90.7Z"/><path class="cls-1" d="M142.91,89.62c.23.1.48.41.4.49a.22.22,0,0,1-.21,0,1.52,1.52,0,0,1-.4-.16.44.44,0,0,1-.14-.16c0-.07-.08-.16-.06-.21s.13,0,.21,0A1.77,1.77,0,0,1,142.91,89.62Z"/><path class="cls-1" d="M169,73.57c0,.18-.17.26-.38.22s-.26-.29-.1-.54a.53.53,0,0,1,.13-.19.42.42,0,0,1,.25,0,.31.31,0,0,1,.23.36C169.13,73.45,169.06,73.5,169,73.57Z"/><path class="cls-1" d="M236.58,91.38c-.1-.26-.07-.52.07-.55s.37.23.41.46a.38.38,0,0,1,0,.21.37.37,0,0,1-.09.2c-.16.17-.26.12-.29-.11A.78.78,0,0,0,236.58,91.38Z"/><path class="cls-1" d="M179,85.86c0-.24.07-.3.29-.16a.34.34,0,0,1,.14.18,2.09,2.09,0,0,1,0,.43.27.27,0,0,1-.29.29c-.09,0-.24-.2-.26-.31A1.31,1.31,0,0,1,179,85.86Z"/><path class="cls-1" d="M185.82,86.26c-.33.12-.63.1-.65,0s.3-.39.57-.45a.7.7,0,0,1,.25,0,.55.55,0,0,1,.22.06c.18.15.14.27-.14.33A.77.77,0,0,0,185.82,86.26Z"/><path class="cls-1" d="M69.28,83.16a.49.49,0,0,1,0,.14.75.75,0,0,1-.1.28c-.09.1-.12,0,0-.2A.75.75,0,0,1,69.28,83.16Z"/><path class="cls-1" d="M235,73.29c.33-.08.5,0,.48.16a.3.3,0,0,1-.31.29Z"/><path class="cls-1" d="M238.62,82.49a.35.35,0,0,1,.06-.19s.08-.11.11-.11c.2,0,.25.1.2.24s-.13.25-.3.25S238.62,82.56,238.62,82.49Z"/><path class="cls-1" d="M164.31,71.15a.6.6,0,0,1-.19-.16s-.09-.13-.06-.16a.3.3,0,0,1,.45,0c.15.13.21.26.09.39S164.4,71.18,164.31,71.15Z"/><path class="cls-1" d="M158.76,71.72c-.1.19-.22.29-.36.27s-.25-.06-.24-.08a.33.33,0,0,1,.35-.28A1.06,1.06,0,0,1,158.76,71.72Z"/><path class="cls-1" d="M188.39,76.92c.07.17.06.3,0,.33s-.19,0-.2,0-.06-.27,0-.31A1.49,1.49,0,0,1,188.39,76.92Z"/><path class="cls-1" d="M304.76,78.43s.15.11.14.12a.66.66,0,0,1-.22.29c-.2.1-.3,0-.2-.19A.62.62,0,0,1,304.76,78.43Z"/><path class="cls-1" d="M125.66,91.59c-.31.18-.49.17-.53,0a.28.28,0,0,1,.22-.36Z"/><path class="cls-1" d="M149.44,87.51a.27.27,0,0,1-.18.08s-.13,0-.15,0-.09-.26,0-.32a.29.29,0,0,1,.38.07S149.49,87.46,149.44,87.51Z"/><path class="cls-1" d="M339.19,79.55c-.11.16-.22.22-.32.16s-.17-.13-.16-.15c.1-.17.21-.23.32-.17A1.21,1.21,0,0,1,339.19,79.55Z"/><path class="cls-1" d="M152.92,82.69c.2-.26.36-.32.46-.16a.3.3,0,0,1,0,.41Z"/><path class="cls-1" d="M153.33,82.94c.27.22.34.38.19.48a.3.3,0,0,1-.41-.07Z"/><path class="cls-1" d="M192.14,78.81a.34.34,0,0,1,.2,0,.65.65,0,0,1,.09.35c-.05.23-.19.25-.29,0A.63.63,0,0,1,192.14,78.81Z"/><path class="cls-1" d="M224.57,63l-.2-.44a.31.31,0,0,1,.43,0C225,62.61,224.87,62.76,224.57,63Z"/><path class="cls-1" d="M196.32,73.88a.33.33,0,0,1-.19.08s-.14,0-.16,0-.07-.26.07-.31a.29.29,0,0,1,.38.07S196.37,73.83,196.32,73.88Z"/><path class="cls-1" d="M316.2,82.67c.11-.06.22,0,.32.15s-.09.12-.16.16-.22,0-.31-.15C316,82.82,316.15,82.73,316.2,82.67Z"/><path class="cls-1" d="M173.85,85.1a.36.36,0,0,1-.21.05.3.3,0,0,1-.18-.05c-.12-.19-.07-.28.09-.31a.39.39,0,0,1,.42.15S173.91,85.07,173.85,85.1Z"/><path class="cls-1" d="M186.81,85.75c.12.32.07.51-.15.54s-.33-.07-.35-.26Z"/><path class="cls-1" d="M243.94,106.22c-.27.22-.46.23-.55,0a.27.27,0,0,1,.14-.41Z"/><path class="cls-1" d="M183.05,87.84a.43.43,0,0,1-.15.18.34.34,0,0,1-.19.08c-.25-.07-.28-.16-.17-.29a.48.48,0,0,1,.48-.17S183.07,87.78,183.05,87.84Z"/><path class="cls-1" d="M193.63,80.07c0-.12.13-.19.33-.17,0,0,0,.14,0,.22s-.13.2-.33.18A.66.66,0,0,1,193.63,80.07Z"/><path class="cls-1" d="M207,57c-.12,0-.19-.1-.19-.29,0,0,.13,0,.2,0s.19.11.19.29C207.17,56.92,207,56.94,207,57Z"/><path class="cls-1" d="M299.33,83.92c-.27.22-.44.25-.5.08a.3.3,0,0,1,.16-.39Z"/><path class="cls-1" d="M302,85.47s-.12.15-.14.14h0l-2.25-.92a.53.53,0,0,1,0-.3c.07-.21.21-.21.29,0a.07.07,0,0,1,0,0l2,.81A.72.72,0,0,1,302,85.47Z"/><path class="cls-1" d="M307.28,85.11c.06.1,0,.22-.16.32,0,0-.12-.09-.16-.15s0-.22.17-.32C307.15,85,307.23,85.06,307.28,85.11Z"/><path class="cls-1" d="M344.57,87.73c-.05-.1,0-.22.17-.31,0,0,.11.09.15.16s0,.21-.16.31S344.63,87.79,344.57,87.73Z"/></svg>